{
copyright = "Copyright (c) 2015, Cadson Demak (info@cadsondemak.com)";
customParameters = (
{
name = vendorID;
value = CDK;
},
{
name = description;
value = "Copyright (c) 2015, Cadson Demak (info@cadsondemak.com)";
},
{
name = license;

glyphs = (
{
glyphname = A;
lastChange = "2015-10-28 10:23:48 +0000";
layers = (
{
layerId = "A85C0A33-2487-4E47-AED8-78B93E482A34";
name = "Regular Italic";
paths = (
{
closed = 1;
nodes = (
"134 0 LINE",
"231 161 LINE",
"527 161 LINE",
"557 0 LINE",
"682 0 LINE",
"551 699 LINE",
"428 699 LINE",
"0 0 LINE"
);
},
{
closed = 1;
nodes = (
"464 563 LINE",
"514 266 LINE",
"288 266 LINE"
);
}
);
width = 762;
}
);
leftKerningGroup = A;
note = A;
rightKerningGroup = A;
unicode = 0041;
},
{
glyphname = Aacute;
lastChange = "2015-10-28 10:23:48 +0000";
layers = (
{
layerId = "A85C0A33-2487-4E47-AED8-78B93E482A34";
name = "Regular Italic";
paths = (
{
closed = 1;
nodes = (
"134 0 LINE",
"231 161 LINE",
"527 161 LINE",
"557 0 LINE",
"682 0 LINE",
"551 699 LINE",
"428 699 LINE",
"0 0 LINE"
);
},
{
closed = 1;
nodes = (
"464 563 LINE",
"514 266 LINE",
"288 266 LINE"
);
},
{
closed = 1;
nodes = (
"543 742 LINE",
"666 916 LINE",
"533 916 LINE",
"427 742 LINE"
);
}
);
width = 762;
}
);
leftKerningGroup = A;
note = Aacute;
rightKerningGroup = A;
unicode = 00C1;
},
{
glyphname = Abreve;
lastChange = "2015-10-28 10:23:48 +0000";
layers = (
{
layerId = "A85C0A33-2487-4E47-AED8-78B93E482A34";
name = "Regular Italic";
paths = (
{
closed = 1;
nodes = (
"134 0 LINE",
"231 161 LINE",
"527 161 LINE",
"557 0 LINE",
"682 0 LINE",
"551 699 LINE",
"428 699 LINE",
"0 0 LINE"
);
},
{
closed = 1;
nodes = (
"464 563 LINE",
"514 266 LINE",
"288 266 LINE"
);
},
{
closed = 1;
nodes = (
"579 742 OFFCURVE",
"652 803 OFFCURVE",
"671 893 CURVE",
"571 893 LINE",
"562 849 OFFCURVE",
"533 826 OFFCURVE",
"491 826 CURVE SMOOTH",
"449 826 OFFCURVE",
"430 849 OFFCURVE",
"439 893 CURVE",
"350 893 LINE",
"331 803 OFFCURVE",
"377 742 OFFCURVE",
"478 742 CURVE SMOOTH"
);
}
);
width = 762;
}
);
leftKerningGroup = A;
note = Abreve;
rightKerningGroup = A;
unicode = 0102;
},
{
glyphname = Abreveacute;
lastChange = "2015-10-28 10:23:48 +0000";
layers = (
{
layerId = "A85C0A33-2487-4E47-AED8-78B93E482A34";
name = "Regular Italic";
paths = (
{
closed = 1;
nodes = (
"134 0 LINE",
"231 161 LINE",
"527 161 LINE",
"557 0 LINE",
"682 0 LINE",
"551 699 LINE",
"428 699 LINE",
"0 0 LINE"
);
},
{
closed = 1;
nodes = (
"464 563 LINE",
"514 266 LINE",
"288 266 LINE"
);
},
{
closed = 1;
nodes = (
"597 742 OFFCURVE",
"667 801 OFFCURVE",
"685 889 CURVE",
"594 889 LINE",
"585 846 OFFCURVE",
"558 824 OFFCURVE",
"517 824 CURVE SMOOTH",
"476 824 OFFCURVE",
"457 846 OFFCURVE",
"466 889 CURVE",
"374 889 LINE",
"356 801 OFFCURVE",
"401 742 OFFCURVE",
"499 742 CURVE SMOOTH"
);
},
{
closed = 1;
nodes = (
"573 893 LINE",
"666 1019 LINE",
"566 1019 LINE",
"487 893 LINE"
);
}
);
width = 762;
}
);
leftKerningGroup = A;
note = Abreveacute;
rightKerningGroup = A;
unicode = 1EAE;
},
{
glyphname = Abrevedotbelow;
lastChange = "2015-10-28 10:23:47 +0000";
layers = (
{
layerId = "A85C0A33-2487-4E47-AED8-78B93E482A34";
name = "Regular Italic";
paths = (
{
closed = 1;
nodes = (
"134 0 LINE",
"231 161 LINE",
"527 161 LINE",
"557 0 LINE",
"682 0 LINE",
"551 699 LINE",
"428 699 LINE",
"0 0 LINE"
);
},
{
closed = 1;
nodes = (
"340 -179 OFFCURVE",
"376 -150 OFFCURVE",
"383 -113 CURVE SMOOTH",
"391 -76 OFFCURVE",
"368 -46 OFFCURVE",
"333 -46 CURVE SMOOTH",
"297 -46 OFFCURVE",
"259 -76 OFFCURVE",
"251 -113 CURVE SMOOTH",
"244 -150 OFFCURVE",
"268 -179 OFFCURVE",
"304 -179 CURVE SMOOTH"
);
},
{
closed = 1;
nodes = (
"464 563 LINE",
"514 266 LINE",
"288 266 LINE"
);
},
{
closed = 1;
nodes = (
"579 742 OFFCURVE",
"652 803 OFFCURVE",
"671 893 CURVE",
"571 893 LINE",
"562 849 OFFCURVE",
"533 826 OFFCURVE",
"491 826 CURVE SMOOTH",
"449 826 OFFCURVE",
"430 849 OFFCURVE",
"439 893 CURVE",
"350 893 LINE",
"331 803 OFFCURVE",
"377 742 OFFCURVE",
"478 742 CURVE SMOOTH"
);
}
);
width = 762;
}
);
leftKerningGroup = A;
note = Abrevedotbelow;
rightKerningGroup = A;
unicode = 1EB6;
},
{
glyphname = Abrevegrave;
lastChange = "2015-10-28 10:23:48 +0000";
layers = (
{
layerId = "A85C0A33-2487-4E47-AED8-78B93E482A34";
name = "Regular Italic";
paths = (
{
closed = 1;
nodes = (
"134 0 LINE",
"231 161 LINE",
"527 161 LINE",
"557 0 LINE",
"682 0 LINE",
"551 699 LINE",
"428 699 LINE",
"0 0 LINE"
);
},
{
closed = 1;
nodes = (
"464 563 LINE",
"514 266 LINE",
"288 266 LINE"
);
},
{
closed = 1;
nodes = (
"597 742 OFFCURVE",
"667 801 OFFCURVE",
"685 889 CURVE",
"594 889 LINE",
"585 846 OFFCURVE",
"558 824 OFFCURVE",
"517 824 CURVE SMOOTH",
"476 824 OFFCURVE",
"457 846 OFFCURVE",
"466 889 CURVE",
"374 889 LINE",
"356 801 OFFCURVE",
"401 742 OFFCURVE",
"499 742 CURVE SMOOTH"
);
},
{
closed = 1;
nodes = (
"575 893 LINE",
"550 1019 LINE",
"449 1019 LINE",
"489 893 LINE"
);
}
);
width = 762;
}
);
leftKerningGroup = A;
note = Abrevegrave;
rightKerningGroup = A;
unicode = 1EB0;
},
{
glyphname = Abrevehookabove;
lastChange = "2015-10-28 10:23:48 +0000";
layers = (
{
layerId = "A85C0A33-2487-4E47-AED8-78B93E482A34";
name = "Regular Italic";
paths = (
{
closed = 1;
nodes = (
"134 0 LINE",
"231 161 LINE",
"527 161 LINE",
"557 0 LINE",
"682 0 LINE",
"551 699 LINE",
"428 699 LINE",
"0 0 LINE"
);
},
{
closed = 1;
nodes = (
"464 563 LINE",
"514 266 LINE",
"288 266 LINE"
);
},
{
closed = 1;
nodes = (
"597 742 OFFCURVE",
"667 801 OFFCURVE",
"685 889 CURVE",
"596 889 LINE",
"587 846 OFFCURVE",
"557 822 OFFCURVE",
"516 822 CURVE SMOOTH",
"475 822 OFFCURVE",
"455 846 OFFCURVE",
"464 889 CURVE",
"374 889 LINE",
"356 801 OFFCURVE",
"401 742 OFFCURVE",
"499 742 CURVE SMOOTH"
);
},
{
closed = 1;
nodes = (
"570 882 LINE",
"575 906 LINE",
"616 913 OFFCURVE",
"646 937 OFFCURVE",
"653 971 CURVE SMOOTH",
"661 1013 OFFCURVE",
"631 1041 OFFCURVE",
"571 1041 CURVE SMOOTH",
"547 1041 OFFCURVE",
"516 1036 OFFCURVE",
"496 1030 CURVE",
"486 981 LINE",
"497 986 OFFCURVE",
"515 989 OFFCURVE",
"529 989 CURVE SMOOTH",
"557 989 OFFCURVE",
"570 984 OFFCURVE",
"565 963 CURVE SMOOTH",
"560 939 OFFCURVE",
"539 932 OFFCURVE",
"501 932 CURVE",
"491 882 LINE"
);
}
);
width = 762;
}
);
leftKerningGroup = A;
note = Abrevehookabove;
rightKerningGroup = A;
unicode = 1EB2;
},
{
glyphname = Abrevetilde;
lastChange = "2015-10-28 10:23:47 +0000";
layers = (
{
layerId = "A85C0A33-2487-4E47-AED8-78B93E482A34";
name = "Regular Italic";
paths = (
{
closed = 1;
nodes = (
"134 0 LINE",
"231 161 LINE",
"527 161 LINE",
"557 0 LINE",
"682 0 LINE",
"551 699 LINE",
"428 699 LINE",
"0 0 LINE"
);
},
{
closed = 1;
nodes = (
"464 563 LINE",
"514 266 LINE",
"288 266 LINE"
);
},
{
closed = 1;
nodes = (
"597 742 OFFCURVE",
"667 801 OFFCURVE",
"685 889 CURVE",
"594 889 LINE",
"585 846 OFFCURVE",
"558 824 OFFCURVE",
"517 824 CURVE SMOOTH",
"476 824 OFFCURVE",
"457 846 OFFCURVE",
"466 889 CURVE",
"374 889 LINE",
"356 801 OFFCURVE",
"401 742 OFFCURVE",
"499 742 CURVE SMOOTH"
);
},
{
closed = 1;
nodes = (
"651 925 OFFCURVE",
"678 935 OFFCURVE",
"700 959 CURVE",
"719 1049 LINE",
"691 1018 OFFCURVE",
"663 1007 OFFCURVE",
"633 1007 CURVE SMOOTH",
"585 1007 OFFCURVE",
"539 1050 OFFCURVE",
"489 1050 CURVE SMOOTH",
"454 1050 OFFCURVE",
"425 1040 OFFCURVE",
"403 1015 CURVE",
"384 926 LINE",
"414 957 OFFCURVE",
"440 968 OFFCURVE",
"471 968 CURVE SMOOTH",
"518 968 OFFCURVE",
"562 925 OFFCURVE",
"616 925 CURVE SMOOTH"
);
}
);
width = 762;
}
);
leftKerningGroup = A;
note = Abrevetilde;
rightKerningGroup = A;
unicode = 1EB4;
},
{
glyphname = Acaron;
lastChange = "2015-10-28 10:23:47 +0000";
layers = (
{
layerId = "A85C0A33-2487-4E47-AED8-78B93E482A34";
name = "Regular Italic";
paths = (
{
closed = 1;
nodes = (
"134 0 LINE",
"231 161 LINE",
"527 161 LINE",
"557 0 LINE",
"682 0 LINE",
"551 699 LINE",
"428 699 LINE",
"0 0 LINE"
);
},
{
closed = 1;
nodes = (
"464 563 LINE",
"514 266 LINE",
"288 266 LINE"
);
},
{
closed = 1;
nodes = (
"534 742 LINE",
"717 913 LINE",
"585 913 LINE",
"487 813 LINE",
"433 913 LINE",
"313 913 LINE",
"422 742 LINE"
);
}
);
width = 762;
}
);
leftKerningGroup = A;
note = Acaron;
rightKerningGroup = A;
unicode = 01CD;
},
{
glyphname = Acircumflex;
lastChange = "2015-10-28 10:23:48 +0000";
layers = (
{
layerId = "A85C0A33-2487-4E47-AED8-78B93E482A34";
name = "Regular Italic";
paths = (
{
closed = 1;
nodes = (
"134 0 LINE",
"231 161 LINE",
"527 161 LINE",
"557 0 LINE",
"682 0 LINE",
"551 699 LINE",
"428 699 LINE",
"0 0 LINE"
);
},
{
closed = 1;
nodes = (
"464 563 LINE",
"514 266 LINE",
"288 266 LINE"
);
},
{
closed = 1;
nodes = (
"407 742 LINE",
"504 841 LINE",
"559 742 LINE",
"680 742 LINE",
"571 913 LINE",
"459 913 LINE",
"276 742 LINE"
);
}
);
width = 762;
}
);
leftKerningGroup = A;
note = Acircumflex;
rightKerningGroup = A;
unicode = 00C2;
},
{
glyphname = Acircumflexacute;
lastChange = "2015-10-28 10:23:47 +0000";
layers = (
{
layerId = "A85C0A33-2487-4E47-AED8-78B93E482A34";
name = "Regular Italic";
paths = (
{
closed = 1;
nodes = (
"134 0 LINE",
"231 161 LINE",
"527 161 LINE",
"557 0 LINE",
"682 0 LINE",
"551 699 LINE",
"428 699 LINE",
"0 0 LINE"
);
},
{
closed = 1;
nodes = (
"464 563 LINE",
"514 266 LINE",
"288 266 LINE"
);
},
{
closed = 1;
nodes = (
"427 743 LINE",
"517 827 LINE",
"571 743 LINE",
"689 743 LINE",
"584 895 LINE",
"478 895 LINE",
"307 743 LINE"
);
},
{
closed = 1;
nodes = (
"756 842 LINE",
"860 970 LINE",
"743 970 LINE",
"656 842 LINE"
);
}
);
width = 762;
}
);
leftKerningGroup = A;
note = Acircumflexacute;
rightKerningGroup = A;
unicode = 1EA4;
},
{
glyphname = Acircumflexdotbelow;
lastChange = "2015-10-28 10:23:48 +0000";
layers = (
{
layerId = "A85C0A33-2487-4E47-AED8-78B93E482A34";
name = "Regular Italic";
paths = (
{
closed = 1;
nodes = (
"134 0 LINE",
"231 161 LINE",
"527 161 LINE",
"557 0 LINE",
"682 0 LINE",
"551 699 LINE",
"428 699 LINE",
"0 0 LINE"
);
},
{
closed = 1;
nodes = (
"340 -179 OFFCURVE",
"376 -150 OFFCURVE",
"383 -113 CURVE SMOOTH",
"391 -76 OFFCURVE",
"368 -46 OFFCURVE",
"333 -46 CURVE SMOOTH",
"297 -46 OFFCURVE",
"259 -76 OFFCURVE",
"251 -113 CURVE SMOOTH",
"244 -150 OFFCURVE",
"268 -179 OFFCURVE",
"304 -179 CURVE SMOOTH"
);
},
{
closed = 1;
nodes = (
"464 563 LINE",
"514 266 LINE",
"288 266 LINE"
);
},
{
closed = 1;
nodes = (
"407 742 LINE",
"504 841 LINE",
"559 742 LINE",
"680 742 LINE",
"571 913 LINE",
"459 913 LINE",
"276 742 LINE"
);
}
);
width = 762;
}
);
leftKerningGroup = A;
note = Acircumflexdotbelow;
rightKerningGroup = A;
unicode = 1EAC;
},
{
glyphname = Acircumflexgrave;
lastChange = "2015-10-28 10:23:48 +0000";
layers = (
{
layerId = "A85C0A33-2487-4E47-AED8-78B93E482A34";
name = "Regular Italic";
paths = (
{
closed = 1;
nodes = (
"134 0 LINE",
"231 161 LINE",
"527 161 LINE",
"557 0 LINE",
"682 0 LINE",
"551 699 LINE",
"428 699 LINE",
"0 0 LINE"
);
},
{
closed = 1;
nodes = (
"464 563 LINE",
"514 266 LINE",
"288 266 LINE"
);
},
{
closed = 1;
nodes = (
"384 841 LINE",
"350 969 LINE",
"233 969 LINE",
"283 841 LINE"
);
},
{
closed = 1;
nodes = (
"427 742 LINE",
"517 826 LINE",
"570 742 LINE",
"690 742 LINE",
"583 894 LINE",
"478 894 LINE",
"308 742 LINE"
);
}
);
width = 762;
}
);
leftKerningGroup = A;
note = Acircumflexgrave;
rightKerningGroup = A;
unicode = 1EA6;
},
{
glyphname = Acircumflexhookabove;
lastChange = "2015-10-28 10:23:47 +0000";
layers = (
{
layerId = "A85C0A33-2487-4E47-AED8-78B93E482A34";
name = "Regular Italic";
paths = (
{
closed = 1;
nodes = (
"134 0 LINE",
"231 161 LINE",
"527 161 LINE",
"557 0 LINE",
"682 0 LINE",
"551 699 LINE",
"428 699 LINE",
"0 0 LINE"
);
},
{
closed = 1;
nodes = (
"464 563 LINE",
"514 266 LINE",
"288 266 LINE"
);
},
{
closed = 1;
nodes = (
"427 743 LINE",
"517 827 LINE",
"571 743 LINE",
"689 743 LINE",
"584 895 LINE",
"478 895 LINE",
"307 743 LINE"
);
},
{
closed = 1;
nodes = (
"732 831 LINE",
"737 855 LINE",
"778 862 OFFCURVE",
"808 886 OFFCURVE",
"815 920 CURVE SMOOTH",
"824 962 OFFCURVE",
"793 990 OFFCURVE",
"733 990 CURVE SMOOTH",
"709 990 OFFCURVE",
"678 985 OFFCURVE",
"659 979 CURVE",
"649 930 LINE",
"660 935 OFFCURVE",
"677 938 OFFCURVE",
"691 938 CURVE SMOOTH",
"719 938 OFFCURVE",
"732 933 OFFCURVE",
"727 912 CURVE SMOOTH",
"722 888 OFFCURVE",
"701 881 OFFCURVE",
"664 881 CURVE",
"654 831 LINE"
);
}
);
width = 762;
}
);
leftKerningGroup = A;
note = Acircumflexhookabove;
rightKerningGroup = A;
unicode = 1EA8;
},
{
glyphname = Acircumflextilde;
lastChange = "2015-10-28 10:23:47 +0000";
layers = (
{
layerId = "A85C0A33-2487-4E47-AED8-78B93E482A34";
name = "Regular Italic";
paths = (
{
closed = 1;
nodes = (
"134 0 LINE",
"231 161 LINE",
"527 161 LINE",
"557 0 LINE",
"682 0 LINE",
"551 699 LINE",
"428 699 LINE",
"0 0 LINE"
);
},
{
closed = 1;
nodes = (
"464 563 LINE",
"514 266 LINE",
"288 266 LINE"
);
},
{
closed = 1;
nodes = (
"428 742 LINE",
"518 826 LINE",
"572 742 LINE",
"690 742 LINE",
"585 894 LINE",
"479 894 LINE",
"308 742 LINE"
);
},
{
closed = 1;
nodes = (
"650 906 OFFCURVE",
"677 916 OFFCURVE",
"699 940 CURVE",
"718 1030 LINE",
"690 999 OFFCURVE",
"663 988 OFFCURVE",
"632 988 CURVE SMOOTH",
"584 988 OFFCURVE",
"538 1031 OFFCURVE",
"488 1031 CURVE SMOOTH",
"453 1031 OFFCURVE",
"424 1021 OFFCURVE",
"402 996 CURVE",
"383 907 LINE",
"413 938 OFFCURVE",
"439 949 OFFCURVE",
"470 949 CURVE SMOOTH",
"517 949 OFFCURVE",
"561 906 OFFCURVE",
"615 906 CURVE SMOOTH"
);
}
);
width = 762;
}
);
leftKerningGroup = A;
note = Acircumflextilde;
rightKerningGroup = A;
unicode = 1EAA;
},
{
glyphname = Adieresis;
lastChange = "2015-10-28 10:23:48 +0000";
layers = (
{
layerId = "A85C0A33-2487-4E47-AED8-78B93E482A34";
name = "Regular Italic";
paths = (
{
closed = 1;
nodes = (
"134 0 LINE",
"231 161 LINE",
"527 161 LINE",
"557 0 LINE",
"682 0 LINE",
"551 699 LINE",
"428 699 LINE",
"0 0 LINE"
);
},
{
closed = 1;
nodes = (
"464 563 LINE",
"514 266 LINE",
"288 266 LINE"
);
},
{
closed = 1;
nodes = (
"397 752 OFFCURVE",
"434 781 OFFCURVE",
"441 818 CURVE SMOOTH",
"449 855 OFFCURVE",
"426 885 OFFCURVE",
"390 885 CURVE SMOOTH",
"355 885 OFFCURVE",
"317 855 OFFCURVE",
"309 818 CURVE SMOOTH",
"302 781 OFFCURVE",
"326 752 OFFCURVE",
"361 752 CURVE SMOOTH"
);
},
{
closed = 1;
nodes = (
"634 752 OFFCURVE",
"671 781 OFFCURVE",
"678 818 CURVE SMOOTH",
"686 855 OFFCURVE",
"663 885 OFFCURVE",
"627 885 CURVE SMOOTH",
"591 885 OFFCURVE",
"553 855 OFFCURVE",
"545 818 CURVE SMOOTH",
"538 781 OFFCURVE",
"562 752 OFFCURVE",
"598 752 CURVE SMOOTH"
);
}
);
width = 762;
}
);
leftKerningGroup = A;
note = Adieresis;
rightKerningGroup = A;
unicode = 00C4;
},
{
glyphname = Adotbelow;
lastChange = "2015-10-28 10:23:48 +0000";
layers = (
{
layerId = "A85C0A33-2487-4E47-AED8-78B93E482A34";
name = "Regular Italic";
paths = (
{
closed = 1;
nodes = (
"134 0 LINE",
"231 161 LINE",
"527 161 LINE",
"557 0 LINE",
"682 0 LINE",
"551 699 LINE",
"428 699 LINE",
"0 0 LINE"
);
},
{
closed = 1;
nodes = (
"339 -179 OFFCURVE",
"375 -150 OFFCURVE",
"382 -113 CURVE SMOOTH",
"390 -76 OFFCURVE",
"367 -46 OFFCURVE",
"332 -46 CURVE SMOOTH",
"296 -46 OFFCURVE",
"258 -76 OFFCURVE",
"250 -113 CURVE SMOOTH",
"243 -150 OFFCURVE",
"267 -179 OFFCURVE",
"303 -179 CURVE SMOOTH"
);
},
{
closed = 1;
nodes = (
"464 563 LINE",
"514 266 LINE",
"288 266 LINE"
);
}
);
width = 762;
}
);
leftKerningGroup = A;
note = Adotbelow;
rightKerningGroup = A;
unicode = 1EA0;
},
{
glyphname = Agrave;
lastChange = "2015-10-28 10:23:48 +0000";
layers = (
{
layerId = "A85C0A33-2487-4E47-AED8-78B93E482A34";
name = "Regular Italic";
paths = (
{
closed = 1;
nodes = (
"134 0 LINE",
"231 161 LINE",
"527 161 LINE",
"557 0 LINE",
"682 0 LINE",
"551 699 LINE",
"428 699 LINE",
"0 0 LINE"
);
},
{
closed = 1;
nodes = (
"464 563 LINE",
"514 266 LINE",
"288 266 LINE"
);
},
{
closed = 1;
nodes = (
"534 742 LINE",
"502 916 LINE",
"369 916 LINE",
"418 742 LINE"
);
}
);
width = 762;
}
);
leftKerningGroup = A;
note = Agrave;
rightKerningGroup = A;
unicode = 00C0;
},
{
glyphname = Ahookabove;
lastChange = "2015-10-28 10:23:48 +0000";
layers = (
{
layerId = "A85C0A33-2487-4E47-AED8-78B93E482A34";
name = "Regular Italic";
paths = (
{
closed = 1;
nodes = (
"134 0 LINE",
"231 161 LINE",
"527 161 LINE",
"557 0 LINE",
"682 0 LINE",
"551 699 LINE",
"428 699 LINE",
"0 0 LINE"
);
},
{
closed = 1;
nodes = (
"464 563 LINE",
"514 266 LINE",
"288 266 LINE"
);
},
{
closed = 1;
nodes = (
"534 742 LINE",
"541 776 LINE",
"602 785 OFFCURVE",
"642 822 OFFCURVE",
"652 870 CURVE SMOOTH",
"665 929 OFFCURVE",
"627 970 OFFCURVE",
"533 970 CURVE SMOOTH",
"497 970 OFFCURVE",
"457 963 OFFCURVE",
"432 956 CURVE",
"418 890 LINE",
"433 896 OFFCURVE",
"471 902 OFFCURVE",
"487 902 CURVE SMOOTH",
"532 902 OFFCURVE",
"546 891 OFFCURVE",
"541 865 CURVE SMOOTH",
"533 827 OFFCURVE",
"496 816 OFFCURVE",
"440 816 CURVE",
"424 742 LINE"
);
}
);
width = 762;
}
);
leftKerningGroup = A;
note = Ahookabove;
rightKerningGroup = A;
unicode = 1EA2;
},
{
glyphname = Amacron;
lastChange = "2015-10-28 10:23:48 +0000";
layers = (
{
layerId = "A85C0A33-2487-4E47-AED8-78B93E482A34";
name = "Regular Italic";
paths = (
{
closed = 1;
nodes = (
"134 0 LINE",
"231 161 LINE",
"527 161 LINE",
"557 0 LINE",
"682 0 LINE",
"551 699 LINE",
"428 699 LINE",
"0 0 LINE"
);
},
{
closed = 1;
nodes = (
"464 563 LINE",
"514 266 LINE",
"288 266 LINE"
);
},
{
closed = 1;
nodes = (
"642 752 LINE",
"660 836 LINE",
"338 836 LINE",
"320 752 LINE"
);
}
);
width = 762;
}
);
leftKerningGroup = A;
note = Amacron;
rightKerningGroup = A;
unicode = 0100;
},
{
glyphname = Aogonek;
lastChange = "2015-10-28 10:23:48 +0000";
layers = (
{
layerId = "A85C0A33-2487-4E47-AED8-78B93E482A34";
name = "Regular Italic";
paths = (
{
closed = 1;
nodes = (
"592 -213 OFFCURVE",
"626 -208 OFFCURVE",
"649 -200 CURVE",
"664 -128 LINE",
"649 -135 OFFCURVE",
"631 -139 OFFCURVE",
"614 -139 CURVE SMOOTH",
"590 -139 OFFCURVE",
"577 -125 OFFCURVE",
"582 -99 CURVE SMOOTH",
"590 -61 OFFCURVE",
"623 -31 OFFCURVE",
"682 0 CURVE",
"551 699 LINE",
"428 699 LINE",
"0 0 LINE",
"134 0 LINE",
"231 161 LINE",
"527 161 LINE",
"557 0 LINE",
"519 -26 OFFCURVE",
"479 -68 OFFCURVE",
"468 -121 CURVE SMOOTH",
"454 -184 OFFCURVE",
"497 -213 OFFCURVE",
"560 -213 CURVE SMOOTH"
);
},
{
closed = 1;
nodes = (
"464 563 LINE",
"514 266 LINE",
"288 266 LINE"
);
}
);
width = 762;
}
);
leftKerningGroup = A;
note = Aogonek;
rightKerningGroup = A;
unicode = 0104;
},
{
glyphname = Aring;
lastChange = "2015-10-28 10:23:47 +0000";
layers = (
{
layerId = "A85C0A33-2487-4E47-AED8-78B93E482A34";
name = "Regular Italic";
paths = (
{
closed = 1;
nodes = (
"134 0 LINE",
"231 161 LINE",
"527 161 LINE",
"557 0 LINE",
"682 0 LINE",
"555 675 LINE",
"593 697 OFFCURVE",
"620 734 OFFCURVE",
"630 778 CURVE SMOOTH",
"645 847 OFFCURVE",
"601 903 OFFCURVE",
"532 903 CURVE SMOOTH",
"459 903 OFFCURVE",
"396 847 OFFCURVE",
"381 778 CURVE SMOOTH",
"371 735 OFFCURVE",
"385 697 OFFCURVE",
"413 675 CURVE",
"0 0 LINE"
);
},
{
closed = 1;
nodes = (
"464 563 LINE",
"514 266 LINE",
"288 266 LINE"
);
},
{
closed = 1;
nodes = (
"460 727 OFFCURVE",
"448 750 OFFCURVE",
"454 778 CURVE SMOOTH",
"460 806 OFFCURVE",
"488 829 OFFCURVE",
"516 829 CURVE SMOOTH",
"551 829 OFFCURVE",
"562 806 OFFCURVE",
"556 778 CURVE SMOOTH",
"550 750 OFFCURVE",
"522 727 OFFCURVE",
"494 727 CURVE SMOOTH"
);
}
);
width = 762;
}
);
leftKerningGroup = A;
note = Aring;
rightKerningGroup = A;
unicode = 00C5;
},
{
glyphname = Aringacute;
lastChange = "2015-10-28 10:23:48 +0000";
layers = (
{
layerId = "A85C0A33-2487-4E47-AED8-78B93E482A34";
name = "Regular Italic";
paths = (
{
closed = 1;
nodes = (
"134 0 LINE",
"231 161 LINE",
"527 161 LINE",
"557 0 LINE",
"682 0 LINE",
"555 675 LINE",
"593 697 OFFCURVE",
"620 734 OFFCURVE",
"630 778 CURVE SMOOTH",
"645 847 OFFCURVE",
"601 903 OFFCURVE",
"532 903 CURVE SMOOTH",
"459 903 OFFCURVE",
"396 847 OFFCURVE",
"381 778 CURVE SMOOTH",
"371 735 OFFCURVE",
"385 697 OFFCURVE",
"413 675 CURVE",
"0 0 LINE"
);
},
{
closed = 1;
nodes = (
"464 563 LINE",
"514 266 LINE",
"288 266 LINE"
);
},
{
closed = 1;
nodes = (
"460 727 OFFCURVE",
"448 750 OFFCURVE",
"454 778 CURVE SMOOTH",
"460 806 OFFCURVE",
"488 829 OFFCURVE",
"516 829 CURVE SMOOTH",
"551 829 OFFCURVE",
"562 806 OFFCURVE",
"556 778 CURVE SMOOTH",
"550 750 OFFCURVE",
"522 727 OFFCURVE",
"494 727 CURVE SMOOTH"
);
},
{
closed = 1;
nodes = (
"600 919 LINE",
"723 1058 LINE",
"590 1058 LINE",
"484 919 LINE"
);
}
);
width = 762;
}
);
leftKerningGroup = A;
note = Aringacute;
rightKerningGroup = A;
unicode = 01FA;
},
{
glyphname = Atilde;
lastChange = "2015-10-28 10:23:47 +0000";
layers = (
{
layerId = "A85C0A33-2487-4E47-AED8-78B93E482A34";
name = "Regular Italic";
paths = (
{
closed = 1;
nodes = (
"134 0 LINE",
"231 161 LINE",
"527 161 LINE",
"557 0 LINE",
"682 0 LINE",
"551 699 LINE",
"428 699 LINE",
"0 0 LINE"
);
},
{
closed = 1;
nodes = (
"464 563 LINE",
"514 266 LINE",
"288 266 LINE"
);
},
{
closed = 1;
nodes = (
"323 781 OFFCURVE",
"358 794 OFFCURVE",
"395 794 CURVE SMOOTH",
"459 794 OFFCURVE",
"501 744 OFFCURVE",
"574 744 CURVE SMOOTH",
"616 744 OFFCURVE",
"653 755 OFFCURVE",
"682 786 CURVE",
"704 889 LINE",
"668 851 OFFCURVE",
"632 838 OFFCURVE",
"594 838 CURVE SMOOTH",
"529 838 OFFCURVE",
"483 888 OFFCURVE",
"415 888 CURVE SMOOTH",
"374 888 OFFCURVE",
"336 876 OFFCURVE",
"306 845 CURVE",
"284 742 LINE"
);
}
);
width = 762;
}
);
leftKerningGroup = A;
note = Atilde;
rightKerningGroup = A;
unicode = 00C3;
},
{
glyphname = AE;
lastChange = "2015-10-28 10:23:48 +0000";
layers = (
{
layerId = "A85C0A33-2487-4E47-AED8-78B93E482A34";
name = "Regular Italic";
paths = (
{
closed = 1;
nodes = (
"136 0 LINE",
"251 171 LINE",
"442 171 LINE",
"406 0 LINE",
"844 0 LINE",
"866 105 LINE",
"555 105 LINE",
"596 297 LINE",
"818 297 LINE",
"840 402 LINE",
"618 402 LINE",
"659 594 LINE",
"970 594 LINE",
"992 699 LINE",
"479 699 LINE",
"0 0 LINE"
);
},
{
closed = 1;
nodes = (
"529 594 LINE",
"532 594 LINE",
"462 266 LINE",
"319 266 LINE"
);
}
);
width = 924;
}
);
leftKerningGroup = A;
note = AE;
rightKerningGroup = E;
unicode = 00C6;
},
{
glyphname = AEacute;
lastChange = "2015-10-28 10:23:47 +0000";
layers = (
{
layerId = "A85C0A33-2487-4E47-AED8-78B93E482A34";
name = "Regular Italic";
paths = (
{
closed = 1;
nodes = (
"136 0 LINE",
"251 171 LINE",
"442 171 LINE",
"406 0 LINE",
"844 0 LINE",
"866 105 LINE",
"555 105 LINE",
"596 297 LINE",
"818 297 LINE",
"840 402 LINE",
"618 402 LINE",
"659 594 LINE",
"970 594 LINE",
"992 699 LINE",
"479 699 LINE",
"0 0 LINE"
);
},
{
closed = 1;
nodes = (
"529 594 LINE",
"532 594 LINE",
"462 266 LINE",
"319 266 LINE"
);
},
{
closed = 1;
nodes = (
"706 742 LINE",
"829 916 LINE",
"696 916 LINE",
"590 742 LINE"
);
}
);
width = 924;
}
);
leftKerningGroup = A;
note = AEacute;
rightKerningGroup = E;
unicode = 01FC;
},
{
glyphname = B;
lastChange = "2015-10-28 10:23:48 +0000";
layers = (
{
layerId = "A85C0A33-2487-4E47-AED8-78B93E482A34";
name = "Regular Italic";
paths = (
{
closed = 1;
nodes = (
"369 0 LINE SMOOTH",
"495 0 OFFCURVE",
"595 74 OFFCURVE",
"620 201 CURVE SMOOTH",
"636 284 OFFCURVE",
"610 334 OFFCURVE",
"545 362 CURVE",
"602 389 OFFCURVE",
"650 444 OFFCURVE",
"663 511 CURVE SMOOTH",
"685 623 OFFCURVE",
"612 699 OFFCURVE",
"492 699 CURVE SMOOTH",
"168 699 LINE",
"20 0 LINE"
);
},
{
closed = 1;
nodes = (
"211 306 LINE",
"398 306 LINE SMOOTH",
"473 306 OFFCURVE",
"508 277 OFFCURVE",
"492 200 CURVE SMOOTH",
"475 121 OFFCURVE",
"426 100 OFFCURVE",
"361 100 CURVE SMOOTH",
"167 100 LINE"
);
},
{
closed = 1;
nodes = (
"273 599 LINE",
"453 599 LINE SMOOTH",
"514 599 OFFCURVE",
"550 582 OFFCURVE",
"533 503 CURVE SMOOTH",
"519 435 OFFCURVE",
"480 408 OFFCURVE",
"418 408 CURVE SMOOTH",
"232 408 LINE"
);
}
);
width = 658;
}
);
note = B;
unicode = 0042;
},
{
glyphname = C;
lastChange = "2015-10-28 10:23:48 +0000";
layers = (
{
layerId = "A85C0A33-2487-4E47-AED8-78B93E482A34";
name = "Regular Italic";
paths = (
{
closed = 1;
nodes = (
"470 -15 OFFCURVE",
"567 5 OFFCURVE",
"636 57 CURVE",
"661 178 LINE",
"582 122 OFFCURVE",
"502 100 OFFCURVE",
"406 100 CURVE SMOOTH",
"233 100 OFFCURVE",
"169 195 OFFCURVE",
"202 349 CURVE SMOOTH",
"234 502 OFFCURVE",
"358 598 OFFCURVE",
"512 598 CURVE SMOOTH",
"604 598 OFFCURVE",
"677 576 OFFCURVE",
"727 524 CURVE",
"753 645 LINE",
"697 692 OFFCURVE",
"623 714 OFFCURVE",
"525 714 CURVE SMOOTH",
"295 714 OFFCURVE",
"123 578 OFFCURVE",
"76 355 CURVE SMOOTH",
"28 132 OFFCURVE",
"167 -15 OFFCURVE",
"370 -15 CURVE SMOOTH"
);
}
);
width = 704;
}
);
leftKerningGroup = C;
note = C;
rightKerningGroup = C;
unicode = 0043;
},
{
glyphname = Cacute;
lastChange = "2015-10-28 10:23:47 +0000";
layers = (
{
layerId = "A85C0A33-2487-4E47-AED8-78B93E482A34";
name = "Regular Italic";
paths = (
{
closed = 1;
nodes = (
"470 -15 OFFCURVE",
"567 5 OFFCURVE",
"636 57 CURVE",
"661 178 LINE",
"582 122 OFFCURVE",
"502 100 OFFCURVE",
"406 100 CURVE SMOOTH",
"233 100 OFFCURVE",
"169 195 OFFCURVE",
"202 349 CURVE SMOOTH",
"234 502 OFFCURVE",
"358 598 OFFCURVE",
"512 598 CURVE SMOOTH",
"604 598 OFFCURVE",
"677 576 OFFCURVE",
"727 524 CURVE",
"753 645 LINE",
"697 692 OFFCURVE",
"623 714 OFFCURVE",
"525 714 CURVE SMOOTH",
"295 714 OFFCURVE",
"123 578 OFFCURVE",
"76 355 CURVE SMOOTH",
"28 132 OFFCURVE",
"167 -15 OFFCURVE",
"370 -15 CURVE SMOOTH"
);
},
{
closed = 1;
nodes = (
"561 742 LINE",
"684 916 LINE",
"551 916 LINE",
"445 742 LINE"
);
}
);
width = 704;
}
);
leftKerningGroup = C;
note = Cacute;
rightKerningGroup = C;
unicode = 0106;
},
{
glyphname = Ccaron;
lastChange = "2015-10-28 10:23:48 +0000";
layers = (
{
layerId = "A85C0A33-2487-4E47-AED8-78B93E482A34";
name = "Regular Italic";
paths = (
{
closed = 1;
nodes = (
"470 -15 OFFCURVE",
"567 5 OFFCURVE",
"636 57 CURVE",
"661 178 LINE",
"582 122 OFFCURVE",
"502 100 OFFCURVE",
"406 100 CURVE SMOOTH",
"233 100 OFFCURVE",
"169 195 OFFCURVE",
"202 349 CURVE SMOOTH",
"234 502 OFFCURVE",
"358 598 OFFCURVE",
"512 598 CURVE SMOOTH",
"604 598 OFFCURVE",
"677 576 OFFCURVE",
"727 524 CURVE",
"753 645 LINE",
"697 692 OFFCURVE",
"623 714 OFFCURVE",
"525 714 CURVE SMOOTH",
"295 714 OFFCURVE",
"123 578 OFFCURVE",
"76 355 CURVE SMOOTH",
"28 132 OFFCURVE",
"167 -15 OFFCURVE",
"370 -15 CURVE SMOOTH"
);
},
{
closed = 1;
nodes = (
"558 742 LINE",
"741 913 LINE",
"609 913 LINE",
"511 813 LINE",
"457 913 LINE",
"337 913 LINE",
"446 742 LINE"
);
}
);
width = 704;
}
);
leftKerningGroup = C;
note = Ccaron;
rightKerningGroup = C;
unicode = 010C;
},
{
glyphname = Ccedilla;
lastChange = "2015-10-28 10:23:48 +0000";
layers = (
{
layerId = "A85C0A33-2487-4E47-AED8-78B93E482A34";
name = "Regular Italic";
paths = (
{
closed = 1;
nodes = (
"404 -248 OFFCURVE",
"468 -213 OFFCURVE",
"482 -150 CURVE SMOOTH",
"493 -97 OFFCURVE",
"469 -59 OFFCURVE",
"412 -52 CURVE",
"436 -12 LINE",
"512 -4 OFFCURVE",
"582 16 OFFCURVE",
"636 57 CURVE",
"661 178 LINE",
"582 122 OFFCURVE",
"502 100 OFFCURVE",
"406 100 CURVE SMOOTH",
"233 100 OFFCURVE",
"169 195 OFFCURVE",
"202 349 CURVE SMOOTH",
"234 502 OFFCURVE",
"358 598 OFFCURVE",
"512 598 CURVE SMOOTH",
"604 598 OFFCURVE",
"677 576 OFFCURVE",
"727 524 CURVE",
"753 645 LINE",
"697 692 OFFCURVE",
"623 714 OFFCURVE",
"525 714 CURVE SMOOTH",
"295 714 OFFCURVE",
"123 578 OFFCURVE",
"76 355 CURVE SMOOTH",
"32 149 OFFCURVE",
"146 9 OFFCURVE",
"323 -12 CURVE",
"280 -85 LINE",
"353 -85 OFFCURVE",
"375 -108 OFFCURVE",
"368 -138 CURVE SMOOTH",
"362 -166 OFFCURVE",
"338 -179 OFFCURVE",
"300 -179 CURVE SMOOTH",
"280 -179 OFFCURVE",
"258 -174 OFFCURVE",
"245 -167 CURVE",
"229 -236 LINE",
"246 -243 OFFCURVE",
"281 -248 OFFCURVE",
"318 -248 CURVE SMOOTH"
);
}
);
width = 704;
}
);
leftKerningGroup = C;
note = Ccedilla;
rightKerningGroup = C;
unicode = 00C7;
},
{
glyphname = Ccircumflex;
lastChange = "2015-10-28 10:23:48 +0000";
layers = (
{
layerId = "A85C0A33-2487-4E47-AED8-78B93E482A34";
name = "Regular Italic";
paths = (
{
closed = 1;
nodes = (
"470 -15 OFFCURVE",
"567 5 OFFCURVE",
"636 57 CURVE",
"661 178 LINE",
"582 122 OFFCURVE",
"502 100 OFFCURVE",
"406 100 CURVE SMOOTH",
"233 100 OFFCURVE",
"169 195 OFFCURVE",
"202 349 CURVE SMOOTH",
"234 502 OFFCURVE",
"358 598 OFFCURVE",
"512 598 CURVE SMOOTH",
"604 598 OFFCURVE",
"677 576 OFFCURVE",
"727 524 CURVE",
"753 645 LINE",
"697 692 OFFCURVE",
"623 714 OFFCURVE",
"525 714 CURVE SMOOTH",
"295 714 OFFCURVE",
"123 578 OFFCURVE",
"76 355 CURVE SMOOTH",
"28 132 OFFCURVE",
"167 -15 OFFCURVE",
"370 -15 CURVE SMOOTH"
);
},
{
closed = 1;
nodes = (
"431 742 LINE",
"528 841 LINE",
"583 742 LINE",
"704 742 LINE",
"595 913 LINE",
"483 913 LINE",
"300 742 LINE"
);
}
);
width = 704;
}
);
leftKerningGroup = C;
note = Ccircumflex;
rightKerningGroup = C;
unicode = 0108;
},
{
glyphname = Cdotaccent;
lastChange = "2015-10-28 10:23:48 +0000";
layers = (
{
layerId = "A85C0A33-2487-4E47-AED8-78B93E482A34";
name = "Regular Italic";
paths = (
{
closed = 1;
nodes = (
"470 -15 OFFCURVE",
"567 5 OFFCURVE",
"636 57 CURVE",
"661 178 LINE",
"582 122 OFFCURVE",
"502 100 OFFCURVE",
"406 100 CURVE SMOOTH",
"233 100 OFFCURVE",
"169 195 OFFCURVE",
"202 349 CURVE SMOOTH",
"234 502 OFFCURVE",
"358 598 OFFCURVE",
"512 598 CURVE SMOOTH",
"604 598 OFFCURVE",
"677 576 OFFCURVE",
"727 524 CURVE",
"753 645 LINE",
"697 692 OFFCURVE",
"623 714 OFFCURVE",
"525 714 CURVE SMOOTH",
"295 714 OFFCURVE",
"123 578 OFFCURVE",
"76 355 CURVE SMOOTH",
"28 132 OFFCURVE",
"167 -15 OFFCURVE",
"370 -15 CURVE SMOOTH"
);
},
{
closed = 1;
nodes = (
"536 752 OFFCURVE",
"573 781 OFFCURVE",
"580 818 CURVE SMOOTH",
"588 855 OFFCURVE",
"565 885 OFFCURVE",
"529 885 CURVE SMOOTH",
"493 885 OFFCURVE",
"455 855 OFFCURVE",
"447 818 CURVE SMOOTH",
"440 781 OFFCURVE",
"464 752 OFFCURVE",
"500 752 CURVE SMOOTH"
);
}
);
width = 704;
}
);
leftKerningGroup = C;
note = Cdotaccent;
rightKerningGroup = C;
unicode = 010A;
},
{
glyphname = D;
lastChange = "2015-10-28 10:23:48 +0000";
layers = (
{
layerId = "A85C0A33-2487-4E47-AED8-78B93E482A34";
name = "Regular Italic";
paths = (
{
closed = 1;
nodes = (
"253 0 LINE SMOOTH",
"489 0 OFFCURVE",
"655 115 OFFCURVE",
"701 353 CURVE SMOOTH",
"740 556 OFFCURVE",
"623 699 OFFCURVE",
"402 699 CURVE SMOOTH",
"168 699 LINE",
"20 0 LINE"
);
},
{
closed = 1;
nodes = (
"273 594 LINE",
"384 594 LINE SMOOTH",
"558 594 OFFCURVE",
"603 495 OFFCURVE",
"573 353 CURVE SMOOTH",
"540 199 OFFCURVE",
"440 105 OFFCURVE",
"267 105 CURVE SMOOTH",
"169 105 LINE"
);
}
);
width = 706;
}
);
note = D;
rightKerningGroup = D;
unicode = 0044;
},
{
glyphname = Eth;
lastChange = "2015-10-28 10:23:48 +0000";
layers = (
{
layerId = "A85C0A33-2487-4E47-AED8-78B93E482A34";
name = "Regular Italic";
paths = (
{
closed = 1;
nodes = (
"272 0 LINE SMOOTH",
"508 0 OFFCURVE",
"674 115 OFFCURVE",
"720 353 CURVE SMOOTH",
"759 556 OFFCURVE",
"642 699 OFFCURVE",
"421 699 CURVE SMOOTH",
"187 699 LINE",
"123 397 LINE",
"64 397 LINE",
"43 301 LINE",
"102 301 LINE",
"39 0 LINE"
);
},
{
closed = 1;
nodes = (
"229 301 LINE",
"401 301 LINE",
"422 397 LINE",
"250 397 LINE",
"292 594 LINE",
"403 594 LINE SMOOTH",
"577 594 OFFCURVE",
"622 495 OFFCURVE",
"592 353 CURVE SMOOTH",
"559 199 OFFCURVE",
"459 105 OFFCURVE",
"286 105 CURVE SMOOTH",
"188 105 LINE"
);
}
);
width = 725;
}
);
note = Eth;
rightKerningGroup = D;
unicode = 00D0;
},
{
glyphname = Dcaron;
lastChange = "2015-10-28 10:23:47 +0000";
layers = (
{
layerId = "A85C0A33-2487-4E47-AED8-78B93E482A34";
name = "Regular Italic";
paths = (
{
closed = 1;
nodes = (
"253 0 LINE SMOOTH",
"489 0 OFFCURVE",
"655 115 OFFCURVE",
"701 353 CURVE SMOOTH",
"740 556 OFFCURVE",
"623 699 OFFCURVE",
"402 699 CURVE SMOOTH",
"168 699 LINE",
"20 0 LINE"
);
},
{
closed = 1;
nodes = (
"273 594 LINE",
"384 594 LINE SMOOTH",
"558 594 OFFCURVE",
"603 495 OFFCURVE",
"573 353 CURVE SMOOTH",
"540 199 OFFCURVE",
"440 105 OFFCURVE",
"267 105 CURVE SMOOTH",
"169 105 LINE"
);
},
{
closed = 1;
nodes = (
"483 742 LINE",
"666 913 LINE",
"534 913 LINE",
"436 813 LINE",
"382 913 LINE",
"262 913 LINE",
"371 742 LINE"
);
}
);
width = 706;
}
);
note = Dcaron;
rightKerningGroup = D;
unicode = 010E;
},
{
glyphname = Dcroat;
lastChange = "2015-10-28 10:23:48 +0000";
layers = (
{
layerId = "A85C0A33-2487-4E47-AED8-78B93E482A34";
name = "Regular Italic";
paths = (
{
closed = 1;
nodes = (
"272 0 LINE SMOOTH",
"508 0 OFFCURVE",
"674 115 OFFCURVE",
"720 353 CURVE SMOOTH",
"759 556 OFFCURVE",
"642 699 OFFCURVE",
"421 699 CURVE SMOOTH",
"187 699 LINE",
"123 397 LINE",
"64 397 LINE",
"43 301 LINE",
"102 301 LINE",
"39 0 LINE"
);
},
{
closed = 1;
nodes = (
"229 301 LINE",
"401 301 LINE",
"422 397 LINE",
"250 397 LINE",
"292 594 LINE",
"403 594 LINE SMOOTH",
"577 594 OFFCURVE",
"622 495 OFFCURVE",
"592 353 CURVE SMOOTH",
"559 199 OFFCURVE",
"459 105 OFFCURVE",
"286 105 CURVE SMOOTH",
"188 105 LINE"
);
}
);
width = 725;
}
);
note = Dcroat;
rightKerningGroup = D;
unicode = 0110;
},
{
glyphname = Ddotbelow;
lastChange = "2015-10-28 10:23:47 +0000";
layers = (
{
layerId = "A85C0A33-2487-4E47-AED8-78B93E482A34";
name = "Regular Italic";
paths = (
{
closed = 1;
nodes = (
"253 0 LINE SMOOTH",
"489 0 OFFCURVE",
"655 115 OFFCURVE",
"701 353 CURVE SMOOTH",
"740 556 OFFCURVE",
"623 699 OFFCURVE",
"402 699 CURVE SMOOTH",
"168 699 LINE",
"20 0 LINE"
);
},
{
closed = 1;
nodes = (
"235 -179 OFFCURVE",
"271 -150 OFFCURVE",
"278 -113 CURVE SMOOTH",
"286 -76 OFFCURVE",
"263 -46 OFFCURVE",
"228 -46 CURVE SMOOTH",
"192 -46 OFFCURVE",
"154 -76 OFFCURVE",
"146 -113 CURVE SMOOTH",
"139 -150 OFFCURVE",
"163 -179 OFFCURVE",
"199 -179 CURVE SMOOTH"
);
},
{
closed = 1;
nodes = (
"273 594 LINE",
"384 594 LINE SMOOTH",
"558 594 OFFCURVE",
"603 495 OFFCURVE",
"573 353 CURVE SMOOTH",
"540 199 OFFCURVE",
"440 105 OFFCURVE",
"267 105 CURVE SMOOTH",
"169 105 LINE"
);
}
);
width = 706;
}
);
note = Ddotbelow;
rightKerningGroup = D;
unicode = 1E0C;
},
{
glyphname = Dlinebelow;
lastChange = "2015-10-28 10:23:48 +0000";
layers = (
{
layerId = "A85C0A33-2487-4E47-AED8-78B93E482A34";
name = "Regular Italic";
paths = (
{
closed = 1;
nodes = (
"253 0 LINE SMOOTH",
"489 0 OFFCURVE",
"655 115 OFFCURVE",
"701 353 CURVE SMOOTH",
"740 556 OFFCURVE",
"623 699 OFFCURVE",
"402 699 CURVE SMOOTH",
"168 699 LINE",
"20 0 LINE"
);
},
{
closed = 1;
nodes = (
"383 -151 LINE",
"401 -68 LINE",
"79 -68 LINE",
"61 -151 LINE"
);
},
{
closed = 1;
nodes = (
"273 594 LINE",
"384 594 LINE SMOOTH",
"558 594 OFFCURVE",
"603 495 OFFCURVE",
"573 353 CURVE SMOOTH",
"540 199 OFFCURVE",
"440 105 OFFCURVE",
"267 105 CURVE SMOOTH",
"169 105 LINE"
);
}
);
width = 706;
}
);
note = Dlinebelow;
rightKerningGroup = D;
unicode = 1E0E;
},
{
glyphname = E;
lastChange = "2015-10-28 10:23:48 +0000";
layers = (
{
layerId = "A85C0A33-2487-4E47-AED8-78B93E482A34";
name = "Regular Italic";
paths = (
{
closed = 1;
nodes = (
"493 0 LINE",
"515 105 LINE",
"169 105 LINE",
"210 297 LINE",
"467 297 LINE",
"489 402 LINE",
"232 402 LINE",
"273 594 LINE",
"619 594 LINE",
"641 699 LINE",
"168 699 LINE",
"20 0 LINE"
);
}
);
width = 563;
}
);
leftKerningGroup = E;
note = E;
rightKerningGroup = E;
unicode = 0045;
},
{
glyphname = Eacute;
lastChange = "2015-10-28 10:23:48 +0000";
layers = (
{
layerId = "A85C0A33-2487-4E47-AED8-78B93E482A34";
name = "Regular Italic";
paths = (
{
closed = 1;
nodes = (
"493 0 LINE",
"515 105 LINE",
"169 105 LINE",
"210 297 LINE",
"467 297 LINE",
"489 402 LINE",
"232 402 LINE",
"273 594 LINE",
"619 594 LINE",
"641 699 LINE",
"168 699 LINE",
"20 0 LINE"
);
},
{
closed = 1;
nodes = (
"432 742 LINE",
"555 916 LINE",
"422 916 LINE",
"316 742 LINE"
);
}
);
width = 563;
}
);
leftKerningGroup = E;
note = Eacute;
rightKerningGroup = E;
unicode = 00C9;
},
{
glyphname = Ebreve;
lastChange = "2015-10-28 10:23:48 +0000";
layers = (
{
layerId = "A85C0A33-2487-4E47-AED8-78B93E482A34";
name = "Regular Italic";
paths = (
{
closed = 1;
nodes = (
"493 0 LINE",
"515 105 LINE",
"169 105 LINE",
"210 297 LINE",
"467 297 LINE",
"489 402 LINE",
"232 402 LINE",
"273 594 LINE",
"619 594 LINE",
"641 699 LINE",
"168 699 LINE",
"20 0 LINE"
);
},
{
closed = 1;
nodes = (
"508 742 OFFCURVE",
"581 803 OFFCURVE",
"600 893 CURVE",
"500 893 LINE",
"491 849 OFFCURVE",
"462 826 OFFCURVE",
"420 826 CURVE SMOOTH",
"378 826 OFFCURVE",
"359 849 OFFCURVE",
"368 893 CURVE",
"279 893 LINE",
"260 803 OFFCURVE",
"306 742 OFFCURVE",
"407 742 CURVE SMOOTH"
);
}
);
width = 573;
}
);
leftKerningGroup = E;
note = Ebreve;
rightKerningGroup = E;
unicode = 0114;
},
{
glyphname = Ecaron;
lastChange = "2015-10-28 10:23:47 +0000";
layers = (
{
layerId = "A85C0A33-2487-4E47-AED8-78B93E482A34";
name = "Regular Italic";
paths = (
{
closed = 1;
nodes = (
"493 0 LINE",
"515 105 LINE",
"169 105 LINE",
"210 297 LINE",
"467 297 LINE",
"489 402 LINE",
"232 402 LINE",
"273 594 LINE",
"619 594 LINE",
"641 699 LINE",
"168 699 LINE",
"20 0 LINE"
);
},
{
closed = 1;
nodes = (
"467 742 LINE",
"650 913 LINE",
"518 913 LINE",
"420 813 LINE",
"366 913 LINE",
"246 913 LINE",
"355 742 LINE"
);
}
);
width = 573;
}
);
leftKerningGroup = E;
note = Ecaron;
rightKerningGroup = E;
unicode = 011A;
},
{
glyphname = Ecircumflex;
lastChange = "2015-10-28 10:23:47 +0000";
layers = (
{
layerId = "A85C0A33-2487-4E47-AED8-78B93E482A34";
name = "Regular Italic";
paths = (
{
closed = 1;
nodes = (
"493 0 LINE",
"515 105 LINE",
"169 105 LINE",
"210 297 LINE",
"467 297 LINE",
"489 402 LINE",
"232 402 LINE",
"273 594 LINE",
"619 594 LINE",
"641 699 LINE",
"168 699 LINE",
"20 0 LINE"
);
},
{
closed = 1;
nodes = (
"307 742 LINE",
"404 841 LINE",
"459 742 LINE",
"580 742 LINE",
"471 913 LINE",
"359 913 LINE",
"176 742 LINE"
);
}
);
width = 573;
}
);
leftKerningGroup = E;
note = Ecircumflex;
rightKerningGroup = E;
unicode = 00CA;
},
{
glyphname = Ecircumflexacute;
lastChange = "2015-10-28 10:23:48 +0000";
layers = (
{
layerId = "A85C0A33-2487-4E47-AED8-78B93E482A34";
name = "Regular Italic";
paths = (
{
closed = 1;
nodes = (
"493 0 LINE",
"515 105 LINE",
"169 105 LINE",
"210 297 LINE",
"467 297 LINE",
"489 402 LINE",
"232 402 LINE",
"273 594 LINE",
"619 594 LINE",
"641 699 LINE",
"168 699 LINE",
"20 0 LINE"
);
},
{
closed = 1;
nodes = (
"324 742 LINE",
"414 826 LINE",
"468 742 LINE",
"586 742 LINE",
"481 894 LINE",
"375 894 LINE",
"204 742 LINE"
);
},
{
closed = 1;
nodes = (
"653 841 LINE",
"757 969 LINE",
"640 969 LINE",
"553 841 LINE"
);
}
);
width = 563;
}
);
leftKerningGroup = E;
note = Ecircumflexacute;
rightKerningGroup = E;
unicode = 1EBE;
},
{
glyphname = Ecircumflexdotbelow;
lastChange = "2015-10-28 10:23:47 +0000";
layers = (
{
layerId = "A85C0A33-2487-4E47-AED8-78B93E482A34";
name = "Regular Italic";
paths = (
{
closed = 1;
nodes = (
"495 0 LINE",
"517 105 LINE",
"171 105 LINE",
"212 297 LINE",
"469 297 LINE",
"491 402 LINE",
"234 402 LINE",
"275 594 LINE",
"621 594 LINE",
"643 699 LINE",
"170 699 LINE",
"22 0 LINE"
);
},
{
closed = 1;
nodes = (
"252 -179 OFFCURVE",
"288 -150 OFFCURVE",
"295 -113 CURVE SMOOTH",
"303 -76 OFFCURVE",
"280 -46 OFFCURVE",
"245 -46 CURVE SMOOTH",
"209 -46 OFFCURVE",
"171 -76 OFFCURVE",
"163 -113 CURVE SMOOTH",
"156 -150 OFFCURVE",
"180 -179 OFFCURVE",
"216 -179 CURVE SMOOTH"
);
},
{
closed = 1;
nodes = (
"318 742 LINE",
"415 841 LINE",
"470 742 LINE",
"591 742 LINE",
"482 913 LINE",
"370 913 LINE",
"187 742 LINE"
);
}
);
width = 575;
}
);
leftKerningGroup = E;
note = Ecircumflexdotbelow;
rightKerningGroup = E;
unicode = 1EC6;
},
{
glyphname = Ecircumflexgrave;
lastChange = "2015-10-28 10:23:48 +0000";
layers = (
{
layerId = "A85C0A33-2487-4E47-AED8-78B93E482A34";
name = "Regular Italic";
paths = (
{
closed = 1;
nodes = (
"493 0 LINE",
"515 105 LINE",
"169 105 LINE",
"210 297 LINE",
"467 297 LINE",
"489 402 LINE",
"232 402 LINE",
"273 594 LINE",
"619 594 LINE",
"641 699 LINE",
"168 699 LINE",
"20 0 LINE"
);
},
{
closed = 1;
nodes = (
"302 841 LINE",
"268 969 LINE",
"151 969 LINE",
"201 841 LINE"
);
},
{
closed = 1;
nodes = (
"345 742 LINE",
"435 826 LINE",
"488 742 LINE",
"608 742 LINE",
"501 894 LINE",
"396 894 LINE",
"226 742 LINE"
);
}
);
width = 563;
}
);
leftKerningGroup = E;
note = Ecircumflexgrave;
rightKerningGroup = E;
unicode = 1EC0;
},
{
glyphname = Ecircumflexhookabove;
lastChange = "2015-10-28 10:23:48 +0000";
layers = (
{
layerId = "A85C0A33-2487-4E47-AED8-78B93E482A34";
name = "Regular Italic";
paths = (
{
closed = 1;
nodes = (
"493 0 LINE",
"515 105 LINE",
"169 105 LINE",
"210 297 LINE",
"467 297 LINE",
"489 402 LINE",
"232 402 LINE",
"273 594 LINE",
"619 594 LINE",
"641 699 LINE",
"168 699 LINE",
"20 0 LINE"
);
},
{
closed = 1;
nodes = (
"343 742 LINE",
"433 826 LINE",
"487 742 LINE",
"605 742 LINE",
"500 894 LINE",
"394 894 LINE",
"223 742 LINE"
);
},
{
closed = 1;
nodes = (
"648 830 LINE",
"653 854 LINE",
"694 861 OFFCURVE",
"724 885 OFFCURVE",
"731 919 CURVE SMOOTH",
"740 961 OFFCURVE",
"709 989 OFFCURVE",
"649 989 CURVE SMOOTH",
"625 989 OFFCURVE",
"594 984 OFFCURVE",
"575 978 CURVE",
"565 929 LINE",
"576 934 OFFCURVE",
"593 937 OFFCURVE",
"607 937 CURVE SMOOTH",
"635 937 OFFCURVE",
"648 932 OFFCURVE",
"643 911 CURVE SMOOTH",
"638 887 OFFCURVE",
"617 880 OFFCURVE",
"580 880 CURVE",
"570 830 LINE"
);
}
);
width = 563;
}
);
leftKerningGroup = E;
note = Ecircumflexhookabove;
rightKerningGroup = E;
unicode = 1EC2;
},
{
glyphname = Ecircumflextilde;
lastChange = "2015-10-28 10:23:47 +0000";
layers = (
{
layerId = "A85C0A33-2487-4E47-AED8-78B93E482A34";
name = "Regular Italic";
paths = (
{
closed = 1;
nodes = (
"493 0 LINE",
"515 105 LINE",
"169 105 LINE",
"210 297 LINE",
"467 297 LINE",
"489 402 LINE",
"232 402 LINE",
"273 594 LINE",
"619 594 LINE",
"641 699 LINE",
"168 699 LINE",
"20 0 LINE"
);
},
{
closed = 1;
nodes = (
"346 742 LINE",
"436 826 LINE",
"490 742 LINE",
"608 742 LINE",
"503 894 LINE",
"397 894 LINE",
"226 742 LINE"
);
},
{
closed = 1;
nodes = (
"568 906 OFFCURVE",
"595 916 OFFCURVE",
"617 940 CURVE",
"636 1030 LINE",
"608 999 OFFCURVE",
"581 988 OFFCURVE",
"550 988 CURVE SMOOTH",
"502 988 OFFCURVE",
"456 1031 OFFCURVE",
"406 1031 CURVE SMOOTH",
"371 1031 OFFCURVE",
"342 1021 OFFCURVE",
"320 996 CURVE",
"301 907 LINE",
"331 938 OFFCURVE",
"357 949 OFFCURVE",
"388 949 CURVE SMOOTH",
"435 949 OFFCURVE",
"479 906 OFFCURVE",
"533 906 CURVE SMOOTH"
);
}
);
width = 573;
}
);
leftKerningGroup = E;
note = Ecircumflextilde;
rightKerningGroup = E;
unicode = 1EC4;
},
{
glyphname = Edieresis;
lastChange = "2015-10-28 10:23:47 +0000";
layers = (
{
layerId = "A85C0A33-2487-4E47-AED8-78B93E482A34";
name = "Regular Italic";
paths = (
{
closed = 1;
nodes = (
"493 0 LINE",
"515 105 LINE",
"169 105 LINE",
"210 297 LINE",
"467 297 LINE",
"489 402 LINE",
"232 402 LINE",
"273 594 LINE",
"619 594 LINE",
"641 699 LINE",
"168 699 LINE",
"20 0 LINE"
);
},
{
closed = 1;
nodes = (
"305 752 OFFCURVE",
"342 781 OFFCURVE",
"349 818 CURVE SMOOTH",
"357 855 OFFCURVE",
"334 885 OFFCURVE",
"298 885 CURVE SMOOTH",
"263 885 OFFCURVE",
"225 855 OFFCURVE",
"217 818 CURVE SMOOTH",
"210 781 OFFCURVE",
"234 752 OFFCURVE",
"269 752 CURVE SMOOTH"
);
},
{
closed = 1;
nodes = (
"542 752 OFFCURVE",
"579 781 OFFCURVE",
"586 818 CURVE SMOOTH",
"594 855 OFFCURVE",
"571 885 OFFCURVE",
"535 885 CURVE SMOOTH",
"499 885 OFFCURVE",
"461 855 OFFCURVE",
"453 818 CURVE SMOOTH",
"446 781 OFFCURVE",
"470 752 OFFCURVE",
"506 752 CURVE SMOOTH"
);
}
);
width = 573;
}
);
leftKerningGroup = E;
note = Edieresis;
rightKerningGroup = E;
unicode = 00CB;
},
{
glyphname = Edotaccent;
lastChange = "2015-10-28 10:23:48 +0000";
layers = (
{
layerId = "A85C0A33-2487-4E47-AED8-78B93E482A34";
name = "Regular Italic";
paths = (
{
closed = 1;
nodes = (
"493 0 LINE",
"515 105 LINE",
"169 105 LINE",
"210 297 LINE",
"467 297 LINE",
"489 402 LINE",
"232 402 LINE",
"273 594 LINE",
"619 594 LINE",
"641 699 LINE",
"168 699 LINE",
"20 0 LINE"
);
},
{
closed = 1;
nodes = (
"442 752 OFFCURVE",
"479 781 OFFCURVE",
"486 818 CURVE SMOOTH",
"494 855 OFFCURVE",
"471 885 OFFCURVE",
"435 885 CURVE SMOOTH",
"399 885 OFFCURVE",
"361 855 OFFCURVE",
"353 818 CURVE SMOOTH",
"346 781 OFFCURVE",
"370 752 OFFCURVE",
"406 752 CURVE SMOOTH"
);
}
);
width = 573;
}
);
leftKerningGroup = E;
note = Edotaccent;
rightKerningGroup = E;
unicode = 0116;
},
{
glyphname = Edotbelow;
lastChange = "2015-10-28 10:23:48 +0000";
layers = (
{
layerId = "A85C0A33-2487-4E47-AED8-78B93E482A34";
name = "Regular Italic";
paths = (
{
closed = 1;
nodes = (
"493 0 LINE",
"515 105 LINE",
"169 105 LINE",
"210 297 LINE",
"467 297 LINE",
"489 402 LINE",
"232 402 LINE",
"273 594 LINE",
"619 594 LINE",
"641 699 LINE",
"168 699 LINE",
"20 0 LINE"
);
},
{
closed = 1;
nodes = (
"251 -179 OFFCURVE",
"287 -150 OFFCURVE",
"294 -113 CURVE SMOOTH",
"302 -76 OFFCURVE",
"279 -46 OFFCURVE",
"244 -46 CURVE SMOOTH",
"208 -46 OFFCURVE",
"170 -76 OFFCURVE",
"162 -113 CURVE SMOOTH",
"155 -150 OFFCURVE",
"179 -179 OFFCURVE",
"215 -179 CURVE SMOOTH"
);
}
);
width = 573;
}
);
leftKerningGroup = E;
note = Edotbelow;
rightKerningGroup = E;
unicode = 1EB8;
},
{
glyphname = Egrave;
lastChange = "2015-10-28 10:23:47 +0000";
layers = (
{
layerId = "A85C0A33-2487-4E47-AED8-78B93E482A34";
name = "Regular Italic";
paths = (
{
closed = 1;
nodes = (
"493 0 LINE",
"515 105 LINE",
"169 105 LINE",
"210 297 LINE",
"467 297 LINE",
"489 402 LINE",
"232 402 LINE",
"273 594 LINE",
"619 594 LINE",
"641 699 LINE",
"168 699 LINE",
"20 0 LINE"
);
},
{
closed = 1;
nodes = (
"453 742 LINE",
"421 916 LINE",
"288 916 LINE",
"337 742 LINE"
);
}
);
width = 573;
}
);
leftKerningGroup = E;
note = Egrave;
rightKerningGroup = E;
unicode = 00C8;
},
{
glyphname = Ehookabove;
lastChange = "2015-10-28 10:23:48 +0000";
layers = (
{
layerId = "A85C0A33-2487-4E47-AED8-78B93E482A34";
name = "Regular Italic";
paths = (
{
closed = 1;
nodes = (
"493 0 LINE",
"515 105 LINE",
"169 105 LINE",
"210 297 LINE",
"467 297 LINE",
"489 402 LINE",
"232 402 LINE",
"273 594 LINE",
"619 594 LINE",
"641 699 LINE",
"168 699 LINE",
"20 0 LINE"
);
},
{
closed = 1;
nodes = (
"441 742 LINE",
"448 776 LINE",
"509 785 OFFCURVE",
"549 822 OFFCURVE",
"559 870 CURVE SMOOTH",
"572 929 OFFCURVE",
"534 970 OFFCURVE",
"440 970 CURVE SMOOTH",
"404 970 OFFCURVE",
"364 963 OFFCURVE",
"339 956 CURVE",
"325 890 LINE",
"340 896 OFFCURVE",
"378 902 OFFCURVE",
"394 902 CURVE SMOOTH",
"439 902 OFFCURVE",
"453 891 OFFCURVE",
"448 865 CURVE SMOOTH",
"440 827 OFFCURVE",
"403 816 OFFCURVE",
"347 816 CURVE",
"331 742 LINE"
);
}
);
width = 573;
}
);
leftKerningGroup = E;
note = Ehookabove;
rightKerningGroup = E;
unicode = 1EBA;
},
{
glyphname = Emacron;
lastChange = "2015-10-28 10:23:48 +0000";
layers = (
{
layerId = "A85C0A33-2487-4E47-AED8-78B93E482A34";
name = "Regular Italic";
paths = (
{
closed = 1;
nodes = (
"493 0 LINE",
"515 105 LINE",
"169 105 LINE",
"210 297 LINE",
"467 297 LINE",
"489 402 LINE",
"232 402 LINE",
"273 594 LINE",
"619 594 LINE",
"641 699 LINE",
"168 699 LINE",
"20 0 LINE"
);
},
{
closed = 1;
nodes = (
"564 752 LINE",
"582 836 LINE",
"260 836 LINE",
"242 752 LINE"
);
}
);
width = 573;
}
);
leftKerningGroup = E;
note = Emacron;
rightKerningGroup = E;
unicode = 0112;
},
{
glyphname = Eogonek;
lastChange = "2015-10-28 10:23:48 +0000";
layers = (
{
layerId = "A85C0A33-2487-4E47-AED8-78B93E482A34";
name = "Regular Italic";
paths = (
{
closed = 1;
nodes = (
"403 -213 OFFCURVE",
"437 -208 OFFCURVE",
"460 -200 CURVE",
"475 -128 LINE",
"460 -135 OFFCURVE",
"442 -139 OFFCURVE",
"425 -139 CURVE SMOOTH",
"401 -139 OFFCURVE",
"388 -125 OFFCURVE",
"393 -99 CURVE SMOOTH",
"401 -61 OFFCURVE",
"434 -31 OFFCURVE",
"493 0 CURVE",
"515 105 LINE",
"169 105 LINE",
"210 297 LINE",
"467 297 LINE",
"489 402 LINE",
"232 402 LINE",
"273 594 LINE",
"619 594 LINE",
"641 699 LINE",
"168 699 LINE",
"20 0 LINE",
"377 0 LINE",
"330 -26 OFFCURVE",
"290 -68 OFFCURVE",
"279 -121 CURVE SMOOTH",
"265 -184 OFFCURVE",
"308 -213 OFFCURVE",
"371 -213 CURVE SMOOTH"
);
}
);
width = 573;
}
);
leftKerningGroup = E;
note = Eogonek;
rightKerningGroup = E;
unicode = 0118;
},
{
glyphname = Etilde;
lastChange = "2015-10-28 10:23:48 +0000";
layers = (
{
layerId = "A85C0A33-2487-4E47-AED8-78B93E482A34";
name = "Regular Italic";
paths = (
{
closed = 1;
nodes = (
"493 0 LINE",
"515 105 LINE",
"169 105 LINE",
"210 297 LINE",
"467 297 LINE",
"489 402 LINE",
"232 402 LINE",
"273 594 LINE",
"619 594 LINE",
"641 699 LINE",
"168 699 LINE",
"20 0 LINE"
);
},
{
closed = 1;
nodes = (
"236 781 OFFCURVE",
"271 794 OFFCURVE",
"308 794 CURVE SMOOTH",
"372 794 OFFCURVE",
"414 744 OFFCURVE",
"487 744 CURVE SMOOTH",
"529 744 OFFCURVE",
"566 755 OFFCURVE",
"595 786 CURVE",
"617 889 LINE",
"581 851 OFFCURVE",
"545 838 OFFCURVE",
"507 838 CURVE SMOOTH",
"442 838 OFFCURVE",
"396 888 OFFCURVE",
"328 888 CURVE SMOOTH",
"287 888 OFFCURVE",
"249 876 OFFCURVE",
"219 845 CURVE",
"197 742 LINE"
);
}
);
width = 573;
}
);
leftKerningGroup = E;
note = Etilde;
rightKerningGroup = E;
unicode = 1EBC;
},
{
glyphname = F;
lastChange = "2015-10-28 10:23:48 +0000";
layers = (
{
layerId = "A85C0A33-2487-4E47-AED8-78B93E482A34";
name = "Regular Italic";
paths = (
{
closed = 1;
nodes = (
"147 0 LINE",
"211 302 LINE",
"468 302 LINE",
"488 397 LINE",
"231 397 LINE",
"273 593 LINE",
"619 593 LINE",
"641 699 LINE",
"168 699 LINE",
"20 0 LINE"
);
}
);
width = 553;
}
);
note = F;
unicode = 0046;
},
{
glyphname = G;
lastChange = "2015-10-28 10:23:47 +0000";
layers = (
{
layerId = "A85C0A33-2487-4E47-AED8-78B93E482A34";
name = "Regular Italic";
paths = (
{
closed = 1;
nodes = (
"477 -15 OFFCURVE",
"565 8 OFFCURVE",
"645 57 CURVE",
"714 383 LINE",
"469 383 LINE",
"447 282 LINE",
"565 282 LINE",
"532 125 LINE",
"495 108 OFFCURVE",
"449 99 OFFCURVE",
"400 99 CURVE SMOOTH",
"226 99 OFFCURVE",
"169 195 OFFCURVE",
"202 349 CURVE SMOOTH",
"234 502 OFFCURVE",
"355 598 OFFCURVE",
"512 598 CURVE SMOOTH",
"612 598 OFFCURVE",
"676 575 OFFCURVE",
"726 526 CURVE",
"752 647 LINE",
"698 690 OFFCURVE",
"624 714 OFFCURVE",
"525 714 CURVE SMOOTH",
"307 714 OFFCURVE",
"123 577 OFFCURVE",
"74 349 CURVE SMOOTH",
"26 126 OFFCURVE",
"160 -15 OFFCURVE",
"370 -15 CURVE SMOOTH"
);
}
);
width = 713;
}
);
leftKerningGroup = C;
note = G;
unicode = 0047;
},
{
glyphname = Gbreve;
lastChange = "2015-10-28 10:23:48 +0000";
layers = (
{
layerId = "A85C0A33-2487-4E47-AED8-78B93E482A34";
name = "Regular Italic";
paths = (
{
closed = 1;
nodes = (
"477 -15 OFFCURVE",
"565 8 OFFCURVE",
"645 57 CURVE",
"714 383 LINE",
"469 383 LINE",
"447 282 LINE",
"565 282 LINE",
"532 125 LINE",
"495 108 OFFCURVE",
"449 99 OFFCURVE",
"400 99 CURVE SMOOTH",
"226 99 OFFCURVE",
"169 195 OFFCURVE",
"202 349 CURVE SMOOTH",
"234 502 OFFCURVE",
"355 598 OFFCURVE",
"512 598 CURVE SMOOTH",
"612 598 OFFCURVE",
"676 575 OFFCURVE",
"726 526 CURVE",
"752 647 LINE",
"698 690 OFFCURVE",
"624 714 OFFCURVE",
"525 714 CURVE SMOOTH",
"307 714 OFFCURVE",
"123 577 OFFCURVE",
"74 349 CURVE SMOOTH",
"26 126 OFFCURVE",
"160 -15 OFFCURVE",
"370 -15 CURVE SMOOTH"
);
},
{
closed = 1;
nodes = (
"616 742 OFFCURVE",
"689 803 OFFCURVE",
"708 893 CURVE",
"608 893 LINE",
"599 849 OFFCURVE",
"570 826 OFFCURVE",
"528 826 CURVE SMOOTH",
"486 826 OFFCURVE",
"467 849 OFFCURVE",
"476 893 CURVE",
"387 893 LINE",
"368 803 OFFCURVE",
"414 742 OFFCURVE",
"515 742 CURVE SMOOTH"
);
}
);
width = 713;
}
);
leftKerningGroup = C;
note = Gbreve;
unicode = 011E;
},
{
glyphname = Gcaron;
lastChange = "2015-10-28 10:23:47 +0000";
layers = (
{
layerId = "A85C0A33-2487-4E47-AED8-78B93E482A34";
name = "Regular Italic";
paths = (
{
closed = 1;
nodes = (
"477 -15 OFFCURVE",
"565 8 OFFCURVE",
"645 57 CURVE",
"714 383 LINE",
"469 383 LINE",
"447 282 LINE",
"565 282 LINE",
"532 125 LINE",
"495 108 OFFCURVE",
"449 99 OFFCURVE",
"400 99 CURVE SMOOTH",
"226 99 OFFCURVE",
"169 195 OFFCURVE",
"202 349 CURVE SMOOTH",
"234 502 OFFCURVE",
"355 598 OFFCURVE",
"512 598 CURVE SMOOTH",
"612 598 OFFCURVE",
"676 575 OFFCURVE",
"726 526 CURVE",
"752 647 LINE",
"698 690 OFFCURVE",
"624 714 OFFCURVE",
"525 714 CURVE SMOOTH",
"307 714 OFFCURVE",
"123 577 OFFCURVE",
"74 349 CURVE SMOOTH",
"26 126 OFFCURVE",
"160 -15 OFFCURVE",
"370 -15 CURVE SMOOTH"
);
},
{
closed = 1;
nodes = (
"551 742 LINE",
"734 913 LINE",
"602 913 LINE",
"504 813 LINE",
"450 913 LINE",
"330 913 LINE",
"439 742 LINE"
);
}
);
width = 713;
}
);
leftKerningGroup = C;
note = Gcaron;
unicode = 01E6;
},
{
glyphname = Gcircumflex;
lastChange = "2015-10-28 10:23:48 +0000";
layers = (
{
layerId = "A85C0A33-2487-4E47-AED8-78B93E482A34";
name = "Regular Italic";
paths = (
{
closed = 1;
nodes = (
"477 -15 OFFCURVE",
"565 8 OFFCURVE",
"645 57 CURVE",
"714 383 LINE",
"469 383 LINE",
"447 282 LINE",
"565 282 LINE",
"532 125 LINE",
"495 108 OFFCURVE",
"449 99 OFFCURVE",
"400 99 CURVE SMOOTH",
"226 99 OFFCURVE",
"169 195 OFFCURVE",
"202 349 CURVE SMOOTH",
"234 502 OFFCURVE",
"355 598 OFFCURVE",
"512 598 CURVE SMOOTH",
"612 598 OFFCURVE",
"676 575 OFFCURVE",
"726 526 CURVE",
"752 647 LINE",
"698 690 OFFCURVE",
"624 714 OFFCURVE",
"525 714 CURVE SMOOTH",
"307 714 OFFCURVE",
"123 577 OFFCURVE",
"74 349 CURVE SMOOTH",
"26 126 OFFCURVE",
"160 -15 OFFCURVE",
"370 -15 CURVE SMOOTH"
);
},
{
closed = 1;
nodes = (
"435 742 LINE",
"532 841 LINE",
"587 742 LINE",
"708 742 LINE",
"599 913 LINE",
"487 913 LINE",
"304 742 LINE"
);
}
);
width = 713;
}
);
leftKerningGroup = C;
note = Gcircumflex;
unicode = 011C;
},
{
glyphname = Gcommaaccent;
lastChange = "2015-10-28 10:23:47 +0000";
layers = (
{
layerId = "A85C0A33-2487-4E47-AED8-78B93E482A34";
name = "Regular Italic";
paths = (
{
closed = 1;
nodes = (
"477 -15 OFFCURVE",
"565 8 OFFCURVE",
"645 57 CURVE",
"714 383 LINE",
"469 383 LINE",
"447 282 LINE",
"565 282 LINE",
"532 125 LINE",
"495 108 OFFCURVE",
"449 99 OFFCURVE",
"400 99 CURVE SMOOTH",
"226 99 OFFCURVE",
"169 195 OFFCURVE",
"202 349 CURVE SMOOTH",
"234 502 OFFCURVE",
"355 598 OFFCURVE",
"512 598 CURVE SMOOTH",
"612 598 OFFCURVE",
"676 575 OFFCURVE",
"726 526 CURVE",
"752 647 LINE",
"698 690 OFFCURVE",
"624 714 OFFCURVE",
"525 714 CURVE SMOOTH",
"307 714 OFFCURVE",
"123 577 OFFCURVE",
"74 349 CURVE SMOOTH",
"26 126 OFFCURVE",
"160 -15 OFFCURVE",
"370 -15 CURVE SMOOTH"
);
},
{
closed = 1;
nodes = (
"306 -259 LINE",
"448 -56 LINE",
"317 -56 LINE",
"192 -259 LINE"
);
}
);
width = 713;
}
);
leftKerningGroup = C;
note = Gcommaaccent;
unicode = 0122;
},
{
glyphname = Gdotaccent;
lastChange = "2015-10-28 10:23:47 +0000";
layers = (
{
layerId = "A85C0A33-2487-4E47-AED8-78B93E482A34";
name = "Regular Italic";
paths = (
{
closed = 1;
nodes = (
"477 -15 OFFCURVE",
"565 8 OFFCURVE",
"645 57 CURVE",
"714 383 LINE",
"469 383 LINE",
"447 282 LINE",
"565 282 LINE",
"532 125 LINE",
"495 108 OFFCURVE",
"449 99 OFFCURVE",
"400 99 CURVE SMOOTH",
"226 99 OFFCURVE",
"169 195 OFFCURVE",
"202 349 CURVE SMOOTH",
"234 502 OFFCURVE",
"355 598 OFFCURVE",
"512 598 CURVE SMOOTH",
"612 598 OFFCURVE",
"676 575 OFFCURVE",
"726 526 CURVE",
"752 647 LINE",
"698 690 OFFCURVE",
"624 714 OFFCURVE",
"525 714 CURVE SMOOTH",
"307 714 OFFCURVE",
"123 577 OFFCURVE",
"74 349 CURVE SMOOTH",
"26 126 OFFCURVE",
"160 -15 OFFCURVE",
"370 -15 CURVE SMOOTH"
);
},
{
closed = 1;
nodes = (
"549 752 OFFCURVE",
"586 781 OFFCURVE",
"593 818 CURVE SMOOTH",
"601 855 OFFCURVE",
"578 885 OFFCURVE",
"542 885 CURVE SMOOTH",
"506 885 OFFCURVE",
"468 855 OFFCURVE",
"460 818 CURVE SMOOTH",
"453 781 OFFCURVE",
"477 752 OFFCURVE",
"513 752 CURVE SMOOTH"
);
}
);
width = 713;
}
);
leftKerningGroup = C;
note = Gdotaccent;
unicode = 0120;
},
{
glyphname = Gmacron;
lastChange = "2015-10-28 10:23:48 +0000";
layers = (
{
layerId = "A85C0A33-2487-4E47-AED8-78B93E482A34";
name = "Regular Italic";
paths = (
{
closed = 1;
nodes = (
"477 -15 OFFCURVE",
"565 8 OFFCURVE",
"645 57 CURVE",
"714 383 LINE",
"469 383 LINE",
"447 282 LINE",
"565 282 LINE",
"532 125 LINE",
"495 108 OFFCURVE",
"449 99 OFFCURVE",
"400 99 CURVE SMOOTH",
"226 99 OFFCURVE",
"169 195 OFFCURVE",
"202 349 CURVE SMOOTH",
"234 502 OFFCURVE",
"355 598 OFFCURVE",
"512 598 CURVE SMOOTH",
"612 598 OFFCURVE",
"676 575 OFFCURVE",
"726 526 CURVE",
"752 647 LINE",
"698 690 OFFCURVE",
"624 714 OFFCURVE",
"525 714 CURVE SMOOTH",
"307 714 OFFCURVE",
"123 577 OFFCURVE",
"74 349 CURVE SMOOTH",
"26 126 OFFCURVE",
"160 -15 OFFCURVE",
"370 -15 CURVE SMOOTH"
);
},
{
closed = 1;
nodes = (
"673 752 LINE",
"691 836 LINE",
"369 836 LINE",
"351 752 LINE"
);
}
);
width = 713;
}
);
leftKerningGroup = C;
note = Gmacron;
unicode = 1E20;
},
{
glyphname = H;
lastChange = "2015-10-28 10:23:48 +0000";
layers = (
{
layerId = "A85C0A33-2487-4E47-AED8-78B93E482A34";
name = "Regular Italic";
paths = (
{
closed = 1;
nodes = (
"147 0 LINE",
"211 304 LINE",
"547 304 LINE",
"483 0 LINE",
"609 0 LINE",
"757 699 LINE",
"631 699 LINE",
"569 409 LINE",
"233 409 LINE",
"295 699 LINE",
"168 699 LINE",
"20 0 LINE"
);
}
);
width = 709;
}
);
note = H;
unicode = 0048;
},
{
glyphname = Hbar;
lastChange = "2015-10-28 10:23:48 +0000";
layers = (
{
layerId = "A85C0A33-2487-4E47-AED8-78B93E482A34";
name = "Regular Italic";
paths = (
{
closed = 1;
nodes = (
"152 0 LINE",
"216 304 LINE",
"552 304 LINE",
"488 0 LINE",
"614 0 LINE",
"719 499 LINE",
"767 499 LINE",
"789 604 LINE",
"742 604 LINE",
"762 699 LINE",
"636 699 LINE",
"615 604 LINE",
"279 604 LINE",
"300 699 LINE",
"173 699 LINE",
"153 604 LINE",
"103 604 LINE",
"81 499 LINE",
"130 499 LINE",
"25 0 LINE"
);
},
{
closed = 1;
nodes = (
"257 499 LINE",
"593 499 LINE",
"574 409 LINE",
"238 409 LINE"
);
}
);
width = 726;
}
);
note = Hbar;
unicode = 0126;
},
{
glyphname = Hbrevebelow;
lastChange = "2015-10-28 10:23:48 +0000";
layers = (
{
layerId = "A85C0A33-2487-4E47-AED8-78B93E482A34";
name = "Regular Italic";
paths = (
{
closed = 1;
nodes = (
"147 0 LINE",
"211 304 LINE",
"547 304 LINE",
"483 0 LINE",
"609 0 LINE",
"757 699 LINE",
"631 699 LINE",
"569 409 LINE",
"233 409 LINE",
"295 699 LINE",
"168 699 LINE",
"20 0 LINE"
);
},
{
closed = 1;
nodes = (
"370 -210 OFFCURVE",
"443 -149 OFFCURVE",
"462 -59 CURVE",
"362 -59 LINE",
"353 -103 OFFCURVE",
"324 -126 OFFCURVE",
"283 -126 CURVE SMOOTH",
"241 -126 OFFCURVE",
"222 -103 OFFCURVE",
"231 -59 CURVE",
"141 -59 LINE",
"122 -149 OFFCURVE",
"169 -210 OFFCURVE",
"270 -210 CURVE SMOOTH"
);
}
);
width = 709;
}
);
note = Hbrevebelow;
unicode = 1E2A;
},
{
glyphname = Hcircumflex;
lastChange = "2015-10-28 10:23:47 +0000";
layers = (
{
layerId = "A85C0A33-2487-4E47-AED8-78B93E482A34";
name = "Regular Italic";
paths = (
{
closed = 1;
nodes = (
"147 0 LINE",
"211 304 LINE",
"547 304 LINE",
"483 0 LINE",
"609 0 LINE",
"757 699 LINE",
"631 699 LINE",
"569 409 LINE",
"233 409 LINE",
"295 699 LINE",
"168 699 LINE",
"20 0 LINE"
);
},
{
closed = 1;
nodes = (
"380 742 LINE",
"477 841 LINE",
"532 742 LINE",
"653 742 LINE",
"544 913 LINE",
"432 913 LINE",
"249 742 LINE"
);
}
);
width = 709;
}
);
note = Hcircumflex;
unicode = 0124;
},
{
glyphname = Hdotbelow;
lastChange = "2015-10-28 10:23:47 +0000";
layers = (
{
layerId = "A85C0A33-2487-4E47-AED8-78B93E482A34";
name = "Regular Italic";
paths = (
{
closed = 1;
nodes = (
"147 0 LINE",
"211 304 LINE",
"547 304 LINE",
"483 0 LINE",
"609 0 LINE",
"757 699 LINE",
"631 699 LINE",
"569 409 LINE",
"233 409 LINE",
"295 699 LINE",
"168 699 LINE",
"20 0 LINE"
);
},
{
closed = 1;
nodes = (
"313 -179 OFFCURVE",
"349 -150 OFFCURVE",
"356 -113 CURVE SMOOTH",
"364 -76 OFFCURVE",
"341 -46 OFFCURVE",
"306 -46 CURVE SMOOTH",
"270 -46 OFFCURVE",
"232 -76 OFFCURVE",
"224 -113 CURVE SMOOTH",
"217 -150 OFFCURVE",
"241 -179 OFFCURVE",
"277 -179 CURVE SMOOTH"
);
}
);
width = 709;
}
);
note = Hdotbelow;
unicode = 1E24;
},
{
glyphname = I;
lastChange = "2015-10-28 10:23:47 +0000";
layers = (
{
layerId = "A85C0A33-2487-4E47-AED8-78B93E482A34";
name = "Regular Italic";
paths = (
{
closed = 1;
nodes = (
"147 0 LINE",
"295 699 LINE",
"168 699 LINE",
"20 0 LINE"
);
}
);
width = 247;
}
);
note = I;
unicode = 0049;
},
{
glyphname = IJ;
lastChange = "2015-10-28 10:23:47 +0000";
layers = (
{
layerId = "A85C0A33-2487-4E47-AED8-78B93E482A34";
name = "Regular Italic";
paths = (
{
closed = 1;
nodes = (
"473 -15 OFFCURVE",
"546 54 OFFCURVE",
"573 182 CURVE SMOOTH",
"683 699 LINE",
"556 699 LINE",
"448 189 LINE SMOOTH",
"433 120 OFFCURVE",
"399 96 OFFCURVE",
"330 96 CURVE SMOOTH",
"302 96 OFFCURVE",
"271 101 OFFCURVE",
"252 110 CURVE",
"229 4 LINE",
"250 -7 OFFCURVE",
"298 -15 OFFCURVE",
"337 -15 CURVE SMOOTH"
);
},
{
closed = 1;
nodes = (
"150 0 LINE",
"298 699 LINE",
"171 699 LINE",
"23 0 LINE"
);
}
);
width = 633;
}
);
note = IJ;
rightKerningGroup = J;
unicode = 0132;
},
{
glyphname = Iacute;
lastChange = "2015-10-28 10:23:47 +0000";
layers = (
{
layerId = "A85C0A33-2487-4E47-AED8-78B93E482A34";
name = "Regular Italic";
paths = (
{
closed = 1;
nodes = (
"150 0 LINE",
"298 699 LINE",
"171 699 LINE",
"23 0 LINE"
);
},
{
closed = 1;
nodes = (
"283 742 LINE",
"406 916 LINE",
"273 916 LINE",
"167 742 LINE"
);
}
);
width = 253;
}
);
note = Iacute;
unicode = 00CD;
},
{
glyphname = Ibreve;
lastChange = "2015-10-28 10:23:48 +0000";
layers = (
{
layerId = "A85C0A33-2487-4E47-AED8-78B93E482A34";
name = "Regular Italic";
paths = (
{
closed = 1;
nodes = (
"150 0 LINE",
"298 699 LINE",
"171 699 LINE",
"23 0 LINE"
);
},
{
closed = 1;
nodes = (
"324 742 OFFCURVE",
"397 803 OFFCURVE",
"416 893 CURVE",
"316 893 LINE",
"307 849 OFFCURVE",
"278 826 OFFCURVE",
"236 826 CURVE SMOOTH",
"194 826 OFFCURVE",
"175 849 OFFCURVE",
"184 893 CURVE",
"95 893 LINE",
"76 803 OFFCURVE",
"122 742 OFFCURVE",
"223 742 CURVE SMOOTH"
);
}
);
width = 253;
}
);
note = Ibreve;
unicode = 012C;
},
{
glyphname = Icaron;
lastChange = "2015-10-28 10:23:47 +0000";
layers = (
{
layerId = "A85C0A33-2487-4E47-AED8-78B93E482A34";
name = "Regular Italic";
paths = (
{
closed = 1;
nodes = (
"147 0 LINE",
"295 699 LINE",
"168 699 LINE",
"20 0 LINE"
);
},
{
closed = 1;
nodes = (
"282 764 LINE",
"465 935 LINE",
"333 935 LINE",
"235 835 LINE",
"181 935 LINE",
"61 935 LINE",
"170 764 LINE"
);
}
);
width = 247;
}
);
note = Icaron;
unicode = 01CF;
},
{
glyphname = Icircumflex;
lastChange = "2015-10-28 10:23:47 +0000";
layers = (
{
layerId = "A85C0A33-2487-4E47-AED8-78B93E482A34";
name = "Regular Italic";
paths = (
{
closed = 1;
nodes = (
"150 0 LINE",
"298 699 LINE",
"171 699 LINE",
"23 0 LINE"
);
},
{
closed = 1;
nodes = (
"152 742 LINE",
"249 841 LINE",
"304 742 LINE",
"425 742 LINE",
"316 913 LINE",
"204 913 LINE",
"21 742 LINE"
);
}
);
width = 253;
}
);
note = Icircumflex;
unicode = 00CE;
},
{
glyphname = Idieresis;
lastChange = "2015-10-28 10:23:47 +0000";
layers = (
{
layerId = "A85C0A33-2487-4E47-AED8-78B93E482A34";
name = "Regular Italic";
paths = (
{
closed = 1;
nodes = (
"150 0 LINE",
"298 699 LINE",
"171 699 LINE",
"23 0 LINE"
);
},
{
closed = 1;
nodes = (
"142 752 OFFCURVE",
"179 781 OFFCURVE",
"186 818 CURVE SMOOTH",
"194 855 OFFCURVE",
"171 885 OFFCURVE",
"135 885 CURVE SMOOTH",
"100 885 OFFCURVE",
"62 855 OFFCURVE",
"54 818 CURVE SMOOTH",
"47 781 OFFCURVE",
"71 752 OFFCURVE",
"106 752 CURVE SMOOTH"
);
},
{
closed = 1;
nodes = (
"379 752 OFFCURVE",
"416 781 OFFCURVE",
"423 818 CURVE SMOOTH",
"431 855 OFFCURVE",
"408 885 OFFCURVE",
"372 885 CURVE SMOOTH",
"336 885 OFFCURVE",
"298 855 OFFCURVE",
"290 818 CURVE SMOOTH",
"283 781 OFFCURVE",
"307 752 OFFCURVE",
"343 752 CURVE SMOOTH"
);
}
);
width = 253;
}
);
note = Idieresis;
unicode = 00CF;
},
{
glyphname = Idotaccent;
lastChange = "2015-10-28 10:23:48 +0000";
layers = (
{
layerId = "A85C0A33-2487-4E47-AED8-78B93E482A34";
name = "Regular Italic";
paths = (
{
closed = 1;
nodes = (
"150 0 LINE",
"298 699 LINE",
"171 699 LINE",
"23 0 LINE"
);
},
{
closed = 1;
nodes = (
"261 752 OFFCURVE",
"298 781 OFFCURVE",
"305 818 CURVE SMOOTH",
"313 855 OFFCURVE",
"290 885 OFFCURVE",
"254 885 CURVE SMOOTH",
"218 885 OFFCURVE",
"180 855 OFFCURVE",
"172 818 CURVE SMOOTH",
"165 781 OFFCURVE",
"189 752 OFFCURVE",
"225 752 CURVE SMOOTH"
);
}
);
width = 253;
}
);
note = Idotaccent;
unicode = 0130;
},
{
glyphname = Idotbelow;
lastChange = "2015-10-28 10:23:48 +0000";
layers = (
{
layerId = "A85C0A33-2487-4E47-AED8-78B93E482A34";
name = "Regular Italic";
paths = (
{
closed = 1;
nodes = (
"150 0 LINE",
"298 699 LINE",
"171 699 LINE",
"23 0 LINE"
);
},
{
closed = 1;
nodes = (
"85 -179 OFFCURVE",
"121 -150 OFFCURVE",
"128 -113 CURVE SMOOTH",
"136 -76 OFFCURVE",
"113 -46 OFFCURVE",
"78 -46 CURVE SMOOTH",
"42 -46 OFFCURVE",
"4 -76 OFFCURVE",
"-4 -113 CURVE SMOOTH",
"-11 -150 OFFCURVE",
"13 -179 OFFCURVE",
"49 -179 CURVE SMOOTH"
);
}
);
width = 253;
}
);
note = Idotbelow;
unicode = 1ECA;
},
{
glyphname = Igrave;
lastChange = "2015-10-28 10:23:47 +0000";
layers = (
{
layerId = "A85C0A33-2487-4E47-AED8-78B93E482A34";
name = "Regular Italic";
paths = (
{
closed = 1;
nodes = (
"150 0 LINE",
"298 699 LINE",
"171 699 LINE",
"23 0 LINE"
);
},
{
closed = 1;
nodes = (
"281 742 LINE",
"249 916 LINE",
"116 916 LINE",
"165 742 LINE"
);
}
);
width = 253;
}
);
note = Igrave;
unicode = 00CC;
},
{
glyphname = Ihookabove;
lastChange = "2015-10-28 10:23:47 +0000";
layers = (
{
layerId = "A85C0A33-2487-4E47-AED8-78B93E482A34";
name = "Regular Italic";
paths = (
{
closed = 1;
nodes = (
"150 0 LINE",
"298 699 LINE",
"171 699 LINE",
"23 0 LINE"
);
},
{
closed = 1;
nodes = (
"278 742 LINE",
"285 776 LINE",
"346 785 OFFCURVE",
"386 822 OFFCURVE",
"396 870 CURVE SMOOTH",
"409 929 OFFCURVE",
"371 970 OFFCURVE",
"277 970 CURVE SMOOTH",
"241 970 OFFCURVE",
"201 963 OFFCURVE",
"176 956 CURVE",
"162 890 LINE",
"177 896 OFFCURVE",
"215 902 OFFCURVE",
"231 902 CURVE SMOOTH",
"276 902 OFFCURVE",
"290 891 OFFCURVE",
"285 865 CURVE SMOOTH",
"277 827 OFFCURVE",
"240 816 OFFCURVE",
"184 816 CURVE",
"168 742 LINE"
);
}
);
width = 253;
}
);
note = Ihookabove;
unicode = 1EC8;
},
{
glyphname = Imacron;
lastChange = "2015-10-28 10:23:47 +0000";
layers = (
{
layerId = "A85C0A33-2487-4E47-AED8-78B93E482A34";
name = "Regular Italic";
paths = (
{
closed = 1;
nodes = (
"150 0 LINE",
"298 699 LINE",
"171 699 LINE",
"23 0 LINE"
);
},
{
closed = 1;
nodes = (
"412 752 LINE",
"430 836 LINE",
"98 836 LINE",
"80 752 LINE"
);
}
);
width = 253;
}
);
note = Imacron;
unicode = 012A;
},
{
glyphname = Iogonek;
lastChange = "2015-10-28 10:23:47 +0000";
layers = (
{
layerId = "A85C0A33-2487-4E47-AED8-78B93E482A34";
name = "Regular Italic";
paths = (
{
closed = 1;
nodes = (
"56 -213 OFFCURVE",
"90 -208 OFFCURVE",
"113 -200 CURVE",
"128 -128 LINE",
"113 -135 OFFCURVE",
"95 -139 OFFCURVE",
"78 -139 CURVE SMOOTH",
"54 -139 OFFCURVE",
"41 -125 OFFCURVE",
"46 -99 CURVE SMOOTH",
"54 -61 OFFCURVE",
"87 -31 OFFCURVE",
"150 0 CURVE",
"298 699 LINE",
"171 699 LINE",
"23 0 LINE",
"-17 -26 OFFCURVE",
"-57 -68 OFFCURVE",
"-68 -121 CURVE SMOOTH",
"-82 -184 OFFCURVE",
"-39 -213 OFFCURVE",
"24 -213 CURVE SMOOTH"
);
}
);
width = 253;
}
);
note = Iogonek;
unicode = 012E;
},
{
glyphname = Itilde;
lastChange = "2015-10-28 10:23:47 +0000";
layers = (
{
layerId = "A85C0A33-2487-4E47-AED8-78B93E482A34";
name = "Regular Italic";
paths = (
{
closed = 1;
nodes = (
"150 0 LINE",
"298 699 LINE",
"171 699 LINE",
"23 0 LINE"
);
},
{
closed = 1;
nodes = (
"68 781 OFFCURVE",
"103 794 OFFCURVE",
"140 794 CURVE SMOOTH",
"204 794 OFFCURVE",
"246 744 OFFCURVE",
"319 744 CURVE SMOOTH",
"361 744 OFFCURVE",
"398 755 OFFCURVE",
"427 786 CURVE",
"449 889 LINE",
"413 851 OFFCURVE",
"377 838 OFFCURVE",
"339 838 CURVE SMOOTH",
"274 838 OFFCURVE",
"228 888 OFFCURVE",
"160 888 CURVE SMOOTH",
"119 888 OFFCURVE",
"81 876 OFFCURVE",
"51 845 CURVE",
"29 742 LINE"
);
}
);
width = 253;
}
);
note = Itilde;
unicode = 0128;
},
{
glyphname = J;
lastChange = "2015-10-28 10:23:47 +0000";
layers = (
{
layerId = "A85C0A33-2487-4E47-AED8-78B93E482A34";
name = "Regular Italic";
paths = (
{
closed = 1;
nodes = (
"224 -15 OFFCURVE",
"297 54 OFFCURVE",
"324 182 CURVE SMOOTH",
"434 699 LINE",
"307 699 LINE",
"199 189 LINE SMOOTH",
"184 120 OFFCURVE",
"150 96 OFFCURVE",
"81 96 CURVE SMOOTH",
"53 96 OFFCURVE",
"22 101 OFFCURVE",
"3 110 CURVE",
"-20 4 LINE",
"1 -7 OFFCURVE",
"49 -15 OFFCURVE",
"88 -15 CURVE SMOOTH"
);
}
);
width = 386;
}
);
note = J;
rightKerningGroup = J;
unicode = 004A;
},
{
glyphname = Jcircumflex;
lastChange = "2015-10-28 10:23:48 +0000";
layers = (
{
layerId = "A85C0A33-2487-4E47-AED8-78B93E482A34";
name = "Regular Italic";
paths = (
{
closed = 1;
nodes = (
"224 -15 OFFCURVE",
"297 54 OFFCURVE",
"324 182 CURVE SMOOTH",
"434 699 LINE",
"307 699 LINE",
"199 189 LINE SMOOTH",
"184 120 OFFCURVE",
"150 96 OFFCURVE",
"81 96 CURVE SMOOTH",
"53 96 OFFCURVE",
"22 101 OFFCURVE",
"3 110 CURVE",
"-20 4 LINE",
"1 -7 OFFCURVE",
"49 -15 OFFCURVE",
"88 -15 CURVE SMOOTH"
);
},
{
closed = 1;
nodes = (
"289 742 LINE",
"386 841 LINE",
"441 742 LINE",
"562 742 LINE",
"453 913 LINE",
"341 913 LINE",
"158 742 LINE"
);
}
);
width = 384;
}
);
note = Jcircumflex;
rightKerningGroup = J;
unicode = 0134;
},
{
glyphname = K;
lastChange = "2015-10-28 10:23:47 +0000";
layers = (
{
layerId = "A85C0A33-2487-4E47-AED8-78B93E482A34";
name = "Regular Italic";
paths = (
{
closed = 1;
nodes = (
"147 0 LINE",
"217 331 LINE",
"454 0 LINE",
"603 0 LINE",
"351 352 LINE",
"734 699 LINE",
"582 699 LINE",
"228 383 LINE",
"295 699 LINE",
"168 699 LINE",
"20 0 LINE"
);
}
);
width = 686;
}
);
leftKerningGroup = K;
note = K;
rightKerningGroup = K;
unicode = 004B;
},
{
glyphname = Kcommaaccent;
lastChange = "2015-10-28 10:23:47 +0000";
layers = (
{
layerId = "A85C0A33-2487-4E47-AED8-78B93E482A34";
name = "Regular Italic";
paths = (
{
closed = 1;
nodes = (
"147 0 LINE",
"217 331 LINE",
"454 0 LINE",
"603 0 LINE",
"351 352 LINE",
"734 699 LINE",
"582 699 LINE",
"228 383 LINE",
"295 699 LINE",
"168 699 LINE",
"20 0 LINE"
);
},
{
closed = 1;
nodes = (
"202 -259 LINE",
"344 -56 LINE",
"213 -56 LINE",
"88 -259 LINE"
);
}
);
width = 686;
}
);
leftKerningGroup = K;
note = Kcommaaccent;
rightKerningGroup = K;
unicode = 0136;
},
{
glyphname = L;
lastChange = "2015-10-28 10:23:48 +0000";
layers = (
{
layerId = "A85C0A33-2487-4E47-AED8-78B93E482A34";
name = "Regular Italic";
paths = (
{
closed = 1;
nodes = (
"483 0 LINE",
"505 105 LINE",
"169 105 LINE",
"295 699 LINE",
"168 699 LINE",
"20 0 LINE"
);
}
);
width = 543;
}
);
note = L;
rightKerningGroup = L;
unicode = 004C;
},
{
glyphname = Lacute;
lastChange = "2015-10-28 10:23:48 +0000";
layers = (
{
layerId = "A85C0A33-2487-4E47-AED8-78B93E482A34";
name = "Regular Italic";
paths = (
{
closed = 1;
nodes = (
"483 0 LINE",
"505 105 LINE",
"169 105 LINE",
"295 699 LINE",
"168 699 LINE",
"20 0 LINE"
);
},
{
closed = 1;
nodes = (
"280 742 LINE",
"403 916 LINE",
"270 916 LINE",
"164 742 LINE"
);
}
);
width = 543;
}
);
note = Lacute;
rightKerningGroup = L;
unicode = 0139;
},
{
glyphname = Lcaron;
lastChange = "2015-10-28 10:23:48 +0000";
layers = (
{
layerId = "A85C0A33-2487-4E47-AED8-78B93E482A34";
name = "Regular Italic";
paths = (
{
closed = 1;
nodes = (
"483 0 LINE",
"505 105 LINE",
"169 105 LINE",
"295 699 LINE",
"168 699 LINE",
"20 0 LINE"
);
},
{
closed = 1;
nodes = (
"466 504 LINE",
"608 707 LINE",
"477 707 LINE",
"352 504 LINE"
);
}
);
width = 543;
}
);
note = Lcaron;
rightKerningGroup = L;
unicode = 013D;
},
{
glyphname = Lcommaaccent;
lastChange = "2015-10-28 10:23:48 +0000";
layers = (
{
layerId = "A85C0A33-2487-4E47-AED8-78B93E482A34";
name = "Regular Italic";
paths = (
{
closed = 1;
nodes = (
"483 0 LINE",
"505 105 LINE",
"169 105 LINE",
"295 699 LINE",
"168 699 LINE",
"20 0 LINE"
);
},
{
closed = 1;
nodes = (
"172 -259 LINE",
"314 -56 LINE",
"183 -56 LINE",
"58 -259 LINE"
);
}
);
width = 543;
}
);
note = Lcommaaccent;
rightKerningGroup = L;
unicode = 013B;
},
{
glyphname = Ldot;
lastChange = "2015-10-28 10:23:47 +0000";
layers = (
{
layerId = "A85C0A33-2487-4E47-AED8-78B93E482A34";
name = "Regular Italic";
paths = (
{
closed = 1;
nodes = (
"483 0 LINE",
"505 105 LINE",
"169 105 LINE",
"295 699 LINE",
"168 699 LINE",
"20 0 LINE"
);
},
{
closed = 1;
nodes = (
"442 321 OFFCURVE",
"479 350 OFFCURVE",
"486 387 CURVE SMOOTH",
"494 424 OFFCURVE",
"471 454 OFFCURVE",
"435 454 CURVE SMOOTH",
"399 454 OFFCURVE",
"361 424 OFFCURVE",
"353 387 CURVE SMOOTH",
"346 350 OFFCURVE",
"370 321 OFFCURVE",
"406 321 CURVE SMOOTH"
);
}
);
width = 543;
}
);
note = Ldot;
rightKerningGroup = L;
unicode = 013F;
},
{
glyphname = Ldotbelow;
lastChange = "2015-10-28 10:23:48 +0000";
layers = (
{
layerId = "A85C0A33-2487-4E47-AED8-78B93E482A34";
name = "Regular Italic";
paths = (
{
closed = 1;
nodes = (
"483 0 LINE",
"505 105 LINE",
"169 105 LINE",
"295 699 LINE",
"168 699 LINE",
"20 0 LINE"
);
},
{
closed = 1;
nodes = (
"220 -179 OFFCURVE",
"256 -150 OFFCURVE",
"263 -113 CURVE SMOOTH",
"271 -76 OFFCURVE",
"248 -46 OFFCURVE",
"213 -46 CURVE SMOOTH",
"177 -46 OFFCURVE",
"139 -76 OFFCURVE",
"131 -113 CURVE SMOOTH",
"124 -150 OFFCURVE",
"148 -179 OFFCURVE",
"184 -179 CURVE SMOOTH"
);
}
);
width = 543;
}
);
note = Ldotbelow;
rightKerningGroup = L;
unicode = 1E36;
},
{
glyphname = Ldotbelowmacron;
lastChange = "2015-10-28 10:23:47 +0000";
layers = (
{
layerId = "A85C0A33-2487-4E47-AED8-78B93E482A34";
name = "Regular Italic";
paths = (
{
closed = 1;
nodes = (
"500 0 LINE",
"522 105 LINE",
"186 105 LINE",
"312 699 LINE",
"185 699 LINE",
"37 0 LINE"
);
},
{
closed = 1;
nodes = (
"261 -179 OFFCURVE",
"297 -150 OFFCURVE",
"304 -113 CURVE SMOOTH",
"312 -76 OFFCURVE",
"289 -46 OFFCURVE",
"254 -46 CURVE SMOOTH",
"218 -46 OFFCURVE",
"180 -76 OFFCURVE",
"172 -113 CURVE SMOOTH",
"165 -150 OFFCURVE",
"189 -179 OFFCURVE",
"225 -179 CURVE SMOOTH"
);
},
{
closed = 1;
nodes = (
"492 752 LINE",
"510 836 LINE",
"188 836 LINE",
"170 752 LINE"
);
}
);
width = 560;
}
);
note = Ldotbelowmacron;
rightKerningGroup = L;
unicode = 1E38;
},
{
glyphname = Llinebelow;
lastChange = "2015-10-28 10:23:48 +0000";
layers = (
{
layerId = "A85C0A33-2487-4E47-AED8-78B93E482A34";
name = "Regular Italic";
paths = (
{
closed = 1;
nodes = (
"483 0 LINE",
"505 105 LINE",
"169 105 LINE",
"295 699 LINE",
"168 699 LINE",
"20 0 LINE"
);
},
{
closed = 1;
nodes = (
"375 -151 LINE",
"393 -68 LINE",
"71 -68 LINE",
"53 -151 LINE"
);
}
);
width = 543;
}
);
note = Llinebelow;
rightKerningGroup = L;
unicode = 1E3A;
},
{
glyphname = Lslash;
lastChange = "2015-10-28 10:23:48 +0000";
layers = (
{
layerId = "A85C0A33-2487-4E47-AED8-78B93E482A34";
name = "Regular Italic";
paths = (
{
closed = 1;
nodes = (
"527 0 LINE",
"549 105 LINE",
"213 105 LINE",
"263 340 LINE",
"432 409 LINE",
"458 530 LINE",
"288 461 LINE",
"339 699 LINE",
"212 699 LINE",
"149 404 LINE",
"46 362 LINE",
"21 241 LINE",
"124 283 LINE",
"64 0 LINE"
);
}
);
width = 587;
}
);
note = Lslash;
rightKerningGroup = L;
unicode = 0141;
},
{
glyphname = M;
lastChange = "2015-10-28 10:23:48 +0000";
layers = (
{
layerId = "A85C0A33-2487-4E47-AED8-78B93E482A34";
name = "Regular Italic";
paths = (
{
closed = 1;
nodes = (
"140 0 LINE",
"236 454 LINE",
"348 0 LINE",
"408 0 LINE",
"712 454 LINE",
"616 0 LINE",
"736 0 LINE",
"884 699 LINE",
"755 699 LINE",
"412 187 LINE",
"287 699 LINE",
"168 699 LINE",
"20 0 LINE"
);
}
);
width = 836;
}
);
note = M;
unicode = 004D;
},
{
glyphname = Mdotbelow;
lastChange = "2015-10-28 10:23:48 +0000";
layers = (
{
layerId = "A85C0A33-2487-4E47-AED8-78B93E482A34";
name = "Regular Italic";
paths = (
{
closed = 1;
nodes = (
"140 0 LINE",
"236 454 LINE",
"348 0 LINE",
"408 0 LINE",
"712 454 LINE",
"616 0 LINE",
"736 0 LINE",
"884 699 LINE",
"755 699 LINE",
"412 187 LINE",
"287 699 LINE",
"168 699 LINE",
"20 0 LINE"
);
},
{
closed = 1;
nodes = (
"377 -179 OFFCURVE",
"413 -150 OFFCURVE",
"420 -113 CURVE SMOOTH",
"428 -76 OFFCURVE",
"405 -46 OFFCURVE",
"370 -46 CURVE SMOOTH",
"334 -46 OFFCURVE",
"296 -76 OFFCURVE",
"288 -113 CURVE SMOOTH",
"281 -150 OFFCURVE",
"305 -179 OFFCURVE",
"341 -179 CURVE SMOOTH"
);
}
);
width = 836;
}
);
note = Mdotbelow;
unicode = 1E42;
},
{
glyphname = N;
lastChange = "2015-10-28 10:23:48 +0000";
layers = (
{
layerId = "A85C0A33-2487-4E47-AED8-78B93E482A34";
name = "Regular Italic";
paths = (
{
closed = 1;
nodes = (
"147 0 LINE",
"250 488 LINE",
"474 0 LINE",
"594 0 LINE",
"742 699 LINE",
"615 699 LINE",
"512 212 LINE",
"288 699 LINE",
"168 699 LINE",
"20 0 LINE"
);
}
);
width = 694;
}
);
note = N;
unicode = 004E;
},
{
glyphname = Nacute;
lastChange = "2015-10-28 10:23:47 +0000";
layers = (
{
layerId = "A85C0A33-2487-4E47-AED8-78B93E482A34";
name = "Regular Italic";
paths = (
{
closed = 1;
nodes = (
"147 0 LINE",
"250 488 LINE",
"474 0 LINE",
"594 0 LINE",
"742 699 LINE",
"615 699 LINE",
"512 212 LINE",
"288 699 LINE",
"168 699 LINE",
"20 0 LINE"
);
},
{
closed = 1;
nodes = (
"492 742 LINE",
"615 916 LINE",
"482 916 LINE",
"376 742 LINE"
);
}
);
width = 694;
}
);
note = Nacute;
unicode = 0143;
},
{
glyphname = Ncaron;
lastChange = "2015-10-28 10:23:48 +0000";
layers = (
{
layerId = "A85C0A33-2487-4E47-AED8-78B93E482A34";
name = "Regular Italic";
paths = (
{
closed = 1;
nodes = (
"147 0 LINE",
"250 488 LINE",
"474 0 LINE",
"594 0 LINE",
"742 699 LINE",
"615 699 LINE",
"512 212 LINE",
"288 699 LINE",
"168 699 LINE",
"20 0 LINE"
);
},
{
closed = 1;
nodes = (
"498 742 LINE",
"681 913 LINE",
"549 913 LINE",
"451 813 LINE",
"397 913 LINE",
"277 913 LINE",
"386 742 LINE"
);
}
);
width = 694;
}
);
note = Ncaron;
unicode = 0147;
},
{
glyphname = Ncommaaccent;
lastChange = "2015-10-28 10:23:47 +0000";
layers = (
{
layerId = "A85C0A33-2487-4E47-AED8-78B93E482A34";
name = "Regular Italic";
paths = (
{
closed = 1;
nodes = (
"147 0 LINE",
"250 488 LINE",
"474 0 LINE",
"594 0 LINE",
"742 699 LINE",
"615 699 LINE",
"512 212 LINE",
"288 699 LINE",
"168 699 LINE",
"20 0 LINE"
);
},
{
closed = 1;
nodes = (
"226 -259 LINE",
"368 -56 LINE",
"237 -56 LINE",
"112 -259 LINE"
);
}
);
width = 694;
}
);
note = Ncommaaccent;
unicode = 0145;
},
{
glyphname = Ndotaccent;
lastChange = "2015-10-28 10:23:48 +0000";
layers = (
{
layerId = "A85C0A33-2487-4E47-AED8-78B93E482A34";
name = "Regular Italic";
paths = (
{
closed = 1;
nodes = (
"147 0 LINE",
"250 488 LINE",
"474 0 LINE",
"594 0 LINE",
"742 699 LINE",
"615 699 LINE",
"512 212 LINE",
"288 699 LINE",
"168 699 LINE",
"20 0 LINE"
);
},
{
closed = 1;
nodes = (
"484 752 OFFCURVE",
"521 781 OFFCURVE",
"528 818 CURVE SMOOTH",
"536 855 OFFCURVE",
"513 885 OFFCURVE",
"477 885 CURVE SMOOTH",
"441 885 OFFCURVE",
"403 855 OFFCURVE",
"395 818 CURVE SMOOTH",
"388 781 OFFCURVE",
"412 752 OFFCURVE",
"448 752 CURVE SMOOTH"
);
}
);
width = 694;
}
);
note = Ndotaccent;
unicode = 1E44;
},
{
glyphname = Ndotbelow;
lastChange = "2015-10-28 10:23:47 +0000";
layers = (
{
layerId = "A85C0A33-2487-4E47-AED8-78B93E482A34";
name = "Regular Italic";
paths = (
{
closed = 1;
nodes = (
"147 0 LINE",
"250 488 LINE",
"474 0 LINE",
"594 0 LINE",
"742 699 LINE",
"615 699 LINE",
"512 212 LINE",
"288 699 LINE",
"168 699 LINE",
"20 0 LINE"
);
},
{
closed = 1;
nodes = (
"307 -179 OFFCURVE",
"343 -150 OFFCURVE",
"350 -113 CURVE SMOOTH",
"358 -76 OFFCURVE",
"335 -46 OFFCURVE",
"300 -46 CURVE SMOOTH",
"264 -46 OFFCURVE",
"226 -76 OFFCURVE",
"218 -113 CURVE SMOOTH",
"211 -150 OFFCURVE",
"235 -179 OFFCURVE",
"271 -179 CURVE SMOOTH"
);
}
);
width = 694;
}
);
note = Ndotbelow;
unicode = 1E46;
},
{
glyphname = Eng;
lastChange = "2015-10-28 10:23:47 +0000";
layers = (
{
layerId = "A85C0A33-2487-4E47-AED8-78B93E482A34";
name = "Regular Italic";
paths = (
{
closed = 1;
nodes = (
"468 -230 OFFCURVE",
"556 -176 OFFCURVE",
"582 -55 CURVE SMOOTH",
"742 699 LINE",
"615 699 LINE",
"512 212 LINE",
"288 699 LINE",
"168 699 LINE",
"20 0 LINE",
"147 0 LINE",
"250 488 LINE",
"470 9 LINE",
"459 -42 LINE SMOOTH",
"446 -101 OFFCURVE",
"415 -127 OFFCURVE",
"360 -127 CURVE SMOOTH",
"336 -127 OFFCURVE",
"316 -123 OFFCURVE",
"300 -115 CURVE",
"278 -217 LINE",
"299 -225 OFFCURVE",
"326 -230 OFFCURVE",
"360 -230 CURVE SMOOTH"
);
}
);
width = 694;
}
);
note = Eng;
unicode = 014A;
},
{
glyphname = Nlinebelow;
lastChange = "2015-10-28 10:23:48 +0000";
layers = (
{
layerId = "A85C0A33-2487-4E47-AED8-78B93E482A34";
name = "Regular Italic";
paths = (
{
closed = 1;
nodes = (
"147 0 LINE",
"250 488 LINE",
"474 0 LINE",
"594 0 LINE",
"742 699 LINE",
"615 699 LINE",
"512 212 LINE",
"288 699 LINE",
"168 699 LINE",
"20 0 LINE"
);
},
{
closed = 1;
nodes = (
"442 -151 LINE",
"460 -68 LINE",
"138 -68 LINE",
"120 -151 LINE"
);
}
);
width = 694;
}
);
note = Nlinebelow;
unicode = 1E48;
},
{
glyphname = Ntilde;
lastChange = "2015-10-28 10:23:48 +0000";
layers = (
{
layerId = "A85C0A33-2487-4E47-AED8-78B93E482A34";
name = "Regular Italic";
paths = (
{
closed = 1;
nodes = (
"147 0 LINE",
"250 488 LINE",
"474 0 LINE",
"594 0 LINE",
"742 699 LINE",
"615 699 LINE",
"512 212 LINE",
"288 699 LINE",
"168 699 LINE",
"20 0 LINE"
);
},
{
closed = 1;
nodes = (
"296 781 OFFCURVE",
"331 794 OFFCURVE",
"368 794 CURVE SMOOTH",
"432 794 OFFCURVE",
"474 744 OFFCURVE",
"547 744 CURVE SMOOTH",
"589 744 OFFCURVE",
"626 755 OFFCURVE",
"655 786 CURVE",
"677 889 LINE",
"641 851 OFFCURVE",
"605 838 OFFCURVE",
"567 838 CURVE SMOOTH",
"502 838 OFFCURVE",
"456 888 OFFCURVE",
"388 888 CURVE SMOOTH",
"347 888 OFFCURVE",
"309 876 OFFCURVE",
"279 845 CURVE",
"257 742 LINE"
);
}
);
width = 694;
}
);
note = Ntilde;
unicode = 00D1;
},
{
glyphname = O;
lastChange = "2015-10-28 10:23:48 +0000";
layers = (
{
layerId = "A85C0A33-2487-4E47-AED8-78B93E482A34";
name = "Regular Italic";
paths = (
{
closed = 1;
nodes = (
"593 -15 OFFCURVE",
"768 131 OFFCURVE",
"815 349 CURVE SMOOTH",
"861 568 OFFCURVE",
"726 714 OFFCURVE",
"522 714 CURVE SMOOTH",
"301 714 OFFCURVE",
"120 568 OFFCURVE",
"74 349 CURVE SMOOTH",
"27 131 OFFCURVE",
"157 -15 OFFCURVE",
"367 -15 CURVE SMOOTH"
);
},
{
closed = 1;
nodes = (
"221 100 OFFCURVE",
"169 195 OFFCURVE",
"202 349 CURVE SMOOTH",
"234 501 OFFCURVE",
"362 598 OFFCURVE",
"498 598 CURVE SMOOTH",
"666 598 OFFCURVE",
"719 501 OFFCURVE",
"687 349 CURVE SMOOTH",
"654 195 OFFCURVE",
"525 100 OFFCURVE",
"392 100 CURVE SMOOTH"
);
}
);
width = 821;
}
);
leftKerningGroup = O;
note = O;
rightKerningGroup = O;
unicode = 004F;
},
{
glyphname = Oacute;
lastChange = "2015-10-28 10:23:47 +0000";
layers = (
{
layerId = "A85C0A33-2487-4E47-AED8-78B93E482A34";
name = "Regular Italic";
paths = (
{
closed = 1;
nodes = (
"593 -15 OFFCURVE",
"768 131 OFFCURVE",
"815 349 CURVE SMOOTH",
"861 568 OFFCURVE",
"726 714 OFFCURVE",
"522 714 CURVE SMOOTH",
"301 714 OFFCURVE",
"120 568 OFFCURVE",
"74 349 CURVE SMOOTH",
"27 131 OFFCURVE",
"157 -15 OFFCURVE",
"367 -15 CURVE SMOOTH"
);
},
{
closed = 1;
nodes = (
"221 100 OFFCURVE",
"169 195 OFFCURVE",
"202 349 CURVE SMOOTH",
"234 501 OFFCURVE",
"362 598 OFFCURVE",
"498 598 CURVE SMOOTH",
"666 598 OFFCURVE",
"719 501 OFFCURVE",
"687 349 CURVE SMOOTH",
"654 195 OFFCURVE",
"525 100 OFFCURVE",
"392 100 CURVE SMOOTH"
);
},
{
closed = 1;
nodes = (
"565 742 LINE",
"688 916 LINE",
"555 916 LINE",
"449 742 LINE"
);
}
);
width = 821;
}
);
leftKerningGroup = O;
note = Oacute;
rightKerningGroup = O;
unicode = 00D3;
},
{
glyphname = Obreve;
lastChange = "2015-10-28 10:23:48 +0000";
layers = (
{
layerId = "A85C0A33-2487-4E47-AED8-78B93E482A34";
name = "Regular Italic";
paths = (
{
closed = 1;
nodes = (
"593 -15 OFFCURVE",
"768 131 OFFCURVE",
"815 349 CURVE SMOOTH",
"861 568 OFFCURVE",
"726 714 OFFCURVE",
"522 714 CURVE SMOOTH",
"301 714 OFFCURVE",
"120 568 OFFCURVE",
"74 349 CURVE SMOOTH",
"27 131 OFFCURVE",
"157 -15 OFFCURVE",
"367 -15 CURVE SMOOTH"
);
},
{
closed = 1;
nodes = (
"221 100 OFFCURVE",
"169 195 OFFCURVE",
"202 349 CURVE SMOOTH",
"234 501 OFFCURVE",
"362 598 OFFCURVE",
"498 598 CURVE SMOOTH",
"666 598 OFFCURVE",
"719 501 OFFCURVE",
"687 349 CURVE SMOOTH",
"654 195 OFFCURVE",
"525 100 OFFCURVE",
"392 100 CURVE SMOOTH"
);
},
{
closed = 1;
nodes = (
"608 742 OFFCURVE",
"681 803 OFFCURVE",
"700 893 CURVE",
"600 893 LINE",
"591 849 OFFCURVE",
"562 826 OFFCURVE",
"520 826 CURVE SMOOTH",
"478 826 OFFCURVE",
"459 849 OFFCURVE",
"468 893 CURVE",
"379 893 LINE",
"360 803 OFFCURVE",
"406 742 OFFCURVE",
"507 742 CURVE SMOOTH"
);
}
);
width = 821;
}
);
leftKerningGroup = O;
note = Obreve;
rightKerningGroup = O;
unicode = 014E;
},
{
glyphname = Ocaron;
lastChange = "2015-10-28 10:23:48 +0000";
layers = (
{
layerId = "A85C0A33-2487-4E47-AED8-78B93E482A34";
name = "Regular Italic";
paths = (
{
closed = 1;
nodes = (
"593 -15 OFFCURVE",
"768 131 OFFCURVE",
"815 349 CURVE SMOOTH",
"861 568 OFFCURVE",
"726 714 OFFCURVE",
"522 714 CURVE SMOOTH",
"301 714 OFFCURVE",
"120 568 OFFCURVE",
"74 349 CURVE SMOOTH",
"27 131 OFFCURVE",
"157 -15 OFFCURVE",
"367 -15 CURVE SMOOTH"
);
},
{
closed = 1;
nodes = (
"221 100 OFFCURVE",
"169 195 OFFCURVE",
"202 349 CURVE SMOOTH",
"234 501 OFFCURVE",
"362 598 OFFCURVE",
"498 598 CURVE SMOOTH",
"666 598 OFFCURVE",
"719 501 OFFCURVE",
"687 349 CURVE SMOOTH",
"654 195 OFFCURVE",
"525 100 OFFCURVE",
"392 100 CURVE SMOOTH"
);
},
{
closed = 1;
nodes = (
"562 742 LINE",
"745 913 LINE",
"613 913 LINE",
"515 813 LINE",
"461 913 LINE",
"341 913 LINE",
"450 742 LINE"
);
}
);
width = 821;
}
);
leftKerningGroup = O;
note = Ocaron;
rightKerningGroup = O;
unicode = 01D1;
},
{
glyphname = Ocircumflex;
lastChange = "2015-10-28 10:23:48 +0000";
layers = (
{
layerId = "A85C0A33-2487-4E47-AED8-78B93E482A34";
name = "Regular Italic";
paths = (
{
closed = 1;
nodes = (
"593 -15 OFFCURVE",
"768 131 OFFCURVE",
"815 349 CURVE SMOOTH",
"861 568 OFFCURVE",
"726 714 OFFCURVE",
"522 714 CURVE SMOOTH",
"301 714 OFFCURVE",
"120 568 OFFCURVE",
"74 349 CURVE SMOOTH",
"27 131 OFFCURVE",
"157 -15 OFFCURVE",
"367 -15 CURVE SMOOTH"
);
},
{
closed = 1;
nodes = (
"221 100 OFFCURVE",
"169 195 OFFCURVE",
"202 349 CURVE SMOOTH",
"234 501 OFFCURVE",
"362 598 OFFCURVE",
"498 598 CURVE SMOOTH",
"666 598 OFFCURVE",
"719 501 OFFCURVE",
"687 349 CURVE SMOOTH",
"654 195 OFFCURVE",
"525 100 OFFCURVE",
"392 100 CURVE SMOOTH"
);
},
{
closed = 1;
nodes = (
"436 742 LINE",
"533 841 LINE",
"588 742 LINE",
"709 742 LINE",
"600 913 LINE",
"488 913 LINE",
"305 742 LINE"
);
}
);
width = 821;
}
);
leftKerningGroup = O;
note = Ocircumflex;
rightKerningGroup = O;
unicode = 00D4;
},
{
glyphname = Ocircumflexacute;
lastChange = "2015-10-28 10:23:47 +0000";
layers = (
{
layerId = "A85C0A33-2487-4E47-AED8-78B93E482A34";
name = "Regular Italic";
paths = (
{
closed = 1;
nodes = (
"593 -15 OFFCURVE",
"768 131 OFFCURVE",
"815 349 CURVE SMOOTH",
"861 568 OFFCURVE",
"726 714 OFFCURVE",
"522 714 CURVE SMOOTH",
"301 714 OFFCURVE",
"120 568 OFFCURVE",
"74 349 CURVE SMOOTH",
"27 131 OFFCURVE",
"157 -15 OFFCURVE",
"367 -15 CURVE SMOOTH"
);
},
{
closed = 1;
nodes = (
"221 100 OFFCURVE",
"169 195 OFFCURVE",
"202 349 CURVE SMOOTH",
"234 501 OFFCURVE",
"362 598 OFFCURVE",
"498 598 CURVE SMOOTH",
"666 598 OFFCURVE",
"719 501 OFFCURVE",
"687 349 CURVE SMOOTH",
"654 195 OFFCURVE",
"525 100 OFFCURVE",
"392 100 CURVE SMOOTH"
);
},
{
closed = 1;
nodes = (
"470 742 LINE",
"560 826 LINE",
"614 742 LINE",
"732 742 LINE",
"627 894 LINE",
"521 894 LINE",
"350 742 LINE"
);
},
{
closed = 1;
nodes = (
"799 841 LINE",
"903 969 LINE",
"786 969 LINE",
"699 841 LINE"
);
}
);
width = 821;
}
);
leftKerningGroup = O;
note = Ocircumflexacute;
rightKerningGroup = O;
unicode = 1ED0;
},
{
glyphname = Ocircumflexdotbelow;
lastChange = "2015-10-28 10:23:48 +0000";
layers = (
{
layerId = "A85C0A33-2487-4E47-AED8-78B93E482A34";
name = "Regular Italic";
paths = (
{
closed = 1;
nodes = (
"593 -15 OFFCURVE",
"768 131 OFFCURVE",
"815 349 CURVE SMOOTH",
"861 568 OFFCURVE",
"726 714 OFFCURVE",
"522 714 CURVE SMOOTH",
"301 714 OFFCURVE",
"120 568 OFFCURVE",
"74 349 CURVE SMOOTH",
"27 131 OFFCURVE",
"157 -15 OFFCURVE",
"367 -15 CURVE SMOOTH"
);
},
{
closed = 1;
nodes = (
"370 -179 OFFCURVE",
"406 -150 OFFCURVE",
"413 -113 CURVE SMOOTH",
"421 -76 OFFCURVE",
"398 -46 OFFCURVE",
"363 -46 CURVE SMOOTH",
"327 -46 OFFCURVE",
"289 -76 OFFCURVE",
"281 -113 CURVE SMOOTH",
"274 -150 OFFCURVE",
"298 -179 OFFCURVE",
"334 -179 CURVE SMOOTH"
);
},
{
closed = 1;
nodes = (
"221 100 OFFCURVE",
"169 195 OFFCURVE",
"202 349 CURVE SMOOTH",
"234 501 OFFCURVE",
"362 598 OFFCURVE",
"498 598 CURVE SMOOTH",
"666 598 OFFCURVE",
"719 501 OFFCURVE",
"687 349 CURVE SMOOTH",
"654 195 OFFCURVE",
"525 100 OFFCURVE",
"392 100 CURVE SMOOTH"
);
},
{
closed = 1;
nodes = (
"436 742 LINE",
"533 841 LINE",
"588 742 LINE",
"709 742 LINE",
"600 913 LINE",
"488 913 LINE",
"305 742 LINE"
);
}
);
width = 821;
}
);
leftKerningGroup = O;
note = Ocircumflexdotbelow;
rightKerningGroup = O;
unicode = 1ED8;
},
{
glyphname = Ocircumflexgrave;
lastChange = "2015-10-28 10:23:47 +0000";
layers = (
{
layerId = "A85C0A33-2487-4E47-AED8-78B93E482A34";
name = "Regular Italic";
paths = (
{
closed = 1;
nodes = (
"593 -15 OFFCURVE",
"768 131 OFFCURVE",
"815 349 CURVE SMOOTH",
"861 568 OFFCURVE",
"726 714 OFFCURVE",
"522 714 CURVE SMOOTH",
"301 714 OFFCURVE",
"120 568 OFFCURVE",
"74 349 CURVE SMOOTH",
"27 131 OFFCURVE",
"157 -15 OFFCURVE",
"367 -15 CURVE SMOOTH"
);
},
{
closed = 1;
nodes = (
"221 100 OFFCURVE",
"169 195 OFFCURVE",
"202 349 CURVE SMOOTH",
"234 501 OFFCURVE",
"362 598 OFFCURVE",
"498 598 CURVE SMOOTH",
"666 598 OFFCURVE",
"719 501 OFFCURVE",
"687 349 CURVE SMOOTH",
"654 195 OFFCURVE",
"525 100 OFFCURVE",
"392 100 CURVE SMOOTH"
);
},
{
closed = 1;
nodes = (
"419 841 LINE",
"385 969 LINE",
"268 969 LINE",
"318 841 LINE"
);
},
{
closed = 1;
nodes = (
"462 742 LINE",
"552 826 LINE",
"605 742 LINE",
"725 742 LINE",
"618 894 LINE",
"513 894 LINE",
"343 742 LINE"
);
}
);
width = 821;
}
);
leftKerningGroup = O;
note = Ocircumflexgrave;
rightKerningGroup = O;
unicode = 1ED2;
},
{
glyphname = Ocircumflexhookabove;
lastChange = "2015-10-28 10:23:47 +0000";
layers = (
{
layerId = "A85C0A33-2487-4E47-AED8-78B93E482A34";
name = "Regular Italic";
paths = (
{
closed = 1;
nodes = (
"593 -15 OFFCURVE",
"768 131 OFFCURVE",
"815 349 CURVE SMOOTH",
"861 568 OFFCURVE",
"726 714 OFFCURVE",
"522 714 CURVE SMOOTH",
"301 714 OFFCURVE",
"120 568 OFFCURVE",
"74 349 CURVE SMOOTH",
"27 131 OFFCURVE",
"157 -15 OFFCURVE",
"367 -15 CURVE SMOOTH"
);
},
{
closed = 1;
nodes = (
"221 100 OFFCURVE",
"169 195 OFFCURVE",
"202 349 CURVE SMOOTH",
"234 501 OFFCURVE",
"362 598 OFFCURVE",
"498 598 CURVE SMOOTH",
"666 598 OFFCURVE",
"719 501 OFFCURVE",
"687 349 CURVE SMOOTH",
"654 195 OFFCURVE",
"525 100 OFFCURVE",
"392 100 CURVE SMOOTH"
);
},
{
closed = 1;
nodes = (
"470 742 LINE",
"560 826 LINE",
"614 742 LINE",
"732 742 LINE",
"627 894 LINE",
"521 894 LINE",
"350 742 LINE"
);
},
{
closed = 1;
nodes = (
"775 830 LINE",
"780 854 LINE",
"821 861 OFFCURVE",
"851 885 OFFCURVE",
"858 919 CURVE SMOOTH",
"867 961 OFFCURVE",
"836 989 OFFCURVE",
"776 989 CURVE SMOOTH",
"752 989 OFFCURVE",
"721 984 OFFCURVE",
"702 978 CURVE",
"692 929 LINE",
"703 934 OFFCURVE",
"720 937 OFFCURVE",
"734 937 CURVE SMOOTH",
"762 937 OFFCURVE",
"775 932 OFFCURVE",
"770 911 CURVE SMOOTH",
"765 887 OFFCURVE",
"744 880 OFFCURVE",
"707 880 CURVE",
"697 830 LINE"
);
}
);
width = 821;
}
);
leftKerningGroup = O;
note = Ocircumflexhookabove;
rightKerningGroup = O;
unicode = 1ED4;
},
{
glyphname = Ocircumflextilde;
lastChange = "2015-10-28 10:23:47 +0000";
layers = (
{
layerId = "A85C0A33-2487-4E47-AED8-78B93E482A34";
name = "Regular Italic";
paths = (
{
closed = 1;
nodes = (
"593 -15 OFFCURVE",
"768 131 OFFCURVE",
"815 349 CURVE SMOOTH",
"861 568 OFFCURVE",
"726 714 OFFCURVE",
"522 714 CURVE SMOOTH",
"301 714 OFFCURVE",
"120 568 OFFCURVE",
"74 349 CURVE SMOOTH",
"27 131 OFFCURVE",
"157 -15 OFFCURVE",
"367 -15 CURVE SMOOTH"
);
},
{
closed = 1;
nodes = (
"221 100 OFFCURVE",
"169 195 OFFCURVE",
"202 349 CURVE SMOOTH",
"234 501 OFFCURVE",
"362 598 OFFCURVE",
"498 598 CURVE SMOOTH",
"666 598 OFFCURVE",
"719 501 OFFCURVE",
"687 349 CURVE SMOOTH",
"654 195 OFFCURVE",
"525 100 OFFCURVE",
"392 100 CURVE SMOOTH"
);
},
{
closed = 1;
nodes = (
"626 742 OFFCURVE",
"696 801 OFFCURVE",
"714 889 CURVE",
"623 889 LINE",
"614 846 OFFCURVE",
"587 824 OFFCURVE",
"546 824 CURVE SMOOTH",
"505 824 OFFCURVE",
"486 846 OFFCURVE",
"495 889 CURVE",
"403 889 LINE",
"385 801 OFFCURVE",
"430 742 OFFCURVE",
"528 742 CURVE SMOOTH"
);
},
{
closed = 1;
nodes = (
"680 925 OFFCURVE",
"707 935 OFFCURVE",
"729 959 CURVE",
"748 1049 LINE",
"720 1018 OFFCURVE",
"692 1007 OFFCURVE",
"662 1007 CURVE SMOOTH",
"614 1007 OFFCURVE",
"568 1050 OFFCURVE",
"518 1050 CURVE SMOOTH",
"483 1050 OFFCURVE",
"454 1040 OFFCURVE",
"432 1015 CURVE",
"413 926 LINE",
"443 957 OFFCURVE",
"469 968 OFFCURVE",
"500 968 CURVE SMOOTH",
"547 968 OFFCURVE",
"591 925 OFFCURVE",
"645 925 CURVE SMOOTH"
);
}
);
width = 821;
}
);
leftKerningGroup = O;
note = Ocircumflextilde;
rightKerningGroup = O;
unicode = 1ED6;
},
{
glyphname = Odieresis;
lastChange = "2015-10-28 10:23:48 +0000";
layers = (
{
layerId = "A85C0A33-2487-4E47-AED8-78B93E482A34";
name = "Regular Italic";
paths = (
{
closed = 1;
nodes = (
"593 -15 OFFCURVE",
"768 131 OFFCURVE",
"815 349 CURVE SMOOTH",
"861 568 OFFCURVE",
"726 714 OFFCURVE",
"522 714 CURVE SMOOTH",
"301 714 OFFCURVE",
"120 568 OFFCURVE",
"74 349 CURVE SMOOTH",
"27 131 OFFCURVE",
"157 -15 OFFCURVE",
"367 -15 CURVE SMOOTH"
);
},
{
closed = 1;
nodes = (
"221 100 OFFCURVE",
"169 195 OFFCURVE",
"202 349 CURVE SMOOTH",
"234 501 OFFCURVE",
"362 598 OFFCURVE",
"498 598 CURVE SMOOTH",
"666 598 OFFCURVE",
"719 501 OFFCURVE",
"687 349 CURVE SMOOTH",
"654 195 OFFCURVE",
"525 100 OFFCURVE",
"392 100 CURVE SMOOTH"
);
},
{
closed = 1;
nodes = (
"426 752 OFFCURVE",
"463 781 OFFCURVE",
"470 818 CURVE SMOOTH",
"478 855 OFFCURVE",
"455 885 OFFCURVE",
"419 885 CURVE SMOOTH",
"384 885 OFFCURVE",
"346 855 OFFCURVE",
"338 818 CURVE SMOOTH",
"331 781 OFFCURVE",
"355 752 OFFCURVE",
"390 752 CURVE SMOOTH"
);
},
{
closed = 1;
nodes = (
"663 752 OFFCURVE",
"700 781 OFFCURVE",
"707 818 CURVE SMOOTH",
"715 855 OFFCURVE",
"692 885 OFFCURVE",
"656 885 CURVE SMOOTH",
"620 885 OFFCURVE",
"582 855 OFFCURVE",
"574 818 CURVE SMOOTH",
"567 781 OFFCURVE",
"591 752 OFFCURVE",
"627 752 CURVE SMOOTH"
);
}
);
width = 821;
}
);
leftKerningGroup = O;
note = Odieresis;
rightKerningGroup = O;
unicode = 00D6;
},
{
glyphname = Odotbelow;
lastChange = "2015-10-28 10:23:48 +0000";
layers = (
{
layerId = "A85C0A33-2487-4E47-AED8-78B93E482A34";
name = "Regular Italic";
paths = (
{
closed = 1;
nodes = (
"593 -15 OFFCURVE",
"768 131 OFFCURVE",
"815 349 CURVE SMOOTH",
"861 568 OFFCURVE",
"726 714 OFFCURVE",
"522 714 CURVE SMOOTH",
"301 714 OFFCURVE",
"120 568 OFFCURVE",
"74 349 CURVE SMOOTH",
"27 131 OFFCURVE",
"157 -15 OFFCURVE",
"367 -15 CURVE SMOOTH"
);
},
{
closed = 1;
nodes = (
"369 -179 OFFCURVE",
"405 -150 OFFCURVE",
"412 -113 CURVE SMOOTH",
"420 -76 OFFCURVE",
"397 -46 OFFCURVE",
"362 -46 CURVE SMOOTH",
"326 -46 OFFCURVE",
"288 -76 OFFCURVE",
"280 -113 CURVE SMOOTH",
"273 -150 OFFCURVE",
"297 -179 OFFCURVE",
"333 -179 CURVE SMOOTH"
);
},
{
closed = 1;
nodes = (
"221 100 OFFCURVE",
"169 195 OFFCURVE",
"202 349 CURVE SMOOTH",
"234 501 OFFCURVE",
"362 598 OFFCURVE",
"498 598 CURVE SMOOTH",
"666 598 OFFCURVE",
"719 501 OFFCURVE",
"687 349 CURVE SMOOTH",
"654 195 OFFCURVE",
"525 100 OFFCURVE",
"392 100 CURVE SMOOTH"
);
}
);
width = 821;
}
);
leftKerningGroup = O;
note = Odotbelow;
rightKerningGroup = O;
unicode = 1ECC;
},
{
glyphname = Ograve;
lastChange = "2015-10-28 10:23:48 +0000";
layers = (
{
layerId = "A85C0A33-2487-4E47-AED8-78B93E482A34";
name = "Regular Italic";
paths = (
{
closed = 1;
nodes = (
"593 -15 OFFCURVE",
"768 131 OFFCURVE",
"815 349 CURVE SMOOTH",
"861 568 OFFCURVE",
"726 714 OFFCURVE",
"522 714 CURVE SMOOTH",
"301 714 OFFCURVE",
"120 568 OFFCURVE",
"74 349 CURVE SMOOTH",
"27 131 OFFCURVE",
"157 -15 OFFCURVE",
"367 -15 CURVE SMOOTH"
);
},
{
closed = 1;
nodes = (
"221 100 OFFCURVE",
"169 195 OFFCURVE",
"202 349 CURVE SMOOTH",
"234 501 OFFCURVE",
"362 598 OFFCURVE",
"498 598 CURVE SMOOTH",
"666 598 OFFCURVE",
"719 501 OFFCURVE",
"687 349 CURVE SMOOTH",
"654 195 OFFCURVE",
"525 100 OFFCURVE",
"392 100 CURVE SMOOTH"
);
},
{
closed = 1;
nodes = (
"575 742 LINE",
"543 916 LINE",
"410 916 LINE",
"459 742 LINE"
);
}
);
width = 821;
}
);
leftKerningGroup = O;
note = Ograve;
rightKerningGroup = O;
unicode = 00D2;
},
{
glyphname = Ohookabove;
lastChange = "2015-10-28 10:23:47 +0000";
layers = (
{
layerId = "A85C0A33-2487-4E47-AED8-78B93E482A34";
name = "Regular Italic";
paths = (
{
closed = 1;
nodes = (
"593 -15 OFFCURVE",
"768 131 OFFCURVE",
"815 349 CURVE SMOOTH",
"861 568 OFFCURVE",
"726 714 OFFCURVE",
"522 714 CURVE SMOOTH",
"301 714 OFFCURVE",
"120 568 OFFCURVE",
"74 349 CURVE SMOOTH",
"27 131 OFFCURVE",
"157 -15 OFFCURVE",
"367 -15 CURVE SMOOTH"
);
},
{
closed = 1;
nodes = (
"221 100 OFFCURVE",
"169 195 OFFCURVE",
"202 349 CURVE SMOOTH",
"234 501 OFFCURVE",
"362 598 OFFCURVE",
"498 598 CURVE SMOOTH",
"666 598 OFFCURVE",
"719 501 OFFCURVE",
"687 349 CURVE SMOOTH",
"654 195 OFFCURVE",
"525 100 OFFCURVE",
"392 100 CURVE SMOOTH"
);
},
{
closed = 1;
nodes = (
"559 742 LINE",
"566 776 LINE",
"627 785 OFFCURVE",
"667 822 OFFCURVE",
"677 870 CURVE SMOOTH",
"690 929 OFFCURVE",
"652 970 OFFCURVE",
"558 970 CURVE SMOOTH",
"522 970 OFFCURVE",
"482 963 OFFCURVE",
"457 956 CURVE",
"443 890 LINE",
"458 896 OFFCURVE",
"496 902 OFFCURVE",
"512 902 CURVE SMOOTH",
"557 902 OFFCURVE",
"571 891 OFFCURVE",
"566 865 CURVE SMOOTH",
"558 827 OFFCURVE",
"521 816 OFFCURVE",
"465 816 CURVE",
"449 742 LINE"
);
}
);
width = 821;
}
);
leftKerningGroup = O;
note = Ohookabove;
rightKerningGroup = O;
unicode = 1ECE;
},
{
glyphname = Ohorn;
lastChange = "2015-10-28 10:23:47 +0000";
layers = (
{
layerId = "A85C0A33-2487-4E47-AED8-78B93E482A34";
name = "Regular Italic";
paths = (
{
closed = 1;
nodes = (
"593 -15 OFFCURVE",
"768 131 OFFCURVE",
"815 349 CURVE SMOOTH",
"829 418 OFFCURVE",
"826 480 OFFCURVE",
"808 532 CURVE",
"892 553 OFFCURVE",
"953 622 OFFCURVE",
"971 705 CURVE SMOOTH",
"980 747 LINE",
"863 747 LINE",
"856 712 LINE SMOOTH",
"842 646 OFFCURVE",
"819 626 OFFCURVE",
"751 626 CURVE",
"697 682 OFFCURVE",
"617 714 OFFCURVE",
"522 714 CURVE SMOOTH",
"301 714 OFFCURVE",
"120 568 OFFCURVE",
"74 349 CURVE SMOOTH",
"27 131 OFFCURVE",
"157 -15 OFFCURVE",
"367 -15 CURVE SMOOTH"
);
},
{
closed = 1;
nodes = (
"221 100 OFFCURVE",
"169 195 OFFCURVE",
"202 349 CURVE SMOOTH",
"234 501 OFFCURVE",
"362 598 OFFCURVE",
"498 598 CURVE SMOOTH",
"666 598 OFFCURVE",
"719 501 OFFCURVE",
"687 349 CURVE SMOOTH",
"654 195 OFFCURVE",
"525 100 OFFCURVE",
"392 100 CURVE SMOOTH"
);
}
);
width = 872;
}
);
leftKerningGroup = O;
note = Ohorn;
rightKerningGroup = O;
unicode = 01A0;
},
{
glyphname = Ohornacute;
lastChange = "2015-10-28 10:23:48 +0000";
layers = (
{
layerId = "A85C0A33-2487-4E47-AED8-78B93E482A34";
name = "Regular Italic";
paths = (
{
closed = 1;
nodes = (
"593 -15 OFFCURVE",
"768 131 OFFCURVE",
"815 349 CURVE SMOOTH",
"829 418 OFFCURVE",
"826 480 OFFCURVE",
"808 532 CURVE",
"892 553 OFFCURVE",
"953 622 OFFCURVE",
"971 705 CURVE SMOOTH",
"980 747 LINE",
"863 747 LINE",
"856 712 LINE SMOOTH",
"842 646 OFFCURVE",
"819 626 OFFCURVE",
"751 626 CURVE",
"697 682 OFFCURVE",
"617 714 OFFCURVE",
"522 714 CURVE SMOOTH",
"301 714 OFFCURVE",
"120 568 OFFCURVE",
"74 349 CURVE SMOOTH",
"27 131 OFFCURVE",
"157 -15 OFFCURVE",
"367 -15 CURVE SMOOTH"
);
},
{
closed = 1;
nodes = (
"221 100 OFFCURVE",
"169 195 OFFCURVE",
"202 349 CURVE SMOOTH",
"234 501 OFFCURVE",
"362 598 OFFCURVE",
"498 598 CURVE SMOOTH",
"666 598 OFFCURVE",
"719 501 OFFCURVE",
"687 349 CURVE SMOOTH",
"654 195 OFFCURVE",
"525 100 OFFCURVE",
"392 100 CURVE SMOOTH"
);
},
{
closed = 1;
nodes = (
"570 742 LINE",
"693 916 LINE",
"560 916 LINE",
"454 742 LINE"
);
}
);
width = 872;
}
);
leftKerningGroup = O;
note = Ohornacute;
rightKerningGroup = O;
unicode = 1EDA;
},
{
glyphname = Ohorndotbelow;
lastChange = "2015-10-28 10:23:47 +0000";
layers = (
{
layerId = "A85C0A33-2487-4E47-AED8-78B93E482A34";
name = "Regular Italic";
paths = (
{
closed = 1;
nodes = (
"593 -15 OFFCURVE",
"768 131 OFFCURVE",
"815 349 CURVE SMOOTH",
"829 418 OFFCURVE",
"826 480 OFFCURVE",
"808 532 CURVE",
"892 553 OFFCURVE",
"953 622 OFFCURVE",
"971 705 CURVE SMOOTH",
"980 747 LINE",
"863 747 LINE",
"856 712 LINE SMOOTH",
"842 646 OFFCURVE",
"819 626 OFFCURVE",
"751 626 CURVE",
"697 682 OFFCURVE",
"617 714 OFFCURVE",
"522 714 CURVE SMOOTH",
"301 714 OFFCURVE",
"120 568 OFFCURVE",
"74 349 CURVE SMOOTH",
"27 131 OFFCURVE",
"157 -15 OFFCURVE",
"367 -15 CURVE SMOOTH"
);
},
{
closed = 1;
nodes = (
"363 -179 OFFCURVE",
"399 -150 OFFCURVE",
"406 -113 CURVE SMOOTH",
"414 -76 OFFCURVE",
"391 -46 OFFCURVE",
"356 -46 CURVE SMOOTH",
"320 -46 OFFCURVE",
"282 -76 OFFCURVE",
"274 -113 CURVE SMOOTH",
"267 -150 OFFCURVE",
"291 -179 OFFCURVE",
"327 -179 CURVE SMOOTH"
);
},
{
closed = 1;
nodes = (
"221 100 OFFCURVE",
"169 195 OFFCURVE",
"202 349 CURVE SMOOTH",
"234 501 OFFCURVE",
"362 598 OFFCURVE",
"498 598 CURVE SMOOTH",
"666 598 OFFCURVE",
"719 501 OFFCURVE",
"687 349 CURVE SMOOTH",
"654 195 OFFCURVE",
"525 100 OFFCURVE",
"392 100 CURVE SMOOTH"
);
}
);
width = 872;
}
);
leftKerningGroup = O;
note = Ohorndotbelow;
rightKerningGroup = O;
unicode = 1EE2;
},
{
glyphname = Ohorngrave;
lastChange = "2015-10-28 10:23:47 +0000";
layers = (
{
layerId = "A85C0A33-2487-4E47-AED8-78B93E482A34";
name = "Regular Italic";
paths = (
{
closed = 1;
nodes = (
"593 -15 OFFCURVE",
"768 131 OFFCURVE",
"815 349 CURVE SMOOTH",
"829 418 OFFCURVE",
"826 480 OFFCURVE",
"808 532 CURVE",
"892 553 OFFCURVE",
"953 622 OFFCURVE",
"971 705 CURVE SMOOTH",
"980 747 LINE",
"863 747 LINE",
"856 712 LINE SMOOTH",
"842 646 OFFCURVE",
"819 626 OFFCURVE",
"751 626 CURVE",
"697 682 OFFCURVE",
"617 714 OFFCURVE",
"522 714 CURVE SMOOTH",
"301 714 OFFCURVE",
"120 568 OFFCURVE",
"74 349 CURVE SMOOTH",
"27 131 OFFCURVE",
"157 -15 OFFCURVE",
"367 -15 CURVE SMOOTH"
);
},
{
closed = 1;
nodes = (
"221 100 OFFCURVE",
"169 195 OFFCURVE",
"202 349 CURVE SMOOTH",
"234 501 OFFCURVE",
"362 598 OFFCURVE",
"498 598 CURVE SMOOTH",
"666 598 OFFCURVE",
"719 501 OFFCURVE",
"687 349 CURVE SMOOTH",
"654 195 OFFCURVE",
"525 100 OFFCURVE",
"392 100 CURVE SMOOTH"
);
},
{
closed = 1;
nodes = (
"557 742 LINE",
"525 916 LINE",
"392 916 LINE",
"441 742 LINE"
);
}
);
width = 872;
}
);
leftKerningGroup = O;
note = Ohorngrave;
rightKerningGroup = O;
unicode = 1EDC;
},
{
glyphname = Ohornhookabove;
lastChange = "2015-10-28 10:23:48 +0000";
layers = (
{
layerId = "A85C0A33-2487-4E47-AED8-78B93E482A34";
name = "Regular Italic";
paths = (
{
closed = 1;
nodes = (
"593 -15 OFFCURVE",
"768 131 OFFCURVE",
"815 349 CURVE SMOOTH",
"829 418 OFFCURVE",
"826 480 OFFCURVE",
"808 532 CURVE",
"892 553 OFFCURVE",
"953 622 OFFCURVE",
"971 705 CURVE SMOOTH",
"980 747 LINE",
"863 747 LINE",
"856 712 LINE SMOOTH",
"842 646 OFFCURVE",
"819 626 OFFCURVE",
"751 626 CURVE",
"697 682 OFFCURVE",
"617 714 OFFCURVE",
"522 714 CURVE SMOOTH",
"301 714 OFFCURVE",
"120 568 OFFCURVE",
"74 349 CURVE SMOOTH",
"27 131 OFFCURVE",
"157 -15 OFFCURVE",
"367 -15 CURVE SMOOTH"
);
},
{
closed = 1;
nodes = (
"221 100 OFFCURVE",
"169 195 OFFCURVE",
"202 349 CURVE SMOOTH",
"234 501 OFFCURVE",
"362 598 OFFCURVE",
"498 598 CURVE SMOOTH",
"666 598 OFFCURVE",
"719 501 OFFCURVE",
"687 349 CURVE SMOOTH",
"654 195 OFFCURVE",
"525 100 OFFCURVE",
"392 100 CURVE SMOOTH"
);
},
{
closed = 1;
nodes = (
"562 742 LINE",
"569 776 LINE",
"630 785 OFFCURVE",
"670 822 OFFCURVE",
"680 870 CURVE SMOOTH",
"693 929 OFFCURVE",
"655 970 OFFCURVE",
"561 970 CURVE SMOOTH",
"525 970 OFFCURVE",
"485 963 OFFCURVE",
"460 956 CURVE",
"446 890 LINE",
"461 896 OFFCURVE",
"499 902 OFFCURVE",
"515 902 CURVE SMOOTH",
"560 902 OFFCURVE",
"574 891 OFFCURVE",
"569 865 CURVE SMOOTH",
"561 827 OFFCURVE",
"524 816 OFFCURVE",
"468 816 CURVE",
"452 742 LINE"
);
}
);
width = 872;
}
);
leftKerningGroup = O;
note = Ohornhookabove;
rightKerningGroup = O;
unicode = 1EDE;
},
{
glyphname = Ohorntilde;
lastChange = "2015-10-28 10:23:48 +0000";
layers = (
{
layerId = "A85C0A33-2487-4E47-AED8-78B93E482A34";
name = "Regular Italic";
paths = (
{
closed = 1;
nodes = (
"593 -15 OFFCURVE",
"768 131 OFFCURVE",
"815 349 CURVE SMOOTH",
"829 418 OFFCURVE",
"826 480 OFFCURVE",
"808 532 CURVE",
"892 553 OFFCURVE",
"953 622 OFFCURVE",
"971 705 CURVE SMOOTH",
"980 747 LINE",
"863 747 LINE",
"856 712 LINE SMOOTH",
"842 646 OFFCURVE",
"819 626 OFFCURVE",
"751 626 CURVE",
"697 682 OFFCURVE",
"617 714 OFFCURVE",
"522 714 CURVE SMOOTH",
"301 714 OFFCURVE",
"120 568 OFFCURVE",
"74 349 CURVE SMOOTH",
"27 131 OFFCURVE",
"157 -15 OFFCURVE",
"367 -15 CURVE SMOOTH"
);
},
{
closed = 1;
nodes = (
"221 100 OFFCURVE",
"169 195 OFFCURVE",
"202 349 CURVE SMOOTH",
"234 501 OFFCURVE",
"362 598 OFFCURVE",
"498 598 CURVE SMOOTH",
"666 598 OFFCURVE",
"719 501 OFFCURVE",
"687 349 CURVE SMOOTH",
"654 195 OFFCURVE",
"525 100 OFFCURVE",
"392 100 CURVE SMOOTH"
);
},
{
closed = 1;
nodes = (
"367 781 OFFCURVE",
"402 794 OFFCURVE",
"439 794 CURVE SMOOTH",
"503 794 OFFCURVE",
"545 744 OFFCURVE",
"618 744 CURVE SMOOTH",
"660 744 OFFCURVE",
"697 755 OFFCURVE",
"726 786 CURVE",
"748 889 LINE",
"712 851 OFFCURVE",
"676 838 OFFCURVE",
"638 838 CURVE SMOOTH",
"573 838 OFFCURVE",
"527 888 OFFCURVE",
"459 888 CURVE SMOOTH",
"418 888 OFFCURVE",
"380 876 OFFCURVE",
"350 845 CURVE",
"328 742 LINE"
);
}
);
width = 872;
}
);
leftKerningGroup = O;
note = Ohorntilde;
rightKerningGroup = O;
unicode = 1EE0;
},
{
glyphname = Ohungarumlaut;
lastChange = "2015-10-28 10:23:47 +0000";
layers = (
{
layerId = "A85C0A33-2487-4E47-AED8-78B93E482A34";
name = "Regular Italic";
paths = (
{
closed = 1;
nodes = (
"593 -15 OFFCURVE",
"768 131 OFFCURVE",
"815 349 CURVE SMOOTH",
"861 568 OFFCURVE",
"726 714 OFFCURVE",
"522 714 CURVE SMOOTH",
"301 714 OFFCURVE",
"120 568 OFFCURVE",
"74 349 CURVE SMOOTH",
"27 131 OFFCURVE",
"157 -15 OFFCURVE",
"367 -15 CURVE SMOOTH"
);
},
{
closed = 1;
nodes = (
"221 100 OFFCURVE",
"169 195 OFFCURVE",
"202 349 CURVE SMOOTH",
"234 501 OFFCURVE",
"362 598 OFFCURVE",
"498 598 CURVE SMOOTH",
"666 598 OFFCURVE",
"719 501 OFFCURVE",
"687 349 CURVE SMOOTH",
"654 195 OFFCURVE",
"525 100 OFFCURVE",
"392 100 CURVE SMOOTH"
);
},
{
closed = 1;
nodes = (
"438 742 LINE",
"561 916 LINE",
"438 916 LINE",
"333 742 LINE"
);
},
{
closed = 1;
nodes = (
"661 742 LINE",
"784 916 LINE",
"662 916 LINE",
"555 742 LINE"
);
}
);
width = 821;
}
);
leftKerningGroup = O;
note = Ohungarumlaut;
rightKerningGroup = O;
unicode = 0150;
},
{
glyphname = Omacron;
lastChange = "2015-10-28 10:23:47 +0000";
layers = (
{
layerId = "A85C0A33-2487-4E47-AED8-78B93E482A34";
name = "Regular Italic";
paths = (
{
closed = 1;
nodes = (
"593 -15 OFFCURVE",
"768 131 OFFCURVE",
"815 349 CURVE SMOOTH",
"861 568 OFFCURVE",
"726 714 OFFCURVE",
"522 714 CURVE SMOOTH",
"301 714 OFFCURVE",
"120 568 OFFCURVE",
"74 349 CURVE SMOOTH",
"27 131 OFFCURVE",
"157 -15 OFFCURVE",
"367 -15 CURVE SMOOTH"
);
},
{
closed = 1;
nodes = (
"221 100 OFFCURVE",
"169 195 OFFCURVE",
"202 349 CURVE SMOOTH",
"234 501 OFFCURVE",
"362 598 OFFCURVE",
"498 598 CURVE SMOOTH",
"666 598 OFFCURVE",
"719 501 OFFCURVE",
"687 349 CURVE SMOOTH",
"654 195 OFFCURVE",
"525 100 OFFCURVE",
"392 100 CURVE SMOOTH"
);
},
{
closed = 1;
nodes = (
"671 752 LINE",
"689 836 LINE",
"367 836 LINE",
"349 752 LINE"
);
}
);
width = 821;
}
);
leftKerningGroup = O;
note = Omacron;
rightKerningGroup = O;
unicode = 014C;
},
{
glyphname = Oslash;
lastChange = "2015-10-28 10:23:48 +0000";
layers = (
{
layerId = "A85C0A33-2487-4E47-AED8-78B93E482A34";
name = "Regular Italic";
paths = (
{
closed = 1;
nodes = (
"240 -86 LINE",
"288 -7 LINE",
"312 -12 OFFCURVE",
"339 -15 OFFCURVE",
"367 -15 CURVE SMOOTH",
"593 -15 OFFCURVE",
"769 131 OFFCURVE",
"815 349 CURVE SMOOTH",
"846 493 OFFCURVE",
"797 605 OFFCURVE",
"702 665 CURVE",
"775 784 LINE",
"651 784 LINE",
"603 706 LINE",
"577 711 OFFCURVE",
"550 714 OFFCURVE",
"522 714 CURVE SMOOTH",
"301 714 OFFCURVE",
"121 568 OFFCURVE",
"74 349 CURVE SMOOTH",
"43 203 OFFCURVE",
"90 90 OFFCURVE",
"187 30 CURVE",
"116 -86 LINE"
);
},
{
closed = 1;
nodes = (
"194 176 OFFCURVE",
"181 250 OFFCURVE",
"202 349 CURVE SMOOTH",
"234 501 OFFCURVE",
"362 598 OFFCURVE",
"498 598 CURVE SMOOTH",
"511 598 OFFCURVE",
"523 597 OFFCURVE",
"535 596 CURVE",
"252 135 LINE"
);
},
{
closed = 1;
nodes = (
"379 100 OFFCURVE",
"366 100 OFFCURVE",
"355 101 CURVE",
"638 561 LINE",
"693 519 OFFCURVE",
"707 445 OFFCURVE",
"687 349 CURVE SMOOTH",
"654 195 OFFCURVE",
"525 100 OFFCURVE",
"392 100 CURVE SMOOTH"
);
}
);
width = 821;
}
);
leftKerningGroup = O;
note = Oslash;
rightKerningGroup = O;
unicode = 00D8;
},
{
glyphname = Oslashacute;
lastChange = "2015-10-28 10:23:47 +0000";
layers = (
{
layerId = "A85C0A33-2487-4E47-AED8-78B93E482A34";
name = "Regular Italic";
paths = (
{
closed = 1;
nodes = (
"240 -86 LINE",
"288 -7 LINE",
"312 -12 OFFCURVE",
"339 -15 OFFCURVE",
"367 -15 CURVE SMOOTH",
"593 -15 OFFCURVE",
"769 131 OFFCURVE",
"815 349 CURVE SMOOTH",
"846 493 OFFCURVE",
"797 605 OFFCURVE",
"702 665 CURVE",
"775 784 LINE",
"651 784 LINE",
"603 706 LINE",
"577 711 OFFCURVE",
"550 714 OFFCURVE",
"522 714 CURVE SMOOTH",
"301 714 OFFCURVE",
"121 568 OFFCURVE",
"74 349 CURVE SMOOTH",
"43 203 OFFCURVE",
"90 90 OFFCURVE",
"187 30 CURVE",
"116 -86 LINE"
);
},
{
closed = 1;
nodes = (
"194 176 OFFCURVE",
"181 250 OFFCURVE",
"202 349 CURVE SMOOTH",
"234 501 OFFCURVE",
"362 598 OFFCURVE",
"498 598 CURVE SMOOTH",
"511 598 OFFCURVE",
"523 597 OFFCURVE",
"535 596 CURVE",
"252 135 LINE"
);
},
{
closed = 1;
nodes = (
"379 100 OFFCURVE",
"366 100 OFFCURVE",
"355 101 CURVE",
"638 561 LINE",
"693 519 OFFCURVE",
"707 445 OFFCURVE",
"687 349 CURVE SMOOTH",
"654 195 OFFCURVE",
"525 100 OFFCURVE",
"392 100 CURVE SMOOTH"
);
},
{
closed = 1;
nodes = (
"564 742 LINE",
"687 916 LINE",
"554 916 LINE",
"448 742 LINE"
);
}
);
width = 821;
}
);
leftKerningGroup = O;
note = Oslashacute;
rightKerningGroup = O;
unicode = 01FE;
},
{
glyphname = Otilde;
lastChange = "2015-10-28 10:23:47 +0000";
layers = (
{
layerId = "A85C0A33-2487-4E47-AED8-78B93E482A34";
name = "Regular Italic";
paths = (
{
closed = 1;
nodes = (
"593 -15 OFFCURVE",
"768 131 OFFCURVE",
"815 349 CURVE SMOOTH",
"861 568 OFFCURVE",
"726 714 OFFCURVE",
"522 714 CURVE SMOOTH",
"301 714 OFFCURVE",
"120 568 OFFCURVE",
"74 349 CURVE SMOOTH",
"27 131 OFFCURVE",
"157 -15 OFFCURVE",
"367 -15 CURVE SMOOTH"
);
},
{
closed = 1;
nodes = (
"221 100 OFFCURVE",
"169 195 OFFCURVE",
"202 349 CURVE SMOOTH",
"234 501 OFFCURVE",
"362 598 OFFCURVE",
"498 598 CURVE SMOOTH",
"666 598 OFFCURVE",
"719 501 OFFCURVE",
"687 349 CURVE SMOOTH",
"654 195 OFFCURVE",
"525 100 OFFCURVE",
"392 100 CURVE SMOOTH"
);
},
{
closed = 1;
nodes = (
"353 781 OFFCURVE",
"388 794 OFFCURVE",
"425 794 CURVE SMOOTH",
"489 794 OFFCURVE",
"531 744 OFFCURVE",
"604 744 CURVE SMOOTH",
"646 744 OFFCURVE",
"683 755 OFFCURVE",
"712 786 CURVE",
"734 889 LINE",
"698 851 OFFCURVE",
"662 838 OFFCURVE",
"624 838 CURVE SMOOTH",
"559 838 OFFCURVE",
"513 888 OFFCURVE",
"445 888 CURVE SMOOTH",
"404 888 OFFCURVE",
"366 876 OFFCURVE",
"336 845 CURVE",
"314 742 LINE"
);
}
);
width = 821;
}
);
leftKerningGroup = O;
note = Otilde;
rightKerningGroup = O;
unicode = 00D5;
},
{
glyphname = OE;
lastChange = "2015-10-28 10:23:48 +0000";
layers = (
{
layerId = "A85C0A33-2487-4E47-AED8-78B93E482A34";
name = "Regular Italic";
paths = (
{
closed = 1;
nodes = (
"814 0 LINE",
"836 105 LINE",
"536 105 LINE",
"577 297 LINE",
"788 297 LINE",
"810 402 LINE",
"599 402 LINE",
"640 594 LINE",
"940 594 LINE",
"962 699 LINE",
"531 699 LINE SMOOTH",
"292 699 OFFCURVE",
"120 568 OFFCURVE",
"74 349 CURVE SMOOTH",
"27 131 OFFCURVE",
"178 0 OFFCURVE",
"383 0 CURVE SMOOTH"
);
},
{
closed = 1;
nodes = (
"236 105 OFFCURVE",
"169 197 OFFCURVE",
"202 349 CURVE SMOOTH",
"234 500 OFFCURVE",
"357 594 OFFCURVE",
"500 594 CURVE SMOOTH",
"513 594 LINE",
"409 105 LINE",
"396 105 LINE SMOOTH"
);
}
);
width = 894;
}
);
leftKerningGroup = O;
note = OE;
rightKerningGroup = E;
unicode = 0152;
},
{
glyphname = P;
lastChange = "2015-10-28 10:23:47 +0000";
layers = (
{
layerId = "A85C0A33-2487-4E47-AED8-78B93E482A34";
name = "Regular Italic";
paths = (
{
closed = 1;
nodes = (
"147 0 LINE",
"199 246 LINE",
"351 246 LINE SMOOTH",
"511 246 OFFCURVE",
"622 321 OFFCURVE",
"654 471 CURVE SMOOTH",
"683 607 OFFCURVE",
"592 699 OFFCURVE",
"448 699 CURVE SMOOTH",
"168 699 LINE",
"20 0 LINE"
);
},
{
closed = 1;
nodes = (
"273 594 LINE",
"410 594 LINE SMOOTH",
"504 594 OFFCURVE",
"547 567 OFFCURVE",
"527 471 CURVE SMOOTH",
"507 377 OFFCURVE",
"435 351 OFFCURVE",
"358 351 CURVE SMOOTH",
"221 351 LINE"
);
}
);
width = 614;
}
);
note = P;
unicode = 0050;
},
{
glyphname = Thorn;
lastChange = "2015-10-28 10:23:48 +0000";
layers = (
{
layerId = "A85C0A33-2487-4E47-AED8-78B93E482A34";
name = "Regular Italic";
paths = (
{
closed = 1;
nodes = (
"147 0 LINE",
"175 133 LINE",
"336 133 LINE SMOOTH",
"499 133 OFFCURVE",
"597 201 OFFCURVE",
"628 351 CURVE SMOOTH",
"657 491 OFFCURVE",
"567 570 OFFCURVE",
"429 570 CURVE SMOOTH",
"268 570 LINE",
"295 699 LINE",
"168 699 LINE",
"20 0 LINE"
);
},
{
closed = 1;
nodes = (
"245 465 LINE",
"393 465 LINE SMOOTH",
"470 465 OFFCURVE",
"521 446 OFFCURVE",
"501 351 CURVE SMOOTH",
"481 257 OFFCURVE",
"411 238 OFFCURVE",
"334 238 CURVE SMOOTH",
"197 238 LINE"
);
}
);
width = 614;
}
);
note = Thorn;
unicode = 00DE;
},
{
glyphname = Q;
lastChange = "2015-10-28 10:23:47 +0000";
layers = (
{
layerId = "A85C0A33-2487-4E47-AED8-78B93E482A34";
name = "Regular Italic";
paths = (
{
closed = 1;
nodes = (
"754 0 LINE",
"777 111 LINE",
"649 111 LINE",
"727 161 OFFCURVE",
"794 254 OFFCURVE",
"815 352 CURVE SMOOTH",
"862 571 OFFCURVE",
"731 714 OFFCURVE",
"522 714 CURVE SMOOTH",
"295 714 OFFCURVE",
"119 571 OFFCURVE",
"74 352 CURVE SMOOTH",
"31 142 OFFCURVE",
"158 0 OFFCURVE",
"387 0 CURVE SMOOTH"
);
},
{
closed = 1;
nodes = (
"230 115 OFFCURVE",
"170 198 OFFCURVE",
"202 352 CURVE SMOOTH",
"235 504 OFFCURVE",
"357 598 OFFCURVE",
"498 598 CURVE SMOOTH",
"658 598 OFFCURVE",
"720 504 OFFCURVE",
"687 352 CURVE SMOOTH",
"655 199 OFFCURVE",
"540 115 OFFCURVE",
"395 115 CURVE SMOOTH"
);
}
);
width = 814;
}
);
leftKerningGroup = O;
note = Q;
rightKerningGroup = O;
unicode = 0051;
},
{
glyphname = R;
lastChange = "2015-10-28 10:23:48 +0000";
layers = (
{
layerId = "A85C0A33-2487-4E47-AED8-78B93E482A34";
name = "Regular Italic";
paths = (
{
closed = 1;
nodes = (
"147 0 LINE",
"201 256 LINE",
"339 256 LINE",
"420 0 LINE",
"550 0 LINE",
"464 269 LINE",
"564 299 OFFCURVE",
"632 374 OFFCURVE",
"655 477 CURVE SMOOTH",
"686 622 OFFCURVE",
"613 699 OFFCURVE",
"460 699 CURVE SMOOTH",
"168 699 LINE",
"20 0 LINE"
);
},
{
closed = 1;
nodes = (
"273 594 LINE",
"421 594 LINE SMOOTH",
"505 594 OFFCURVE",
"547 567 OFFCURVE",
"528 477 CURVE SMOOTH",
"511 397 OFFCURVE",
"458 361 OFFCURVE",
"365 361 CURVE SMOOTH",
"223 361 LINE"
);
}
);
width = 634;
}
);
note = R;
rightKerningGroup = R;
unicode = 0052;
},
{
glyphname = Racute;
lastChange = "2015-10-28 10:23:48 +0000";
layers = (
{
layerId = "A85C0A33-2487-4E47-AED8-78B93E482A34";
name = "Regular Italic";
paths = (
{
closed = 1;
nodes = (
"147 0 LINE",
"201 256 LINE",
"339 256 LINE",
"420 0 LINE",
"550 0 LINE",
"464 269 LINE",
"564 299 OFFCURVE",
"632 374 OFFCURVE",
"655 477 CURVE SMOOTH",
"686 622 OFFCURVE",
"613 699 OFFCURVE",
"460 699 CURVE SMOOTH",
"168 699 LINE",
"20 0 LINE"
);
},
{
closed = 1;
nodes = (
"273 594 LINE",
"421 594 LINE SMOOTH",
"505 594 OFFCURVE",
"547 567 OFFCURVE",
"528 477 CURVE SMOOTH",
"511 397 OFFCURVE",
"458 361 OFFCURVE",
"365 361 CURVE SMOOTH",
"223 361 LINE"
);
},
{
closed = 1;
nodes = (
"433 742 LINE",
"556 916 LINE",
"423 916 LINE",
"317 742 LINE"
);
}
);
width = 634;
}
);
note = Racute;
rightKerningGroup = R;
unicode = 0154;
},
{
glyphname = Rcaron;
lastChange = "2015-10-28 10:23:48 +0000";
layers = (
{
layerId = "A85C0A33-2487-4E47-AED8-78B93E482A34";
name = "Regular Italic";
paths = (
{
closed = 1;
nodes = (
"147 0 LINE",
"201 256 LINE",
"339 256 LINE",
"420 0 LINE",
"550 0 LINE",
"464 269 LINE",
"564 299 OFFCURVE",
"632 374 OFFCURVE",
"655 477 CURVE SMOOTH",
"686 622 OFFCURVE",
"613 699 OFFCURVE",
"460 699 CURVE SMOOTH",
"168 699 LINE",
"20 0 LINE"
);
},
{
closed = 1;
nodes = (
"273 594 LINE",
"421 594 LINE SMOOTH",
"505 594 OFFCURVE",
"547 567 OFFCURVE",
"528 477 CURVE SMOOTH",
"511 397 OFFCURVE",
"458 361 OFFCURVE",
"365 361 CURVE SMOOTH",
"223 361 LINE"
);
},
{
closed = 1;
nodes = (
"423 742 LINE",
"606 913 LINE",
"474 913 LINE",
"376 813 LINE",
"322 913 LINE",
"202 913 LINE",
"311 742 LINE"
);
}
);
width = 634;
}
);
note = Rcaron;
rightKerningGroup = R;
unicode = 0158;
},
{
glyphname = Rcommaaccent;
lastChange = "2015-10-28 10:23:47 +0000";
layers = (
{
layerId = "A85C0A33-2487-4E47-AED8-78B93E482A34";
name = "Regular Italic";
paths = (
{
closed = 1;
nodes = (
"147 0 LINE",
"201 256 LINE",
"339 256 LINE",
"420 0 LINE",
"550 0 LINE",
"464 269 LINE",
"564 299 OFFCURVE",
"632 374 OFFCURVE",
"655 477 CURVE SMOOTH",
"686 622 OFFCURVE",
"613 699 OFFCURVE",
"460 699 CURVE SMOOTH",
"168 699 LINE",
"20 0 LINE"
);
},
{
closed = 1;
nodes = (
"183 -259 LINE",
"325 -56 LINE",
"194 -56 LINE",
"69 -259 LINE"
);
},
{
closed = 1;
nodes = (
"273 594 LINE",
"421 594 LINE SMOOTH",
"505 594 OFFCURVE",
"547 567 OFFCURVE",
"528 477 CURVE SMOOTH",
"511 397 OFFCURVE",
"458 361 OFFCURVE",
"365 361 CURVE SMOOTH",
"223 361 LINE"
);
}
);
width = 634;
}
);
note = Rcommaaccent;
rightKerningGroup = R;
unicode = 0156;
},
{
glyphname = Rdotbelow;
lastChange = "2015-10-28 10:23:47 +0000";
layers = (
{
layerId = "A85C0A33-2487-4E47-AED8-78B93E482A34";
name = "Regular Italic";
paths = (
{
closed = 1;
nodes = (
"147 0 LINE",
"201 256 LINE",
"339 256 LINE",
"420 0 LINE",
"550 0 LINE",
"464 269 LINE",
"564 299 OFFCURVE",
"632 374 OFFCURVE",
"655 477 CURVE SMOOTH",
"686 622 OFFCURVE",
"613 699 OFFCURVE",
"460 699 CURVE SMOOTH",
"168 699 LINE",
"20 0 LINE"
);
},
{
closed = 1;
nodes = (
"264 -179 OFFCURVE",
"300 -150 OFFCURVE",
"307 -113 CURVE SMOOTH",
"315 -76 OFFCURVE",
"292 -46 OFFCURVE",
"257 -46 CURVE SMOOTH",
"221 -46 OFFCURVE",
"183 -76 OFFCURVE",
"175 -113 CURVE SMOOTH",
"168 -150 OFFCURVE",
"192 -179 OFFCURVE",
"228 -179 CURVE SMOOTH"
);
},
{
closed = 1;
nodes = (
"273 594 LINE",
"421 594 LINE SMOOTH",
"505 594 OFFCURVE",
"547 567 OFFCURVE",
"528 477 CURVE SMOOTH",
"511 397 OFFCURVE",
"458 361 OFFCURVE",
"365 361 CURVE SMOOTH",
"223 361 LINE"
);
}
);
width = 634;
}
);
note = Rdotbelow;
rightKerningGroup = R;
unicode = 1E5A;
},
{
glyphname = Rdotbelowmacron;
lastChange = "2015-10-28 10:23:47 +0000";
layers = (
{
layerId = "A85C0A33-2487-4E47-AED8-78B93E482A34";
name = "Regular Italic";
paths = (
{
closed = 1;
nodes = (
"147 0 LINE",
"201 256 LINE",
"339 256 LINE",
"420 0 LINE",
"550 0 LINE",
"464 269 LINE",
"564 299 OFFCURVE",
"632 374 OFFCURVE",
"655 477 CURVE SMOOTH",
"686 622 OFFCURVE",
"613 699 OFFCURVE",
"460 699 CURVE SMOOTH",
"168 699 LINE",
"20 0 LINE"
);
},
{
closed = 1;
nodes = (
"244 -179 OFFCURVE",
"280 -150 OFFCURVE",
"287 -113 CURVE SMOOTH",
"295 -76 OFFCURVE",
"272 -46 OFFCURVE",
"237 -46 CURVE SMOOTH",
"201 -46 OFFCURVE",
"163 -76 OFFCURVE",
"155 -113 CURVE SMOOTH",
"148 -150 OFFCURVE",
"172 -179 OFFCURVE",
"208 -179 CURVE SMOOTH"
);
},
{
closed = 1;
nodes = (
"273 594 LINE",
"421 594 LINE SMOOTH",
"505 594 OFFCURVE",
"547 567 OFFCURVE",
"528 477 CURVE SMOOTH",
"511 397 OFFCURVE",
"458 361 OFFCURVE",
"365 361 CURVE SMOOTH",
"223 361 LINE"
);
},
{
closed = 1;
nodes = (
"545 752 LINE",
"563 836 LINE",
"241 836 LINE",
"223 752 LINE"
);
}
);
width = 634;
}
);
note = Rdotbelowmacron;
rightKerningGroup = R;
unicode = 1E5C;
},
{
glyphname = Rlinebelow;
lastChange = "2015-10-28 10:23:48 +0000";
layers = (
{
layerId = "A85C0A33-2487-4E47-AED8-78B93E482A34";
name = "Regular Italic";
paths = (
{
closed = 1;
nodes = (
"147 0 LINE",
"201 256 LINE",
"339 256 LINE",
"420 0 LINE",
"550 0 LINE",
"464 269 LINE",
"564 299 OFFCURVE",
"632 374 OFFCURVE",
"655 477 CURVE SMOOTH",
"686 622 OFFCURVE",
"613 699 OFFCURVE",
"460 699 CURVE SMOOTH",
"168 699 LINE",
"20 0 LINE"
);
},
{
closed = 1;
nodes = (
"393 -151 LINE",
"411 -68 LINE",
"89 -68 LINE",
"71 -151 LINE"
);
},
{
closed = 1;
nodes = (
"273 594 LINE",
"421 594 LINE SMOOTH",
"505 594 OFFCURVE",
"547 567 OFFCURVE",
"528 477 CURVE SMOOTH",
"511 397 OFFCURVE",
"458 361 OFFCURVE",
"365 361 CURVE SMOOTH",
"223 361 LINE"
);
}
);
width = 634;
}
);
note = Rlinebelow;
rightKerningGroup = R;
unicode = 1E5E;
},
{
glyphname = S;
lastChange = "2015-10-28 10:23:47 +0000";
layers = (
{
layerId = "A85C0A33-2487-4E47-AED8-78B93E482A34";
name = "Regular Italic";
paths = (
{
closed = 1;
nodes = (
"404 -15 OFFCURVE",
"499 60 OFFCURVE",
"525 181 CURVE SMOOTH",
"548 291 OFFCURVE",
"487 342 OFFCURVE",
"378 392 CURVE SMOOTH",
"277 438 OFFCURVE",
"237 456 OFFCURVE",
"251 521 CURVE SMOOTH",
"264 579 OFFCURVE",
"319 611 OFFCURVE",
"404 611 CURVE SMOOTH",
"465 611 OFFCURVE",
"519 597 OFFCURVE",
"571 569 CURVE",
"594 675 LINE",
"541 702 OFFCURVE",
"484 714 OFFCURVE",
"404 714 CURVE SMOOTH",
"256 714 OFFCURVE",
"141 636 OFFCURVE",
"116 521 CURVE SMOOTH",
"95 422 OFFCURVE",
"154 358 OFFCURVE",
"257 313 CURVE SMOOTH",
"363 267 OFFCURVE",
"402 246 OFFCURVE",
"388 182 CURVE SMOOTH",
"376 125 OFFCURVE",
"326 88 OFFCURVE",
"231 88 CURVE SMOOTH",
"161 88 OFFCURVE",
"90 103 OFFCURVE",
"28 136 CURVE",
"5 27 LINE",
"52 1 OFFCURVE",
"136 -15 OFFCURVE",
"218 -15 CURVE SMOOTH"
);
}
);
width = 567;
}
);
leftKerningGroup = S;
note = S;
rightKerningGroup = S;
unicode = 0053;
},
{
glyphname = Sacute;
lastChange = "2015-10-28 10:23:48 +0000";
layers = (
{
layerId = "A85C0A33-2487-4E47-AED8-78B93E482A34";
name = "Regular Italic";
paths = (
{
closed = 1;
nodes = (
"404 -15 OFFCURVE",
"499 60 OFFCURVE",
"525 181 CURVE SMOOTH",
"548 291 OFFCURVE",
"487 342 OFFCURVE",
"378 392 CURVE SMOOTH",
"277 438 OFFCURVE",
"237 456 OFFCURVE",
"251 521 CURVE SMOOTH",
"264 579 OFFCURVE",
"319 611 OFFCURVE",
"404 611 CURVE SMOOTH",
"465 611 OFFCURVE",
"519 597 OFFCURVE",
"571 569 CURVE",
"594 675 LINE",
"541 702 OFFCURVE",
"484 714 OFFCURVE",
"404 714 CURVE SMOOTH",
"256 714 OFFCURVE",
"141 636 OFFCURVE",
"116 521 CURVE SMOOTH",
"95 422 OFFCURVE",
"154 358 OFFCURVE",
"257 313 CURVE SMOOTH",
"363 267 OFFCURVE",
"402 246 OFFCURVE",
"388 182 CURVE SMOOTH",
"376 125 OFFCURVE",
"326 88 OFFCURVE",
"231 88 CURVE SMOOTH",
"161 88 OFFCURVE",
"90 103 OFFCURVE",
"28 136 CURVE",
"5 27 LINE",
"52 1 OFFCURVE",
"136 -15 OFFCURVE",
"218 -15 CURVE SMOOTH"
);
},
{
closed = 1;
nodes = (
"434 742 LINE",
"557 916 LINE",
"424 916 LINE",
"318 742 LINE"
);
}
);
width = 567;
}
);
leftKerningGroup = S;
note = Sacute;
rightKerningGroup = S;
unicode = 015A;
},
{
glyphname = Scaron;
lastChange = "2015-10-28 10:23:47 +0000";
layers = (
{
layerId = "A85C0A33-2487-4E47-AED8-78B93E482A34";
name = "Regular Italic";
paths = (
{
closed = 1;
nodes = (
"404 -15 OFFCURVE",
"499 60 OFFCURVE",
"525 181 CURVE SMOOTH",
"548 291 OFFCURVE",
"487 342 OFFCURVE",
"378 392 CURVE SMOOTH",
"277 438 OFFCURVE",
"237 456 OFFCURVE",
"251 521 CURVE SMOOTH",
"264 579 OFFCURVE",
"319 611 OFFCURVE",
"404 611 CURVE SMOOTH",
"465 611 OFFCURVE",
"519 597 OFFCURVE",
"571 569 CURVE",
"594 675 LINE",
"541 702 OFFCURVE",
"484 714 OFFCURVE",
"404 714 CURVE SMOOTH",
"256 714 OFFCURVE",
"141 636 OFFCURVE",
"116 521 CURVE SMOOTH",
"95 422 OFFCURVE",
"154 358 OFFCURVE",
"257 313 CURVE SMOOTH",
"363 267 OFFCURVE",
"402 246 OFFCURVE",
"388 182 CURVE SMOOTH",
"376 125 OFFCURVE",
"326 88 OFFCURVE",
"231 88 CURVE SMOOTH",
"161 88 OFFCURVE",
"90 103 OFFCURVE",
"28 136 CURVE",
"5 27 LINE",
"52 1 OFFCURVE",
"136 -15 OFFCURVE",
"218 -15 CURVE SMOOTH"
);
},
{
closed = 1;
nodes = (
"443 742 LINE",
"626 913 LINE",
"494 913 LINE",
"396 813 LINE",
"342 913 LINE",
"222 913 LINE",
"331 742 LINE"
);
}
);
width = 567;
}
);
leftKerningGroup = S;
note = Scaron;
rightKerningGroup = S;
unicode = 0160;
},
{
glyphname = Scedilla;
lastChange = "2015-10-28 10:23:47 +0000";
layers = (
{
layerId = "A85C0A33-2487-4E47-AED8-78B93E482A34";
name = "Regular Italic";
paths = (
{
closed = 1;
nodes = (
"241 -248 OFFCURVE",
"305 -213 OFFCURVE",
"319 -150 CURVE SMOOTH",
"330 -97 OFFCURVE",
"306 -59 OFFCURVE",
"249 -52 CURVE",
"273 -12 LINE",
"423 1 OFFCURVE",
"501 72 OFFCURVE",
"525 181 CURVE SMOOTH",
"548 291 OFFCURVE",
"487 342 OFFCURVE",
"378 392 CURVE SMOOTH",
"277 438 OFFCURVE",
"237 456 OFFCURVE",
"251 521 CURVE SMOOTH",
"264 579 OFFCURVE",
"319 611 OFFCURVE",
"404 611 CURVE SMOOTH",
"465 611 OFFCURVE",
"519 597 OFFCURVE",
"571 569 CURVE",
"594 675 LINE",
"541 702 OFFCURVE",
"484 714 OFFCURVE",
"404 714 CURVE SMOOTH",
"256 714 OFFCURVE",
"141 636 OFFCURVE",
"116 521 CURVE SMOOTH",
"95 422 OFFCURVE",
"154 358 OFFCURVE",
"257 313 CURVE SMOOTH",
"363 267 OFFCURVE",
"402 246 OFFCURVE",
"388 182 CURVE SMOOTH",
"376 125 OFFCURVE",
"326 88 OFFCURVE",
"231 88 CURVE SMOOTH",
"161 88 OFFCURVE",
"90 103 OFFCURVE",
"28 136 CURVE",
"5 27 LINE",
"41 7 OFFCURVE",
"98 -7 OFFCURVE",
"160 -12 CURVE",
"117 -85 LINE",
"190 -85 OFFCURVE",
"212 -108 OFFCURVE",
"205 -138 CURVE SMOOTH",
"199 -166 OFFCURVE",
"175 -179 OFFCURVE",
"137 -179 CURVE SMOOTH",
"117 -179 OFFCURVE",
"95 -174 OFFCURVE",
"82 -167 CURVE",
"66 -236 LINE",
"83 -243 OFFCURVE",
"118 -248 OFFCURVE",
"155 -248 CURVE SMOOTH"
);
}
);
width = 567;
}
);
leftKerningGroup = S;
note = Scedilla;
rightKerningGroup = S;
unicode = 015E;
},
{
glyphname = Scircumflex;
lastChange = "2015-10-28 10:23:47 +0000";
layers = (
{
layerId = "A85C0A33-2487-4E47-AED8-78B93E482A34";
name = "Regular Italic";
paths = (
{
closed = 1;
nodes = (
"404 -15 OFFCURVE",
"499 60 OFFCURVE",
"525 181 CURVE SMOOTH",
"548 291 OFFCURVE",
"487 342 OFFCURVE",
"378 392 CURVE SMOOTH",
"277 438 OFFCURVE",
"237 456 OFFCURVE",
"251 521 CURVE SMOOTH",
"264 579 OFFCURVE",
"319 611 OFFCURVE",
"404 611 CURVE SMOOTH",
"465 611 OFFCURVE",
"519 597 OFFCURVE",
"571 569 CURVE",
"594 675 LINE",
"541 702 OFFCURVE",
"484 714 OFFCURVE",
"404 714 CURVE SMOOTH",
"256 714 OFFCURVE",
"141 636 OFFCURVE",
"116 521 CURVE SMOOTH",
"95 422 OFFCURVE",
"154 358 OFFCURVE",
"257 313 CURVE SMOOTH",
"363 267 OFFCURVE",
"402 246 OFFCURVE",
"388 182 CURVE SMOOTH",
"376 125 OFFCURVE",
"326 88 OFFCURVE",
"231 88 CURVE SMOOTH",
"161 88 OFFCURVE",
"90 103 OFFCURVE",
"28 136 CURVE",
"5 27 LINE",
"52 1 OFFCURVE",
"136 -15 OFFCURVE",
"218 -15 CURVE SMOOTH"
);
},
{
closed = 1;
nodes = (
"302 742 LINE",
"399 841 LINE",
"454 742 LINE",
"575 742 LINE",
"466 913 LINE",
"354 913 LINE",
"171 742 LINE"
);
}
);
width = 567;
}
);
leftKerningGroup = S;
note = Scircumflex;
rightKerningGroup = S;
unicode = 015C;
},
{
glyphname = Scommaaccent;
lastChange = "2015-10-28 10:23:47 +0000";
layers = (
{
layerId = "A85C0A33-2487-4E47-AED8-78B93E482A34";
name = "Regular Italic";
paths = (
{
closed = 1;
nodes = (
"404 -15 OFFCURVE",
"499 60 OFFCURVE",
"525 181 CURVE SMOOTH",
"548 291 OFFCURVE",
"487 342 OFFCURVE",
"378 392 CURVE SMOOTH",
"277 438 OFFCURVE",
"237 456 OFFCURVE",
"251 521 CURVE SMOOTH",
"264 579 OFFCURVE",
"319 611 OFFCURVE",
"404 611 CURVE SMOOTH",
"465 611 OFFCURVE",
"519 597 OFFCURVE",
"571 569 CURVE",
"594 675 LINE",
"541 702 OFFCURVE",
"484 714 OFFCURVE",
"404 714 CURVE SMOOTH",
"256 714 OFFCURVE",
"141 636 OFFCURVE",
"116 521 CURVE SMOOTH",
"95 422 OFFCURVE",
"154 358 OFFCURVE",
"257 313 CURVE SMOOTH",
"363 267 OFFCURVE",
"402 246 OFFCURVE",
"388 182 CURVE SMOOTH",
"376 125 OFFCURVE",
"326 88 OFFCURVE",
"231 88 CURVE SMOOTH",
"161 88 OFFCURVE",
"90 103 OFFCURVE",
"28 136 CURVE",
"5 27 LINE",
"52 1 OFFCURVE",
"136 -15 OFFCURVE",
"218 -15 CURVE SMOOTH"
);
},
{
closed = 1;
nodes = (
"142 -259 LINE",
"283 -56 LINE",
"153 -56 LINE",
"27 -259 LINE"
);
}
);
width = 567;
}
);
leftKerningGroup = S;
note = Scommaaccent;
rightKerningGroup = S;
unicode = 0218;
},
{
glyphname = Sdotaccent;
lastChange = "2015-10-28 10:23:48 +0000";
layers = (
{
layerId = "A85C0A33-2487-4E47-AED8-78B93E482A34";
name = "Regular Italic";
paths = (
{
closed = 1;
nodes = (
"404 -15 OFFCURVE",
"499 60 OFFCURVE",
"525 181 CURVE SMOOTH",
"548 291 OFFCURVE",
"487 342 OFFCURVE",
"378 392 CURVE SMOOTH",
"277 438 OFFCURVE",
"237 456 OFFCURVE",
"251 521 CURVE SMOOTH",
"264 579 OFFCURVE",
"319 611 OFFCURVE",
"404 611 CURVE SMOOTH",
"465 611 OFFCURVE",
"519 597 OFFCURVE",
"571 569 CURVE",
"594 675 LINE",
"541 702 OFFCURVE",
"484 714 OFFCURVE",
"404 714 CURVE SMOOTH",
"256 714 OFFCURVE",
"141 636 OFFCURVE",
"116 521 CURVE SMOOTH",
"95 422 OFFCURVE",
"154 358 OFFCURVE",
"257 313 CURVE SMOOTH",
"363 267 OFFCURVE",
"402 246 OFFCURVE",
"388 182 CURVE SMOOTH",
"376 125 OFFCURVE",
"326 88 OFFCURVE",
"231 88 CURVE SMOOTH",
"161 88 OFFCURVE",
"90 103 OFFCURVE",
"28 136 CURVE",
"5 27 LINE",
"52 1 OFFCURVE",
"136 -15 OFFCURVE",
"218 -15 CURVE SMOOTH"
);
},
{
closed = 1;
nodes = (
"425 752 OFFCURVE",
"462 781 OFFCURVE",
"469 818 CURVE SMOOTH",
"477 855 OFFCURVE",
"454 885 OFFCURVE",
"418 885 CURVE SMOOTH",
"382 885 OFFCURVE",
"344 855 OFFCURVE",
"336 818 CURVE SMOOTH",
"329 781 OFFCURVE",
"353 752 OFFCURVE",
"389 752 CURVE SMOOTH"
);
}
);
width = 567;
}
);
leftKerningGroup = S;
note = Sdotaccent;
rightKerningGroup = S;
unicode = 1E60;
},
{
glyphname = Sdotbelow;
lastChange = "2015-10-28 10:23:47 +0000";
layers = (
{
layerId = "A85C0A33-2487-4E47-AED8-78B93E482A34";
name = "Regular Italic";
paths = (
{
closed = 1;
nodes = (
"404 -15 OFFCURVE",
"499 60 OFFCURVE",
"525 181 CURVE SMOOTH",
"548 291 OFFCURVE",
"487 342 OFFCURVE",
"378 392 CURVE SMOOTH",
"277 438 OFFCURVE",
"237 456 OFFCURVE",
"251 521 CURVE SMOOTH",
"264 579 OFFCURVE",
"319 611 OFFCURVE",
"404 611 CURVE SMOOTH",
"465 611 OFFCURVE",
"519 597 OFFCURVE",
"571 569 CURVE",
"594 675 LINE",
"541 702 OFFCURVE",
"484 714 OFFCURVE",
"404 714 CURVE SMOOTH",
"256 714 OFFCURVE",
"141 636 OFFCURVE",
"116 521 CURVE SMOOTH",
"95 422 OFFCURVE",
"154 358 OFFCURVE",
"257 313 CURVE SMOOTH",
"363 267 OFFCURVE",
"402 246 OFFCURVE",
"388 182 CURVE SMOOTH",
"376 125 OFFCURVE",
"326 88 OFFCURVE",
"231 88 CURVE SMOOTH",
"161 88 OFFCURVE",
"90 103 OFFCURVE",
"28 136 CURVE",
"5 27 LINE",
"52 1 OFFCURVE",
"136 -15 OFFCURVE",
"218 -15 CURVE SMOOTH"
);
},
{
closed = 1;
nodes = (
"227 -179 OFFCURVE",
"263 -150 OFFCURVE",
"270 -113 CURVE SMOOTH",
"278 -76 OFFCURVE",
"255 -46 OFFCURVE",
"220 -46 CURVE SMOOTH",
"184 -46 OFFCURVE",
"146 -76 OFFCURVE",
"138 -113 CURVE SMOOTH",
"131 -150 OFFCURVE",
"155 -179 OFFCURVE",
"191 -179 CURVE SMOOTH"
);
}
);
width = 567;
}
);
leftKerningGroup = S;
note = Sdotbelow;
rightKerningGroup = S;
unicode = 1E62;
},
{
glyphname = Germandbls;
lastChange = "2015-10-28 10:23:47 +0000";
layers = (
{
layerId = "A85C0A33-2487-4E47-AED8-78B93E482A34";
name = "Regular Italic";
paths = (
{
closed = 1;
nodes = (
"476 -15 OFFCURVE",
"573 73 OFFCURVE",
"600 199 CURVE SMOOTH",
"623 307 OFFCURVE",
"593 373 OFFCURVE",
"486 392 CURVE",
"616 502 LINE",
"635 617 OFFCURVE",
"571 714 OFFCURVE",
"413 714 CURVE SMOOTH",
"245 714 OFFCURVE",
"145 616 OFFCURVE",
"112 459 CURVE SMOOTH",
"15 0 LINE",
"141 0 LINE",
"239 463 LINE SMOOTH",
"258 553 OFFCURVE",
"316 598 OFFCURVE",
"389 598 CURVE SMOOTH",
"451 598 OFFCURVE",
"484 564 OFFCURVE",
"486 524 CURVE",
"323 386 LINE",
"307 315 LINE",
"350 315 LINE SMOOTH",
"429 315 OFFCURVE",
"491 289 OFFCURVE",
"473 205 CURVE SMOOTH",
"458 135 OFFCURVE",
"404 100 OFFCURVE",
"322 100 CURVE SMOOTH",
"283 100 OFFCURVE",
"251 106 OFFCURVE",
"225 121 CURVE",
"200 4 LINE",
"230 -10 OFFCURVE",
"278 -15 OFFCURVE",
"326 -15 CURVE SMOOTH"
);
}
);
width = 638;
}
);
note = uni1E9E;
unicode = 1E9E;
},
{
glyphname = Schwa;
lastChange = "2015-10-28 10:23:47 +0000";
layers = (
{
layerId = "A85C0A33-2487-4E47-AED8-78B93E482A34";
name = "Regular Italic";
paths = (
{
closed = 1;
nodes = (
"628 -15 OFFCURVE",
"774 130 OFFCURVE",
"820 351 CURVE SMOOTH",
"866 574 OFFCURVE",
"742 714 OFFCURVE",
"487 714 CURVE SMOOTH",
"384 714 OFFCURVE",
"274 693 OFFCURVE",
"206 668 CURVE",
"185 565 LINE",
"256 591 OFFCURVE",
"359 609 OFFCURVE",
"447 609 CURVE SMOOTH",
"646 609 OFFCURVE",
"710 527 OFFCURVE",
"694 395 CURVE",
"83 395 LINE",
"71 335 LINE SMOOTH",
"29 138 OFFCURVE",
"119 -15 OFFCURVE",
"367 -15 CURVE SMOOTH"
);
},
{
closed = 1;
nodes = (
"212 87 OFFCURVE",
"165 177 OFFCURVE",
"185 300 CURVE",
"675 300 LINE",
"642 177 OFFCURVE",
"548 87 OFFCURVE",
"386 87 CURVE SMOOTH"
);
}
);
width = 826;
}
);
note = uni018F;
unicode = 018F;
},
{
glyphname = T;
lastChange = "2015-10-28 10:23:48 +0000";
layers = (
{
layerId = "A85C0A33-2487-4E47-AED8-78B93E482A34";
name = "Regular Italic";
paths = (
{
closed = 1;
nodes = (
"318 0 LINE",
"444 594 LINE",
"655 594 LINE",
"677 699 LINE",
"128 699 LINE",
"106 594 LINE",
"317 594 LINE",
"191 0 LINE"
);
}
);
width = 589;
}
);
leftKerningGroup = T;
note = T;
rightKerningGroup = T;
unicode = 0054;
},
{
glyphname = Tbar;
lastChange = "2015-10-28 10:23:47 +0000";
layers = (
{
layerId = "A85C0A33-2487-4E47-AED8-78B93E482A34";
name = "Regular Italic";
paths = (
{
closed = 1;
nodes = (
"321 0 LINE",
"380 279 LINE",
"499 279 LINE",
"522 386 LINE",
"402 386 LINE",
"445 587 LINE",
"653 587 LINE",
"677 699 LINE",
"128 699 LINE",
"104 587 LINE",
"312 587 LINE",
"269 386 LINE",
"152 386 LINE",
"129 279 LINE",
"247 279 LINE",
"188 0 LINE"
);
}
);
width = 589;
}
);
leftKerningGroup = T;
note = Tbar;
rightKerningGroup = T;
unicode = 0166;
},
{
glyphname = Tcaron;
lastChange = "2015-10-28 10:23:48 +0000";
layers = (
{
layerId = "A85C0A33-2487-4E47-AED8-78B93E482A34";
name = "Regular Italic";
paths = (
{
closed = 1;
nodes = (
"318 0 LINE",
"444 594 LINE",
"655 594 LINE",
"677 699 LINE",
"128 699 LINE",
"106 594 LINE",
"317 594 LINE",
"191 0 LINE"
);
},
{
closed = 1;
nodes = (
"447 742 LINE",
"630 913 LINE",
"498 913 LINE",
"400 813 LINE",
"346 913 LINE",
"226 913 LINE",
"335 742 LINE"
);
}
);
width = 589;
}
);
leftKerningGroup = T;
note = Tcaron;
rightKerningGroup = T;
unicode = 0164;
},
{
glyphname = Tcedilla;
lastChange = "2015-10-28 10:23:47 +0000";
layers = (
{
layerId = "A85C0A33-2487-4E47-AED8-78B93E482A34";
name = "Regular Italic";
paths = (
{
closed = 1;
nodes = (
"272 -248 OFFCURVE",
"336 -213 OFFCURVE",
"350 -150 CURVE SMOOTH",
"361 -97 OFFCURVE",
"337 -59 OFFCURVE",
"280 -52 CURVE",
"312 0 LINE",
"318 0 LINE",
"444 594 LINE",
"655 594 LINE",
"677 699 LINE",
"128 699 LINE",
"106 594 LINE",
"317 594 LINE",
"191 0 LINE",
"199 0 LINE",
"148 -85 LINE",
"221 -85 OFFCURVE",
"243 -108 OFFCURVE",
"236 -138 CURVE SMOOTH",
"230 -166 OFFCURVE",
"206 -179 OFFCURVE",
"168 -179 CURVE SMOOTH",
"148 -179 OFFCURVE",
"126 -174 OFFCURVE",
"113 -167 CURVE",
"97 -236 LINE",
"114 -243 OFFCURVE",
"149 -248 OFFCURVE",
"186 -248 CURVE SMOOTH"
);
}
);
width = 589;
}
);
leftKerningGroup = T;
note = Tcedilla;
rightKerningGroup = T;
unicode = 0162;
},
{
glyphname = Tcommaaccent;
lastChange = "2015-10-28 10:23:48 +0000";
layers = (
{
layerId = "A85C0A33-2487-4E47-AED8-78B93E482A34";
name = "Regular Italic";
paths = (
{
closed = 1;
nodes = (
"318 0 LINE",
"444 594 LINE",
"655 594 LINE",
"677 699 LINE",
"128 699 LINE",
"106 594 LINE",
"317 594 LINE",
"191 0 LINE"
);
},
{
closed = 1;
nodes = (
"163 -259 LINE",
"305 -56 LINE",
"174 -56 LINE",
"49 -259 LINE"
);
}
);
width = 589;
}
);
leftKerningGroup = T;
note = Tcommaaccent;
rightKerningGroup = T;
unicode = 021A;
},
{
glyphname = Tdotbelow;
lastChange = "2015-10-28 10:23:47 +0000";
layers = (
{
layerId = "A85C0A33-2487-4E47-AED8-78B93E482A34";
name = "Regular Italic";
paths = (
{
closed = 1;
nodes = (
"318 0 LINE",
"444 594 LINE",
"655 594 LINE",
"677 699 LINE",
"128 699 LINE",
"106 594 LINE",
"317 594 LINE",
"191 0 LINE"
);
},
{
closed = 1;
nodes = (
"253 -179 OFFCURVE",
"289 -150 OFFCURVE",
"296 -113 CURVE SMOOTH",
"304 -76 OFFCURVE",
"281 -46 OFFCURVE",
"246 -46 CURVE SMOOTH",
"210 -46 OFFCURVE",
"172 -76 OFFCURVE",
"164 -113 CURVE SMOOTH",
"157 -150 OFFCURVE",
"181 -179 OFFCURVE",
"217 -179 CURVE SMOOTH"
);
}
);
width = 589;
}
);
leftKerningGroup = T;
note = Tdotbelow;
rightKerningGroup = T;
unicode = 1E6C;
},
{
glyphname = Tlinebelow;
lastChange = "2015-10-28 10:23:48 +0000";
layers = (
{
layerId = "A85C0A33-2487-4E47-AED8-78B93E482A34";
name = "Regular Italic";
paths = (
{
closed = 1;
nodes = (
"318 0 LINE",
"444 594 LINE",
"655 594 LINE",
"677 699 LINE",
"128 699 LINE",
"106 594 LINE",
"317 594 LINE",
"191 0 LINE"
);
},
{
closed = 1;
nodes = (
"383 -151 LINE",
"401 -68 LINE",
"79 -68 LINE",
"61 -151 LINE"
);
}
);
width = 589;
}
);
leftKerningGroup = T;
note = Tlinebelow;
rightKerningGroup = T;
unicode = 1E6E;
},
{
glyphname = U;
lastChange = "2015-10-28 10:23:48 +0000";
layers = (
{
layerId = "A85C0A33-2487-4E47-AED8-78B93E482A34";
name = "Regular Italic";
paths = (
{
closed = 1;
nodes = (
"530 -15 OFFCURVE",
"633 102 OFFCURVE",
"669 272 CURVE SMOOTH",
"760 699 LINE",
"633 699 LINE",
"542 270 LINE SMOOTH",
"518 157 OFFCURVE",
"436 100 OFFCURVE",
"335 100 CURVE SMOOTH",
"217 100 OFFCURVE",
"174 151 OFFCURVE",
"199 270 CURVE SMOOTH",
"290 699 LINE",
"163 699 LINE",
"72 272 LINE SMOOTH",
"37 110 OFFCURVE",
"127 -15 OFFCURVE",
"310 -15 CURVE SMOOTH"
);
}
);
width = 707;
}
);
leftKerningGroup = U;
note = U;
rightKerningGroup = U;
unicode = 0055;
},
{
glyphname = Uacute;
lastChange = "2015-10-28 10:23:48 +0000";
layers = (
{
layerId = "A85C0A33-2487-4E47-AED8-78B93E482A34";
name = "Regular Italic";
paths = (
{
closed = 1;
nodes = (
"530 -15 OFFCURVE",
"633 102 OFFCURVE",
"669 272 CURVE SMOOTH",
"760 699 LINE",
"633 699 LINE",
"542 270 LINE SMOOTH",
"518 157 OFFCURVE",
"436 100 OFFCURVE",
"335 100 CURVE SMOOTH",
"217 100 OFFCURVE",
"174 151 OFFCURVE",
"199 270 CURVE SMOOTH",
"290 699 LINE",
"163 699 LINE",
"72 272 LINE SMOOTH",
"37 110 OFFCURVE",
"127 -15 OFFCURVE",
"310 -15 CURVE SMOOTH"
);
},
{
closed = 1;
nodes = (
"503 742 LINE",
"626 916 LINE",
"493 916 LINE",
"387 742 LINE"
);
}
);
width = 707;
}
);
leftKerningGroup = U;
note = Uacute;
rightKerningGroup = U;
unicode = 00DA;
},
{
glyphname = Ubreve;
lastChange = "2015-10-28 10:23:48 +0000";
layers = (
{
layerId = "A85C0A33-2487-4E47-AED8-78B93E482A34";
name = "Regular Italic";
paths = (
{
closed = 1;
nodes = (
"530 -15 OFFCURVE",
"633 102 OFFCURVE",
"669 272 CURVE SMOOTH",
"760 699 LINE",
"633 699 LINE",
"542 270 LINE SMOOTH",
"518 157 OFFCURVE",
"436 100 OFFCURVE",
"335 100 CURVE SMOOTH",
"217 100 OFFCURVE",
"174 151 OFFCURVE",
"199 270 CURVE SMOOTH",
"290 699 LINE",
"163 699 LINE",
"72 272 LINE SMOOTH",
"37 110 OFFCURVE",
"127 -15 OFFCURVE",
"310 -15 CURVE SMOOTH"
);
},
{
closed = 1;
nodes = (
"551 742 OFFCURVE",
"624 803 OFFCURVE",
"643 893 CURVE",
"543 893 LINE",
"534 849 OFFCURVE",
"505 826 OFFCURVE",
"463 826 CURVE SMOOTH",
"421 826 OFFCURVE",
"402 849 OFFCURVE",
"411 893 CURVE",
"322 893 LINE",
"303 803 OFFCURVE",
"349 742 OFFCURVE",
"450 742 CURVE SMOOTH"
);
}
);
width = 707;
}
);
leftKerningGroup = U;
note = Ubreve;
rightKerningGroup = U;
unicode = 016C;
},
{
glyphname = Ucaron;
lastChange = "2015-10-28 10:23:48 +0000";
layers = (
{
layerId = "A85C0A33-2487-4E47-AED8-78B93E482A34";
name = "Regular Italic";
paths = (
{
closed = 1;
nodes = (
"530 -15 OFFCURVE",
"633 102 OFFCURVE",
"669 272 CURVE SMOOTH",
"760 699 LINE",
"633 699 LINE",
"542 270 LINE SMOOTH",
"518 157 OFFCURVE",
"436 100 OFFCURVE",
"335 100 CURVE SMOOTH",
"217 100 OFFCURVE",
"174 151 OFFCURVE",
"199 270 CURVE SMOOTH",
"290 699 LINE",
"163 699 LINE",
"72 272 LINE SMOOTH",
"37 110 OFFCURVE",
"127 -15 OFFCURVE",
"310 -15 CURVE SMOOTH"
);
},
{
closed = 1;
nodes = (
"506 742 LINE",
"689 913 LINE",
"557 913 LINE",
"459 813 LINE",
"405 913 LINE",
"285 913 LINE",
"394 742 LINE"
);
}
);
width = 707;
}
);
leftKerningGroup = U;
note = Ucaron;
rightKerningGroup = U;
unicode = 01D3;
},
{
glyphname = Ucircumflex;
lastChange = "2015-10-28 10:23:48 +0000";
layers = (
{
layerId = "A85C0A33-2487-4E47-AED8-78B93E482A34";
name = "Regular Italic";
paths = (
{
closed = 1;
nodes = (
"530 -15 OFFCURVE",
"633 102 OFFCURVE",
"669 272 CURVE SMOOTH",
"760 699 LINE",
"633 699 LINE",
"542 270 LINE SMOOTH",
"518 157 OFFCURVE",
"436 100 OFFCURVE",
"335 100 CURVE SMOOTH",
"217 100 OFFCURVE",
"174 151 OFFCURVE",
"199 270 CURVE SMOOTH",
"290 699 LINE",
"163 699 LINE",
"72 272 LINE SMOOTH",
"37 110 OFFCURVE",
"127 -15 OFFCURVE",
"310 -15 CURVE SMOOTH"
);
},
{
closed = 1;
nodes = (
"379 742 LINE",
"476 841 LINE",
"531 742 LINE",
"652 742 LINE",
"543 913 LINE",
"431 913 LINE",
"248 742 LINE"
);
}
);
width = 707;
}
);
leftKerningGroup = U;
note = Ucircumflex;
rightKerningGroup = U;
unicode = 00DB;
},
{
glyphname = Udieresis;
lastChange = "2015-10-28 10:23:47 +0000";
layers = (
{
layerId = "A85C0A33-2487-4E47-AED8-78B93E482A34";
name = "Regular Italic";
paths = (
{
closed = 1;
nodes = (
"530 -15 OFFCURVE",
"633 102 OFFCURVE",
"669 272 CURVE SMOOTH",
"760 699 LINE",
"633 699 LINE",
"542 270 LINE SMOOTH",
"518 157 OFFCURVE",
"436 100 OFFCURVE",
"335 100 CURVE SMOOTH",
"217 100 OFFCURVE",
"174 151 OFFCURVE",
"199 270 CURVE SMOOTH",
"290 699 LINE",
"163 699 LINE",
"72 272 LINE SMOOTH",
"37 110 OFFCURVE",
"127 -15 OFFCURVE",
"310 -15 CURVE SMOOTH"
);
},
{
closed = 1;
nodes = (
"369 752 OFFCURVE",
"406 781 OFFCURVE",
"413 818 CURVE SMOOTH",
"421 855 OFFCURVE",
"398 885 OFFCURVE",
"362 885 CURVE SMOOTH",
"327 885 OFFCURVE",
"289 855 OFFCURVE",
"281 818 CURVE SMOOTH",
"274 781 OFFCURVE",
"298 752 OFFCURVE",
"333 752 CURVE SMOOTH"
);
},
{
closed = 1;
nodes = (
"606 752 OFFCURVE",
"643 781 OFFCURVE",
"650 818 CURVE SMOOTH",
"658 855 OFFCURVE",
"635 885 OFFCURVE",
"599 885 CURVE SMOOTH",
"563 885 OFFCURVE",
"525 855 OFFCURVE",
"517 818 CURVE SMOOTH",
"510 781 OFFCURVE",
"534 752 OFFCURVE",
"570 752 CURVE SMOOTH"
);
}
);
width = 707;
}
);
leftKerningGroup = U;
note = Udieresis;
rightKerningGroup = U;
unicode = 00DC;
},
{
glyphname = Udieresisacute;
lastChange = "2015-10-28 10:23:48 +0000";
layers = (
{
layerId = "A85C0A33-2487-4E47-AED8-78B93E482A34";
name = "Regular Italic";
paths = (
{
closed = 1;
nodes = (
"530 -15 OFFCURVE",
"633 102 OFFCURVE",
"669 272 CURVE SMOOTH",
"760 699 LINE",
"633 699 LINE",
"542 270 LINE SMOOTH",
"518 157 OFFCURVE",
"436 100 OFFCURVE",
"335 100 CURVE SMOOTH",
"217 100 OFFCURVE",
"174 151 OFFCURVE",
"199 270 CURVE SMOOTH",
"290 699 LINE",
"163 699 LINE",
"72 272 LINE SMOOTH",
"37 110 OFFCURVE",
"127 -15 OFFCURVE",
"310 -15 CURVE SMOOTH"
);
},
{
closed = 1;
nodes = (
"382 752 OFFCURVE",
"419 781 OFFCURVE",
"426 818 CURVE SMOOTH",
"434 855 OFFCURVE",
"411 885 OFFCURVE",
"375 885 CURVE SMOOTH",
"339 885 OFFCURVE",
"301 855 OFFCURVE",
"293 818 CURVE SMOOTH",
"286 781 OFFCURVE",
"310 752 OFFCURVE",
"346 752 CURVE SMOOTH"
);
},
{
closed = 1;
nodes = (
"638 752 OFFCURVE",
"675 781 OFFCURVE",
"682 818 CURVE SMOOTH",
"690 855 OFFCURVE",
"667 885 OFFCURVE",
"631 885 CURVE SMOOTH",
"595 885 OFFCURVE",
"557 855 OFFCURVE",
"549 818 CURVE SMOOTH",
"542 781 OFFCURVE",
"566 752 OFFCURVE",
"602 752 CURVE SMOOTH"
);
},
{
closed = 1;
nodes = (
"546 864 LINE",
"650 992 LINE",
"533 992 LINE",
"446 864 LINE"
);
}
);
width = 707;
}
);
leftKerningGroup = U;
note = Udieresisacute;
rightKerningGroup = U;
unicode = 01D7;
},
{
glyphname = Udieresiscaron;
lastChange = "2015-10-28 10:23:47 +0000";
layers = (
{
layerId = "A85C0A33-2487-4E47-AED8-78B93E482A34";
name = "Regular Italic";
paths = (
{
closed = 1;
nodes = (
"530 -15 OFFCURVE",
"633 102 OFFCURVE",
"669 272 CURVE SMOOTH",
"760 699 LINE",
"633 699 LINE",
"542 270 LINE SMOOTH",
"518 157 OFFCURVE",
"436 100 OFFCURVE",
"335 100 CURVE SMOOTH",
"217 100 OFFCURVE",
"174 151 OFFCURVE",
"199 270 CURVE SMOOTH",
"290 699 LINE",
"163 699 LINE",
"72 272 LINE SMOOTH",
"37 110 OFFCURVE",
"127 -15 OFFCURVE",
"310 -15 CURVE SMOOTH"
);
},
{
closed = 1;
nodes = (
"379 752 OFFCURVE",
"417 781 OFFCURVE",
"424 818 CURVE SMOOTH",
"432 855 OFFCURVE",
"408 885 OFFCURVE",
"372 885 CURVE SMOOTH",
"336 885 OFFCURVE",
"299 855 OFFCURVE",
"291 818 CURVE SMOOTH",
"284 781 OFFCURVE",
"307 752 OFFCURVE",
"343 752 CURVE SMOOTH"
);
},
{
closed = 1;
nodes = (
"635 752 OFFCURVE",
"673 781 OFFCURVE",
"680 818 CURVE SMOOTH",
"688 855 OFFCURVE",
"664 885 OFFCURVE",
"628 885 CURVE SMOOTH",
"592 885 OFFCURVE",
"555 855 OFFCURVE",
"547 818 CURVE SMOOTH",
"540 781 OFFCURVE",
"563 752 OFFCURVE",
"599 752 CURVE SMOOTH"
);
},
{
closed = 1;
nodes = (
"542 864 LINE",
"695 1000 LINE",
"588 1000 LINE",
"509 925 LINE",
"461 1000 LINE",
"355 1000 LINE",
"449 864 LINE"
);
}
);
width = 707;
}
);
leftKerningGroup = U;
note = Udieresiscaron;
rightKerningGroup = U;
unicode = 01D9;
},
{
glyphname = Udieresisgrave;
lastChange = "2015-10-28 10:23:47 +0000";
layers = (
{
layerId = "A85C0A33-2487-4E47-AED8-78B93E482A34";
name = "Regular Italic";
paths = (
{
closed = 1;
nodes = (
"530 -15 OFFCURVE",
"633 102 OFFCURVE",
"669 272 CURVE SMOOTH",
"760 699 LINE",
"633 699 LINE",
"542 270 LINE SMOOTH",
"518 157 OFFCURVE",
"436 100 OFFCURVE",
"335 100 CURVE SMOOTH",
"217 100 OFFCURVE",
"174 151 OFFCURVE",
"199 270 CURVE SMOOTH",
"290 699 LINE",
"163 699 LINE",
"72 272 LINE SMOOTH",
"37 110 OFFCURVE",
"127 -15 OFFCURVE",
"310 -15 CURVE SMOOTH"
);
},
{
closed = 1;
nodes = (
"382 752 OFFCURVE",
"420 781 OFFCURVE",
"427 818 CURVE SMOOTH",
"435 855 OFFCURVE",
"411 885 OFFCURVE",
"375 885 CURVE SMOOTH",
"339 885 OFFCURVE",
"302 855 OFFCURVE",
"294 818 CURVE SMOOTH",
"287 781 OFFCURVE",
"310 752 OFFCURVE",
"346 752 CURVE SMOOTH"
);
},
{
closed = 1;
nodes = (
"550 864 LINE",
"516 992 LINE",
"400 992 LINE",
"450 864 LINE"
);
},
{
closed = 1;
nodes = (
"638 752 OFFCURVE",
"676 781 OFFCURVE",
"683 818 CURVE SMOOTH",
"691 855 OFFCURVE",
"667 885 OFFCURVE",
"631 885 CURVE SMOOTH",
"595 885 OFFCURVE",
"558 855 OFFCURVE",
"550 818 CURVE SMOOTH",
"543 781 OFFCURVE",
"566 752 OFFCURVE",
"602 752 CURVE SMOOTH"
);
}
);
width = 707;
}
);
leftKerningGroup = U;
note = Udieresisgrave;
rightKerningGroup = U;
unicode = 01DB;
},
{
glyphname = Udieresismacron;
lastChange = "2015-10-28 10:23:47 +0000";
layers = (
{
layerId = "A85C0A33-2487-4E47-AED8-78B93E482A34";
name = "Regular Italic";
paths = (
{
closed = 1;
nodes = (
"530 -15 OFFCURVE",
"633 102 OFFCURVE",
"669 272 CURVE SMOOTH",
"760 699 LINE",
"633 699 LINE",
"542 270 LINE SMOOTH",
"518 157 OFFCURVE",
"436 100 OFFCURVE",
"335 100 CURVE SMOOTH",
"217 100 OFFCURVE",
"174 151 OFFCURVE",
"199 270 CURVE SMOOTH",
"290 699 LINE",
"163 699 LINE",
"72 272 LINE SMOOTH",
"37 110 OFFCURVE",
"127 -15 OFFCURVE",
"310 -15 CURVE SMOOTH"
);
},
{
closed = 1;
nodes = (
"369 752 OFFCURVE",
"406 781 OFFCURVE",
"413 818 CURVE SMOOTH",
"421 855 OFFCURVE",
"398 885 OFFCURVE",
"362 885 CURVE SMOOTH",
"327 885 OFFCURVE",
"289 855 OFFCURVE",
"281 818 CURVE SMOOTH",
"274 781 OFFCURVE",
"298 752 OFFCURVE",
"333 752 CURVE SMOOTH"
);
},
{
closed = 1;
nodes = (
"606 752 OFFCURVE",
"643 781 OFFCURVE",
"650 818 CURVE SMOOTH",
"658 855 OFFCURVE",
"635 885 OFFCURVE",
"599 885 CURVE SMOOTH",
"563 885 OFFCURVE",
"525 855 OFFCURVE",
"517 818 CURVE SMOOTH",
"510 781 OFFCURVE",
"534 752 OFFCURVE",
"570 752 CURVE SMOOTH"
);
},
{
closed = 1;
nodes = (
"652 929 LINE",
"670 1013 LINE",
"348 1013 LINE",
"330 929 LINE"
);
}
);
width = 707;
}
);
leftKerningGroup = U;
note = Udieresismacron;
rightKerningGroup = U;
unicode = 01D5;
},
{
glyphname = Udotbelow;
lastChange = "2015-10-28 10:23:48 +0000";
layers = (
{
layerId = "A85C0A33-2487-4E47-AED8-78B93E482A34";
name = "Regular Italic";
paths = (
{
closed = 1;
nodes = (
"530 -15 OFFCURVE",
"633 102 OFFCURVE",
"669 272 CURVE SMOOTH",
"760 699 LINE",
"633 699 LINE",
"542 270 LINE SMOOTH",
"518 157 OFFCURVE",
"436 100 OFFCURVE",
"335 100 CURVE SMOOTH",
"217 100 OFFCURVE",
"174 151 OFFCURVE",
"199 270 CURVE SMOOTH",
"290 699 LINE",
"163 699 LINE",
"72 272 LINE SMOOTH",
"37 110 OFFCURVE",
"127 -15 OFFCURVE",
"310 -15 CURVE SMOOTH"
);
},
{
closed = 1;
nodes = (
"312 -179 OFFCURVE",
"348 -150 OFFCURVE",
"355 -113 CURVE SMOOTH",
"363 -76 OFFCURVE",
"340 -46 OFFCURVE",
"305 -46 CURVE SMOOTH",
"269 -46 OFFCURVE",
"231 -76 OFFCURVE",
"223 -113 CURVE SMOOTH",
"216 -150 OFFCURVE",
"240 -179 OFFCURVE",
"276 -179 CURVE SMOOTH"
);
}
);
width = 707;
}
);
leftKerningGroup = U;
note = Udotbelow;
rightKerningGroup = U;
unicode = 1EE4;
},
{
glyphname = Ugrave;
lastChange = "2015-10-28 10:23:48 +0000";
layers = (
{
layerId = "A85C0A33-2487-4E47-AED8-78B93E482A34";
name = "Regular Italic";
paths = (
{
closed = 1;
nodes = (
"530 -15 OFFCURVE",
"633 102 OFFCURVE",
"669 272 CURVE SMOOTH",
"760 699 LINE",
"633 699 LINE",
"542 270 LINE SMOOTH",
"518 157 OFFCURVE",
"436 100 OFFCURVE",
"335 100 CURVE SMOOTH",
"217 100 OFFCURVE",
"174 151 OFFCURVE",
"199 270 CURVE SMOOTH",
"290 699 LINE",
"163 699 LINE",
"72 272 LINE SMOOTH",
"37 110 OFFCURVE",
"127 -15 OFFCURVE",
"310 -15 CURVE SMOOTH"
);
},
{
closed = 1;
nodes = (
"514 742 LINE",
"482 916 LINE",
"349 916 LINE",
"398 742 LINE"
);
}
);
width = 707;
}
);
leftKerningGroup = U;
note = Ugrave;
rightKerningGroup = U;
unicode = 00D9;
},
{
glyphname = Uhookabove;
lastChange = "2015-10-28 10:23:47 +0000";
layers = (
{
layerId = "A85C0A33-2487-4E47-AED8-78B93E482A34";
name = "Regular Italic";
paths = (
{
closed = 1;
nodes = (
"530 -15 OFFCURVE",
"633 102 OFFCURVE",
"669 272 CURVE SMOOTH",
"760 699 LINE",
"633 699 LINE",
"542 270 LINE SMOOTH",
"518 157 OFFCURVE",
"436 100 OFFCURVE",
"335 100 CURVE SMOOTH",
"217 100 OFFCURVE",
"174 151 OFFCURVE",
"199 270 CURVE SMOOTH",
"290 699 LINE",
"163 699 LINE",
"72 272 LINE SMOOTH",
"37 110 OFFCURVE",
"127 -15 OFFCURVE",
"310 -15 CURVE SMOOTH"
);
},
{
closed = 1;
nodes = (
"496 742 LINE",
"503 776 LINE",
"564 785 OFFCURVE",
"604 822 OFFCURVE",
"614 870 CURVE SMOOTH",
"627 929 OFFCURVE",
"589 970 OFFCURVE",
"495 970 CURVE SMOOTH",
"459 970 OFFCURVE",
"419 963 OFFCURVE",
"394 956 CURVE",
"380 890 LINE",
"395 896 OFFCURVE",
"433 902 OFFCURVE",
"449 902 CURVE SMOOTH",
"494 902 OFFCURVE",
"508 891 OFFCURVE",
"503 865 CURVE SMOOTH",
"495 827 OFFCURVE",
"458 816 OFFCURVE",
"402 816 CURVE",
"386 742 LINE"
);
}
);
width = 707;
}
);
leftKerningGroup = U;
note = Uhookabove;
rightKerningGroup = U;
unicode = 1EE6;
},
{
glyphname = Uhorn;
lastChange = "2015-10-28 10:23:47 +0000";
layers = (
{
layerId = "A85C0A33-2487-4E47-AED8-78B93E482A34";
name = "Regular Italic";
paths = (
{
closed = 1;
nodes = (
"530 -15 OFFCURVE",
"633 102 OFFCURVE",
"669 272 CURVE SMOOTH",
"723 526 LINE",
"867 527 OFFCURVE",
"940 606 OFFCURVE",
"961 705 CURVE SMOOTH",
"970 747 LINE",
"853 747 LINE",
"846 712 LINE SMOOTH",
"832 648 OFFCURVE",
"807 625 OFFCURVE",
"744 625 CURVE",
"760 699 LINE",
"633 699 LINE",
"542 270 LINE SMOOTH",
"518 157 OFFCURVE",
"436 100 OFFCURVE",
"335 100 CURVE SMOOTH",
"217 100 OFFCURVE",
"174 151 OFFCURVE",
"199 270 CURVE SMOOTH",
"290 699 LINE",
"163 699 LINE",
"72 272 LINE SMOOTH",
"37 110 OFFCURVE",
"127 -15 OFFCURVE",
"310 -15 CURVE SMOOTH"
);
}
);
width = 862;
}
);
leftKerningGroup = U;
note = Uhorn;
rightKerningGroup = U;
unicode = 01AF;
},
{
glyphname = Uhornacute;
lastChange = "2015-10-28 10:23:47 +0000";
layers = (
{
layerId = "A85C0A33-2487-4E47-AED8-78B93E482A34";
name = "Regular Italic";
paths = (
{
closed = 1;
nodes = (
"530 -15 OFFCURVE",
"633 102 OFFCURVE",
"669 272 CURVE SMOOTH",
"723 526 LINE",
"867 527 OFFCURVE",
"940 606 OFFCURVE",
"961 705 CURVE SMOOTH",
"970 747 LINE",
"853 747 LINE",
"846 712 LINE SMOOTH",
"832 648 OFFCURVE",
"807 625 OFFCURVE",
"744 625 CURVE",
"760 699 LINE",
"633 699 LINE",
"542 270 LINE SMOOTH",
"518 157 OFFCURVE",
"436 100 OFFCURVE",
"335 100 CURVE SMOOTH",
"217 100 OFFCURVE",
"174 151 OFFCURVE",
"199 270 CURVE SMOOTH",
"290 699 LINE",
"163 699 LINE",
"72 272 LINE SMOOTH",
"37 110 OFFCURVE",
"127 -15 OFFCURVE",
"310 -15 CURVE SMOOTH"
);
},
{
closed = 1;
nodes = (
"500 742 LINE",
"623 916 LINE",
"490 916 LINE",
"384 742 LINE"
);
}
);
width = 862;
}
);
leftKerningGroup = U;
note = Uhornacute;
rightKerningGroup = U;
unicode = 1EE8;
},
{
glyphname = Uhorndotbelow;
lastChange = "2015-10-28 10:23:48 +0000";
layers = (
{
layerId = "A85C0A33-2487-4E47-AED8-78B93E482A34";
name = "Regular Italic";
paths = (
{
closed = 1;
nodes = (
"530 -15 OFFCURVE",
"633 102 OFFCURVE",
"669 272 CURVE SMOOTH",
"723 526 LINE",
"867 527 OFFCURVE",
"940 606 OFFCURVE",
"961 705 CURVE SMOOTH",
"970 747 LINE",
"853 747 LINE",
"846 712 LINE SMOOTH",
"832 648 OFFCURVE",
"807 625 OFFCURVE",
"744 625 CURVE",
"760 699 LINE",
"633 699 LINE",
"542 270 LINE SMOOTH",
"518 157 OFFCURVE",
"436 100 OFFCURVE",
"335 100 CURVE SMOOTH",
"217 100 OFFCURVE",
"174 151 OFFCURVE",
"199 270 CURVE SMOOTH",
"290 699 LINE",
"163 699 LINE",
"72 272 LINE SMOOTH",
"37 110 OFFCURVE",
"127 -15 OFFCURVE",
"310 -15 CURVE SMOOTH"
);
},
{
closed = 1;
nodes = (
"309 -179 OFFCURVE",
"345 -150 OFFCURVE",
"352 -113 CURVE SMOOTH",
"360 -76 OFFCURVE",
"337 -46 OFFCURVE",
"302 -46 CURVE SMOOTH",
"266 -46 OFFCURVE",
"228 -76 OFFCURVE",
"220 -113 CURVE SMOOTH",
"213 -150 OFFCURVE",
"237 -179 OFFCURVE",
"273 -179 CURVE SMOOTH"
);
}
);
width = 862;
}
);
leftKerningGroup = U;
note = Uhorndotbelow;
rightKerningGroup = U;
unicode = 1EF0;
},
{
glyphname = Uhorngrave;
lastChange = "2015-10-28 10:23:48 +0000";
layers = (
{
layerId = "A85C0A33-2487-4E47-AED8-78B93E482A34";
name = "Regular Italic";
paths = (
{
closed = 1;
nodes = (
"530 -15 OFFCURVE",
"633 102 OFFCURVE",
"669 272 CURVE SMOOTH",
"723 526 LINE",
"867 527 OFFCURVE",
"940 606 OFFCURVE",
"961 705 CURVE SMOOTH",
"970 747 LINE",
"853 747 LINE",
"846 712 LINE SMOOTH",
"832 648 OFFCURVE",
"807 625 OFFCURVE",
"744 625 CURVE",
"760 699 LINE",
"633 699 LINE",
"542 270 LINE SMOOTH",
"518 157 OFFCURVE",
"436 100 OFFCURVE",
"335 100 CURVE SMOOTH",
"217 100 OFFCURVE",
"174 151 OFFCURVE",
"199 270 CURVE SMOOTH",
"290 699 LINE",
"163 699 LINE",
"72 272 LINE SMOOTH",
"37 110 OFFCURVE",
"127 -15 OFFCURVE",
"310 -15 CURVE SMOOTH"
);
},
{
closed = 1;
nodes = (
"512 742 LINE",
"480 916 LINE",
"347 916 LINE",
"396 742 LINE"
);
}
);
width = 862;
}
);
leftKerningGroup = U;
note = Uhorngrave;
rightKerningGroup = U;
unicode = 1EEA;
},
{
glyphname = Uhornhookabove;
lastChange = "2015-10-28 10:23:48 +0000";
layers = (
{
layerId = "A85C0A33-2487-4E47-AED8-78B93E482A34";
name = "Regular Italic";
paths = (
{
closed = 1;
nodes = (
"530 -15 OFFCURVE",
"633 102 OFFCURVE",
"669 272 CURVE SMOOTH",
"723 526 LINE",
"867 527 OFFCURVE",
"940 606 OFFCURVE",
"961 705 CURVE SMOOTH",
"970 747 LINE",
"853 747 LINE",
"846 712 LINE SMOOTH",
"832 648 OFFCURVE",
"807 625 OFFCURVE",
"744 625 CURVE",
"760 699 LINE",
"633 699 LINE",
"542 270 LINE SMOOTH",
"518 157 OFFCURVE",
"436 100 OFFCURVE",
"335 100 CURVE SMOOTH",
"217 100 OFFCURVE",
"174 151 OFFCURVE",
"199 270 CURVE SMOOTH",
"290 699 LINE",
"163 699 LINE",
"72 272 LINE SMOOTH",
"37 110 OFFCURVE",
"127 -15 OFFCURVE",
"310 -15 CURVE SMOOTH"
);
},
{
closed = 1;
nodes = (
"502 742 LINE",
"509 776 LINE",
"570 785 OFFCURVE",
"610 822 OFFCURVE",
"620 870 CURVE SMOOTH",
"633 929 OFFCURVE",
"595 970 OFFCURVE",
"501 970 CURVE SMOOTH",
"465 970 OFFCURVE",
"425 963 OFFCURVE",
"400 956 CURVE",
"386 890 LINE",
"401 896 OFFCURVE",
"439 902 OFFCURVE",
"455 902 CURVE SMOOTH",
"500 902 OFFCURVE",
"514 891 OFFCURVE",
"509 865 CURVE SMOOTH",
"501 827 OFFCURVE",
"464 816 OFFCURVE",
"408 816 CURVE",
"392 742 LINE"
);
}
);
width = 862;
}
);
leftKerningGroup = U;
note = Uhornhookabove;
rightKerningGroup = U;
unicode = 1EEC;
},
{
glyphname = Uhorntilde;
lastChange = "2015-10-28 10:23:47 +0000";
layers = (
{
layerId = "A85C0A33-2487-4E47-AED8-78B93E482A34";
name = "Regular Italic";
paths = (
{
closed = 1;
nodes = (
"530 -15 OFFCURVE",
"633 102 OFFCURVE",
"669 272 CURVE SMOOTH",
"723 526 LINE",
"867 527 OFFCURVE",
"940 606 OFFCURVE",
"961 705 CURVE SMOOTH",
"970 747 LINE",
"853 747 LINE",
"846 712 LINE SMOOTH",
"832 648 OFFCURVE",
"807 625 OFFCURVE",
"744 625 CURVE",
"760 699 LINE",
"633 699 LINE",
"542 270 LINE SMOOTH",
"518 157 OFFCURVE",
"436 100 OFFCURVE",
"335 100 CURVE SMOOTH",
"217 100 OFFCURVE",
"174 151 OFFCURVE",
"199 270 CURVE SMOOTH",
"290 699 LINE",
"163 699 LINE",
"72 272 LINE SMOOTH",
"37 110 OFFCURVE",
"127 -15 OFFCURVE",
"310 -15 CURVE SMOOTH"
);
},
{
closed = 1;
nodes = (
"306 781 OFFCURVE",
"341 794 OFFCURVE",
"378 794 CURVE SMOOTH",
"442 794 OFFCURVE",
"484 744 OFFCURVE",
"557 744 CURVE SMOOTH",
"599 744 OFFCURVE",
"636 755 OFFCURVE",
"665 786 CURVE",
"687 889 LINE",
"651 851 OFFCURVE",
"615 838 OFFCURVE",
"577 838 CURVE SMOOTH",
"512 838 OFFCURVE",
"466 888 OFFCURVE",
"398 888 CURVE SMOOTH",
"357 888 OFFCURVE",
"319 876 OFFCURVE",
"289 845 CURVE",
"267 742 LINE"
);
}
);
width = 862;
}
);
leftKerningGroup = U;
note = Uhorntilde;
rightKerningGroup = U;
unicode = 1EEE;
},
{
glyphname = Uhungarumlaut;
lastChange = "2015-10-28 10:23:48 +0000";
layers = (
{
layerId = "A85C0A33-2487-4E47-AED8-78B93E482A34";
name = "Regular Italic";
paths = (
{
closed = 1;
nodes = (
"530 -15 OFFCURVE",
"633 102 OFFCURVE",
"669 272 CURVE SMOOTH",
"760 699 LINE",
"633 699 LINE",
"542 270 LINE SMOOTH",
"518 157 OFFCURVE",
"436 100 OFFCURVE",
"335 100 CURVE SMOOTH",
"217 100 OFFCURVE",
"174 151 OFFCURVE",
"199 270 CURVE SMOOTH",
"290 699 LINE",
"163 699 LINE",
"72 272 LINE SMOOTH",
"37 110 OFFCURVE",
"127 -15 OFFCURVE",
"310 -15 CURVE SMOOTH"
);
},
{
closed = 1;
nodes = (
"388 742 LINE",
"511 916 LINE",
"388 916 LINE",
"283 742 LINE"
);
},
{
closed = 1;
nodes = (
"611 742 LINE",
"734 916 LINE",
"612 916 LINE",
"505 742 LINE"
);
}
);
width = 707;
}
);
leftKerningGroup = U;
note = Uhungarumlaut;
rightKerningGroup = U;
unicode = 0170;
},
{
glyphname = Umacron;
lastChange = "2015-10-28 10:23:48 +0000";
layers = (
{
layerId = "A85C0A33-2487-4E47-AED8-78B93E482A34";
name = "Regular Italic";
paths = (
{
closed = 1;
nodes = (
"530 -15 OFFCURVE",
"633 102 OFFCURVE",
"669 272 CURVE SMOOTH",
"760 699 LINE",
"633 699 LINE",
"542 270 LINE SMOOTH",
"518 157 OFFCURVE",
"436 100 OFFCURVE",
"335 100 CURVE SMOOTH",
"217 100 OFFCURVE",
"174 151 OFFCURVE",
"199 270 CURVE SMOOTH",
"290 699 LINE",
"163 699 LINE",
"72 272 LINE SMOOTH",
"37 110 OFFCURVE",
"127 -15 OFFCURVE",
"310 -15 CURVE SMOOTH"
);
},
{
closed = 1;
nodes = (
"614 752 LINE",
"632 836 LINE",
"310 836 LINE",
"292 752 LINE"
);
}
);
width = 707;
}
);
leftKerningGroup = U;
note = Umacron;
rightKerningGroup = U;
unicode = 016A;
},
{
glyphname = Uogonek;
lastChange = "2015-10-28 10:23:48 +0000";
layers = (
{
layerId = "A85C0A33-2487-4E47-AED8-78B93E482A34";
name = "Regular Italic";
paths = (
{
closed = 1;
nodes = (
"297 -213 OFFCURVE",
"331 -208 OFFCURVE",
"354 -200 CURVE",
"369 -128 LINE",
"354 -135 OFFCURVE",
"336 -139 OFFCURVE",
"319 -139 CURVE SMOOTH",
"295 -139 OFFCURVE",
"282 -125 OFFCURVE",
"287 -99 CURVE SMOOTH",
"294 -66 OFFCURVE",
"319 -39 OFFCURVE",
"364 -12 CURVE",
"547 5 OFFCURVE",
"636 116 OFFCURVE",
"669 272 CURVE SMOOTH",
"760 699 LINE",
"633 699 LINE",
"542 270 LINE SMOOTH",
"518 157 OFFCURVE",
"436 100 OFFCURVE",
"335 100 CURVE SMOOTH",
"217 100 OFFCURVE",
"174 151 OFFCURVE",
"199 270 CURVE SMOOTH",
"290 699 LINE",
"163 699 LINE",
"72 272 LINE SMOOTH",
"41 128 OFFCURVE",
"109 13 OFFCURVE",
"253 -10 CURVE",
"214 -36 OFFCURVE",
"182 -75 OFFCURVE",
"173 -121 CURVE SMOOTH",
"159 -184 OFFCURVE",
"202 -213 OFFCURVE",
"265 -213 CURVE SMOOTH"
);
}
);
width = 707;
}
);
leftKerningGroup = U;
note = Uogonek;
rightKerningGroup = U;
unicode = 0172;
},
{
glyphname = Uring;
lastChange = "2015-10-28 10:23:48 +0000";
layers = (
{
layerId = "A85C0A33-2487-4E47-AED8-78B93E482A34";
name = "Regular Italic";
paths = (
{
closed = 1;
nodes = (
"530 -15 OFFCURVE",
"633 102 OFFCURVE",
"669 272 CURVE SMOOTH",
"760 699 LINE",
"633 699 LINE",
"542 270 LINE SMOOTH",
"518 157 OFFCURVE",
"436 100 OFFCURVE",
"335 100 CURVE SMOOTH",
"217 100 OFFCURVE",
"174 151 OFFCURVE",
"199 270 CURVE SMOOTH",
"290 699 LINE",
"163 699 LINE",
"72 272 LINE SMOOTH",
"37 110 OFFCURVE",
"127 -15 OFFCURVE",
"310 -15 CURVE SMOOTH"
);
},
{
closed = 1;
nodes = (
"525 742 OFFCURVE",
"586 797 OFFCURVE",
"601 866 CURVE SMOOTH",
"616 935 OFFCURVE",
"572 991 OFFCURVE",
"503 991 CURVE SMOOTH",
"430 991 OFFCURVE",
"367 935 OFFCURVE",
"352 866 CURVE SMOOTH",
"337 797 OFFCURVE",
"381 742 OFFCURVE",
"450 742 CURVE SMOOTH"
);
},
{
closed = 1;
nodes = (
"431 815 OFFCURVE",
"419 838 OFFCURVE",
"425 866 CURVE SMOOTH",
"431 894 OFFCURVE",
"459 917 OFFCURVE",
"487 917 CURVE SMOOTH",
"522 917 OFFCURVE",
"533 894 OFFCURVE",
"527 866 CURVE SMOOTH",
"521 838 OFFCURVE",
"493 815 OFFCURVE",
"465 815 CURVE SMOOTH"
);
}
);
width = 707;
}
);
leftKerningGroup = U;
note = Uring;
rightKerningGroup = U;
unicode = 016E;
},
{
glyphname = Utilde;
lastChange = "2015-10-28 10:23:47 +0000";
layers = (
{
layerId = "A85C0A33-2487-4E47-AED8-78B93E482A34";
name = "Regular Italic";
paths = (
{
closed = 1;
nodes = (
"530 -15 OFFCURVE",
"633 102 OFFCURVE",
"669 272 CURVE SMOOTH",
"760 699 LINE",
"633 699 LINE",
"542 270 LINE SMOOTH",
"518 157 OFFCURVE",
"436 100 OFFCURVE",
"335 100 CURVE SMOOTH",
"217 100 OFFCURVE",
"174 151 OFFCURVE",
"199 270 CURVE SMOOTH",
"290 699 LINE",
"163 699 LINE",
"72 272 LINE SMOOTH",
"37 110 OFFCURVE",
"127 -15 OFFCURVE",
"310 -15 CURVE SMOOTH"
);
},
{
closed = 1;
nodes = (
"300 781 OFFCURVE",
"335 794 OFFCURVE",
"372 794 CURVE SMOOTH",
"436 794 OFFCURVE",
"478 744 OFFCURVE",
"551 744 CURVE SMOOTH",
"593 744 OFFCURVE",
"630 755 OFFCURVE",
"659 786 CURVE",
"681 889 LINE",
"645 851 OFFCURVE",
"609 838 OFFCURVE",
"571 838 CURVE SMOOTH",
"506 838 OFFCURVE",
"460 888 OFFCURVE",
"392 888 CURVE SMOOTH",
"351 888 OFFCURVE",
"313 876 OFFCURVE",
"283 845 CURVE",
"261 742 LINE"
);
}
);
width = 707;
}
);
leftKerningGroup = U;
note = Utilde;
rightKerningGroup = U;
unicode = 0168;
},
{
glyphname = V;
lastChange = "2015-10-28 10:23:48 +0000";
layers = (
{
layerId = "A85C0A33-2487-4E47-AED8-78B93E482A34";
name = "Regular Italic";
paths = (
{
closed = 1;
nodes = (
"403 0 LINE",
"830 699 LINE",
"692 699 LINE",
"373 170 LINE",
"279 699 LINE",
"148 699 LINE",
"280 0 LINE"
);
}
);
width = 762;
}
);
note = V;
unicode = 0056;
},
{
glyphname = W;
lastChange = "2015-10-28 10:23:47 +0000";
layers = (
{
layerId = "A85C0A33-2487-4E47-AED8-78B93E482A34";
name = "Regular Italic";
paths = (
{
closed = 1;
nodes = (
"320 0 LINE",
"563 486 LINE",
"600 0 LINE",
"715 0 LINE",
"1062 699 LINE",
"930 699 LINE",
"686 205 LINE",
"654 699 LINE",
"556 699 LINE",
"314 205 LINE",
"280 699 LINE",
"148 699 LINE",
"199 0 LINE"
);
}
);
width = 994;
}
);
leftKerningGroup = W;
note = W;
rightKerningGroup = W;
unicode = 0057;
},
{
glyphname = Wacute;
lastChange = "2015-10-28 10:23:48 +0000";
layers = (
{
layerId = "A85C0A33-2487-4E47-AED8-78B93E482A34";
name = "Regular Italic";
paths = (
{
closed = 1;
nodes = (
"326 0 LINE",
"569 486 LINE",
"606 0 LINE",
"721 0 LINE",
"1068 699 LINE",
"936 699 LINE",
"692 205 LINE",
"660 699 LINE",
"562 699 LINE",
"320 205 LINE",
"286 699 LINE",
"154 699 LINE",
"205 0 LINE"
);
},
{
closed = 1;
nodes = (
"665 742 LINE",
"788 916 LINE",
"655 916 LINE",
"549 742 LINE"
);
}
);
width = 1006;
}
);
leftKerningGroup = W;
note = Wacute;
rightKerningGroup = W;
unicode = 1E82;
},
{
glyphname = Wcircumflex;
lastChange = "2015-10-28 10:23:47 +0000";
layers = (
{
layerId = "A85C0A33-2487-4E47-AED8-78B93E482A34";
name = "Regular Italic";
paths = (
{
closed = 1;
nodes = (
"326 0 LINE",
"569 486 LINE",
"606 0 LINE",
"721 0 LINE",
"1068 699 LINE",
"936 699 LINE",
"692 205 LINE",
"660 699 LINE",
"562 699 LINE",
"320 205 LINE",
"286 699 LINE",
"154 699 LINE",
"205 0 LINE"
);
},
{
closed = 1;
nodes = (
"529 742 LINE",
"626 841 LINE",
"681 742 LINE",
"802 742 LINE",
"693 913 LINE",
"581 913 LINE",
"398 742 LINE"
);
}
);
width = 1006;
}
);
leftKerningGroup = W;
note = Wcircumflex;
rightKerningGroup = W;
unicode = 0174;
},
{
glyphname = Wdieresis;
lastChange = "2015-10-28 10:23:47 +0000";
layers = (
{
layerId = "A85C0A33-2487-4E47-AED8-78B93E482A34";
name = "Regular Italic";
paths = (
{
closed = 1;
nodes = (
"326 0 LINE",
"569 486 LINE",
"606 0 LINE",
"721 0 LINE",
"1068 699 LINE",
"936 699 LINE",
"692 205 LINE",
"660 699 LINE",
"562 699 LINE",
"320 205 LINE",
"286 699 LINE",
"154 699 LINE",
"205 0 LINE"
);
},
{
closed = 1;
nodes = (
"519 752 OFFCURVE",
"556 781 OFFCURVE",
"563 818 CURVE SMOOTH",
"571 855 OFFCURVE",
"548 885 OFFCURVE",
"512 885 CURVE SMOOTH",
"477 885 OFFCURVE",
"439 855 OFFCURVE",
"431 818 CURVE SMOOTH",
"424 781 OFFCURVE",
"448 752 OFFCURVE",
"483 752 CURVE SMOOTH"
);
},
{
closed = 1;
nodes = (
"756 752 OFFCURVE",
"793 781 OFFCURVE",
"800 818 CURVE SMOOTH",
"808 855 OFFCURVE",
"785 885 OFFCURVE",
"749 885 CURVE SMOOTH",
"713 885 OFFCURVE",
"675 855 OFFCURVE",
"667 818 CURVE SMOOTH",
"660 781 OFFCURVE",
"684 752 OFFCURVE",
"720 752 CURVE SMOOTH"
);
}
);
width = 1006;
}
);
leftKerningGroup = W;
note = Wdieresis;
rightKerningGroup = W;
unicode = 1E84;
},
{
glyphname = Wgrave;
lastChange = "2015-10-28 10:23:48 +0000";
layers = (
{
layerId = "A85C0A33-2487-4E47-AED8-78B93E482A34";
name = "Regular Italic";
paths = (
{
closed = 1;
nodes = (
"326 0 LINE",
"569 486 LINE",
"606 0 LINE",
"721 0 LINE",
"1068 699 LINE",
"936 699 LINE",
"692 205 LINE",
"660 699 LINE",
"562 699 LINE",
"320 205 LINE",
"286 699 LINE",
"154 699 LINE",
"205 0 LINE"
);
},
{
closed = 1;
nodes = (
"654 742 LINE",
"622 916 LINE",
"489 916 LINE",
"538 742 LINE"
);
}
);
width = 1006;
}
);
leftKerningGroup = W;
note = Wgrave;
rightKerningGroup = W;
unicode = 1E80;
},
{
glyphname = X;
lastChange = "2015-10-28 10:23:48 +0000";
layers = (
{
layerId = "A85C0A33-2487-4E47-AED8-78B93E482A34";
name = "Regular Italic";
paths = (
{
closed = 1;
nodes = (
"145 0 LINE",
"385 254 LINE",
"517 0 LINE",
"658 0 LINE",
"476 350 LINE",
"805 699 LINE",
"660 699 LINE",
"424 449 LINE",
"295 699 LINE",
"154 699 LINE",
"333 353 LINE",
"0 0 LINE"
);
}
);
width = 742;
}
);
note = X;
unicode = 0058;
},
{
glyphname = Y;
lastChange = "2015-10-28 10:23:48 +0000";
layers = (
{
layerId = "A85C0A33-2487-4E47-AED8-78B93E482A34";
name = "Regular Italic";
paths = (
{
closed = 1;
nodes = (
"375 0 LINE",
"431 266 LINE",
"782 699 LINE",
"643 699 LINE",
"392 388 LINE",
"278 699 LINE",
"148 699 LINE",
"310 266 LINE",
"254 0 LINE"
);
}
);
width = 714;
}
);
leftKerningGroup = Y;
note = Y;
rightKerningGroup = Y;
unicode = 0059;
},
{
glyphname = Yacute;
lastChange = "2015-10-28 10:23:47 +0000";
layers = (
{
layerId = "A85C0A33-2487-4E47-AED8-78B93E482A34";
name = "Regular Italic";
paths = (
{
closed = 1;
nodes = (
"381 0 LINE",
"437 266 LINE",
"788 699 LINE",
"649 699 LINE",
"398 388 LINE",
"284 699 LINE",
"154 699 LINE",
"316 266 LINE",
"260 0 LINE"
);
},
{
closed = 1;
nodes = (
"512 742 LINE",
"635 916 LINE",
"502 916 LINE",
"396 742 LINE"
);
}
);
width = 726;
}
);
leftKerningGroup = Y;
note = Yacute;
rightKerningGroup = Y;
unicode = 00DD;
},
{
glyphname = Ycircumflex;
lastChange = "2015-10-28 10:23:47 +0000";
layers = (
{
layerId = "A85C0A33-2487-4E47-AED8-78B93E482A34";
name = "Regular Italic";
paths = (
{
closed = 1;
nodes = (
"381 0 LINE",
"437 266 LINE",
"788 699 LINE",
"649 699 LINE",
"398 388 LINE",
"284 699 LINE",
"154 699 LINE",
"316 266 LINE",
"260 0 LINE"
);
},
{
closed = 1;
nodes = (
"387 742 LINE",
"484 841 LINE",
"539 742 LINE",
"660 742 LINE",
"551 913 LINE",
"439 913 LINE",
"256 742 LINE"
);
}
);
width = 726;
}
);
leftKerningGroup = Y;
note = Ycircumflex;
rightKerningGroup = Y;
unicode = 0176;
},
{
glyphname = Ydieresis;
lastChange = "2015-10-28 10:23:47 +0000";
layers = (
{
layerId = "A85C0A33-2487-4E47-AED8-78B93E482A34";
name = "Regular Italic";
paths = (
{
closed = 1;
nodes = (
"381 0 LINE",
"437 266 LINE",
"788 699 LINE",
"649 699 LINE",
"398 388 LINE",
"284 699 LINE",
"154 699 LINE",
"316 266 LINE",
"260 0 LINE"
);
},
{
closed = 1;
nodes = (
"377 752 OFFCURVE",
"414 781 OFFCURVE",
"421 818 CURVE SMOOTH",
"429 855 OFFCURVE",
"406 885 OFFCURVE",
"370 885 CURVE SMOOTH",
"335 885 OFFCURVE",
"297 855 OFFCURVE",
"289 818 CURVE SMOOTH",
"282 781 OFFCURVE",
"306 752 OFFCURVE",
"341 752 CURVE SMOOTH"
);
},
{
closed = 1;
nodes = (
"614 752 OFFCURVE",
"651 781 OFFCURVE",
"658 818 CURVE SMOOTH",
"666 855 OFFCURVE",
"643 885 OFFCURVE",
"607 885 CURVE SMOOTH",
"571 885 OFFCURVE",
"533 855 OFFCURVE",
"525 818 CURVE SMOOTH",
"518 781 OFFCURVE",
"542 752 OFFCURVE",
"578 752 CURVE SMOOTH"
);
}
);
width = 726;
}
);
leftKerningGroup = Y;
note = Ydieresis;
rightKerningGroup = Y;
unicode = 0178;
},
{
glyphname = Ydotaccent;
lastChange = "2015-10-28 10:23:48 +0000";
layers = (
{
layerId = "A85C0A33-2487-4E47-AED8-78B93E482A34";
name = "Regular Italic";
paths = (
{
closed = 1;
nodes = (
"381 0 LINE",
"437 266 LINE",
"788 699 LINE",
"649 699 LINE",
"398 388 LINE",
"284 699 LINE",
"154 699 LINE",
"316 266 LINE",
"260 0 LINE"
);
},
{
closed = 1;
nodes = (
"496 752 OFFCURVE",
"533 781 OFFCURVE",
"540 818 CURVE SMOOTH",
"548 855 OFFCURVE",
"525 885 OFFCURVE",
"489 885 CURVE SMOOTH",
"453 885 OFFCURVE",
"415 855 OFFCURVE",
"407 818 CURVE SMOOTH",
"400 781 OFFCURVE",
"424 752 OFFCURVE",
"460 752 CURVE SMOOTH"
);
}
);
width = 726;
}
);
leftKerningGroup = Y;
note = Ydotaccent;
rightKerningGroup = Y;
unicode = 1E8E;
},
{
glyphname = Ydotbelow;
lastChange = "2015-10-28 10:23:48 +0000";
layers = (
{
layerId = "A85C0A33-2487-4E47-AED8-78B93E482A34";
name = "Regular Italic";
paths = (
{
closed = 1;
nodes = (
"381 0 LINE",
"437 266 LINE",
"788 699 LINE",
"649 699 LINE",
"398 388 LINE",
"284 699 LINE",
"154 699 LINE",
"316 266 LINE",
"260 0 LINE"
);
},
{
closed = 1;
nodes = (
"320 -179 OFFCURVE",
"356 -150 OFFCURVE",
"363 -113 CURVE SMOOTH",
"371 -76 OFFCURVE",
"348 -46 OFFCURVE",
"313 -46 CURVE SMOOTH",
"277 -46 OFFCURVE",
"239 -76 OFFCURVE",
"231 -113 CURVE SMOOTH",
"224 -150 OFFCURVE",
"248 -179 OFFCURVE",
"284 -179 CURVE SMOOTH"
);
}
);
width = 726;
}
);
leftKerningGroup = Y;
note = Ydotbelow;
rightKerningGroup = Y;
unicode = 1EF4;
},
{
glyphname = Ygrave;
lastChange = "2015-10-28 10:23:48 +0000";
layers = (
{
layerId = "A85C0A33-2487-4E47-AED8-78B93E482A34";
name = "Regular Italic";
paths = (
{
closed = 1;
nodes = (
"381 0 LINE",
"437 266 LINE",
"788 699 LINE",
"649 699 LINE",
"398 388 LINE",
"284 699 LINE",
"154 699 LINE",
"316 266 LINE",
"260 0 LINE"
);
},
{
closed = 1;
nodes = (
"526 742 LINE",
"494 916 LINE",
"361 916 LINE",
"410 742 LINE"
);
}
);
width = 726;
}
);
leftKerningGroup = Y;
note = Ygrave;
rightKerningGroup = Y;
unicode = 1EF2;
},
{
glyphname = Yhookabove;
lastChange = "2015-10-28 10:23:48 +0000";
layers = (
{
layerId = "A85C0A33-2487-4E47-AED8-78B93E482A34";
name = "Regular Italic";
paths = (
{
closed = 1;
nodes = (
"381 0 LINE",
"437 266 LINE",
"788 699 LINE",
"649 699 LINE",
"398 388 LINE",
"284 699 LINE",
"154 699 LINE",
"316 266 LINE",
"260 0 LINE"
);
},
{
closed = 1;
nodes = (
"510 742 LINE",
"517 776 LINE",
"578 785 OFFCURVE",
"618 822 OFFCURVE",
"628 870 CURVE SMOOTH",
"641 929 OFFCURVE",
"603 970 OFFCURVE",
"509 970 CURVE SMOOTH",
"473 970 OFFCURVE",
"433 963 OFFCURVE",
"408 956 CURVE",
"394 890 LINE",
"409 896 OFFCURVE",
"447 902 OFFCURVE",
"463 902 CURVE SMOOTH",
"508 902 OFFCURVE",
"522 891 OFFCURVE",
"517 865 CURVE SMOOTH",
"509 827 OFFCURVE",
"472 816 OFFCURVE",
"416 816 CURVE",
"400 742 LINE"
);
}
);
width = 726;
}
);
leftKerningGroup = Y;
note = Yhookabove;
rightKerningGroup = Y;
unicode = 1EF6;
},
{
glyphname = Ytilde;
lastChange = "2015-10-28 10:23:48 +0000";
layers = (
{
layerId = "A85C0A33-2487-4E47-AED8-78B93E482A34";
name = "Regular Italic";
paths = (
{
closed = 1;
nodes = (
"381 0 LINE",
"437 266 LINE",
"788 699 LINE",
"649 699 LINE",
"398 388 LINE",
"284 699 LINE",
"154 699 LINE",
"316 266 LINE",
"260 0 LINE"
);
},
{
closed = 1;
nodes = (
"303 781 OFFCURVE",
"338 794 OFFCURVE",
"375 794 CURVE SMOOTH",
"439 794 OFFCURVE",
"481 744 OFFCURVE",
"554 744 CURVE SMOOTH",
"596 744 OFFCURVE",
"633 755 OFFCURVE",
"662 786 CURVE",
"684 889 LINE",
"648 851 OFFCURVE",
"612 838 OFFCURVE",
"574 838 CURVE SMOOTH",
"509 838 OFFCURVE",
"463 888 OFFCURVE",
"395 888 CURVE SMOOTH",
"354 888 OFFCURVE",
"316 876 OFFCURVE",
"286 845 CURVE",
"264 742 LINE"
);
}
);
width = 726;
}
);
leftKerningGroup = Y;
note = Ytilde;
rightKerningGroup = Y;
unicode = 1EF8;
},
{
glyphname = Z;
lastChange = "2015-10-28 10:23:47 +0000";
layers = (
{
layerId = "A85C0A33-2487-4E47-AED8-78B93E482A34";
name = "Regular Italic";
paths = (
{
closed = 1;
nodes = (
"539 0 LINE",
"561 105 LINE",
"178 105 LINE",
"651 616 LINE",
"669 699 LINE",
"157 699 LINE",
"135 594 LINE",
"492 594 LINE",
"17 83 LINE",
"0 0 LINE"
);
}
);
width = 619;
}
);
leftKerningGroup = Z;
note = Z;
rightKerningGroup = Z;
unicode = 005A;
},
{
glyphname = Zacute;
lastChange = "2015-10-28 10:23:48 +0000";
layers = (
{
layerId = "A85C0A33-2487-4E47-AED8-78B93E482A34";
name = "Regular Italic";
paths = (
{
closed = 1;
nodes = (
"539 0 LINE",
"561 105 LINE",
"178 105 LINE",
"651 616 LINE",
"669 699 LINE",
"157 699 LINE",
"135 594 LINE",
"492 594 LINE",
"17 83 LINE",
"0 0 LINE"
);
},
{
closed = 1;
nodes = (
"445 742 LINE",
"568 916 LINE",
"435 916 LINE",
"329 742 LINE"
);
}
);
width = 619;
}
);
leftKerningGroup = Z;
note = Zacute;
rightKerningGroup = Z;
unicode = 0179;
},
{
glyphname = Zcaron;
lastChange = "2015-10-28 10:23:48 +0000";
layers = (
{
layerId = "A85C0A33-2487-4E47-AED8-78B93E482A34";
name = "Regular Italic";
paths = (
{
closed = 1;
nodes = (
"539 0 LINE",
"561 105 LINE",
"178 105 LINE",
"651 616 LINE",
"669 699 LINE",
"157 699 LINE",
"135 594 LINE",
"492 594 LINE",
"17 83 LINE",
"0 0 LINE"
);
},
{
closed = 1;
nodes = (
"458 742 LINE",
"641 913 LINE",
"509 913 LINE",
"411 813 LINE",
"357 913 LINE",
"237 913 LINE",
"346 742 LINE"
);
}
);
width = 619;
}
);
leftKerningGroup = Z;
note = Zcaron;
rightKerningGroup = Z;
unicode = 017D;
},
{
glyphname = Zdotaccent;
lastChange = "2015-10-28 10:23:47 +0000";
layers = (
{
layerId = "A85C0A33-2487-4E47-AED8-78B93E482A34";
name = "Regular Italic";
paths = (
{
closed = 1;
nodes = (
"539 0 LINE",
"561 105 LINE",
"178 105 LINE",
"651 616 LINE",
"669 699 LINE",
"157 699 LINE",
"135 594 LINE",
"492 594 LINE",
"17 83 LINE",
"0 0 LINE"
);
},
{
closed = 1;
nodes = (
"433 752 OFFCURVE",
"470 781 OFFCURVE",
"477 818 CURVE SMOOTH",
"485 855 OFFCURVE",
"462 885 OFFCURVE",
"426 885 CURVE SMOOTH",
"390 885 OFFCURVE",
"352 855 OFFCURVE",
"344 818 CURVE SMOOTH",
"337 781 OFFCURVE",
"361 752 OFFCURVE",
"397 752 CURVE SMOOTH"
);
}
);
width = 619;
}
);
leftKerningGroup = Z;
note = Zdotaccent;
rightKerningGroup = Z;
unicode = 017B;
},
{
glyphname = Zdotbelow;
lastChange = "2015-10-28 10:23:47 +0000";
layers = (
{
layerId = "A85C0A33-2487-4E47-AED8-78B93E482A34";
name = "Regular Italic";
paths = (
{
closed = 1;
nodes = (
"539 0 LINE",
"561 105 LINE",
"178 105 LINE",
"651 616 LINE",
"669 699 LINE",
"157 699 LINE",
"135 594 LINE",
"492 594 LINE",
"17 83 LINE",
"0 0 LINE"
);
},
{
closed = 1;
nodes = (
"278 -179 OFFCURVE",
"314 -150 OFFCURVE",
"321 -113 CURVE SMOOTH",
"329 -76 OFFCURVE",
"306 -46 OFFCURVE",
"271 -46 CURVE SMOOTH",
"235 -46 OFFCURVE",
"197 -76 OFFCURVE",
"189 -113 CURVE SMOOTH",
"182 -150 OFFCURVE",
"206 -179 OFFCURVE",
"242 -179 CURVE SMOOTH"
);
}
);
width = 619;
}
);
leftKerningGroup = Z;
note = Zdotbelow;
rightKerningGroup = Z;
unicode = 1E92;
},
{
glyphname = a;
lastChange = "2015-10-28 10:23:47 +0000";
layers = (
{
layerId = "A85C0A33-2487-4E47-AED8-78B93E482A34";
name = "Regular Italic";
paths = (
{
closed = 1;
nodes = (
"335 -15 OFFCURVE",
"401 6 OFFCURVE",
"454 56 CURVE",
"443 0 LINE",
"565 0 LINE",
"667 480 LINE",
"541 480 LINE",
"531 433 LINE",
"493 475 OFFCURVE",
"435 495 OFFCURVE",
"358 495 CURVE SMOOTH",
"205 495 OFFCURVE",
"82 391 OFFCURVE",
"50 239 CURVE SMOOTH",
"17 85 OFFCURVE",
"110 -15 OFFCURVE",
"249 -15 CURVE SMOOTH"
);
},
{
closed = 1;
nodes = (
"195 84 OFFCURVE",
"159 141 OFFCURVE",
"178 239 CURVE SMOOTH",
"196 332 OFFCURVE",
"273 396 OFFCURVE",
"368 396 CURVE SMOOTH",
"449 396 OFFCURVE",
"493 353 OFFCURVE",
"500 288 CURVE",
"479 191 LINE",
"442 126 OFFCURVE",
"373 84 OFFCURVE",
"301 84 CURVE SMOOTH"
);
}
);
width = 660;
}
);
leftKerningGroup = a;
note = a;
rightKerningGroup = a;
unicode = 0061;
},
{
glyphname = aacute;
lastChange = "2015-10-28 10:23:47 +0000";
layers = (
{
layerId = "A85C0A33-2487-4E47-AED8-78B93E482A34";
name = "Regular Italic";
paths = (
{
closed = 1;
nodes = (
"335 -15 OFFCURVE",
"401 6 OFFCURVE",
"454 56 CURVE",
"443 0 LINE",
"565 0 LINE",
"667 480 LINE",
"541 480 LINE",
"531 433 LINE",
"493 475 OFFCURVE",
"435 495 OFFCURVE",
"358 495 CURVE SMOOTH",
"205 495 OFFCURVE",
"82 391 OFFCURVE",
"50 239 CURVE SMOOTH",
"17 85 OFFCURVE",
"110 -15 OFFCURVE",
"249 -15 CURVE SMOOTH"
);
},
{
closed = 1;
nodes = (
"195 84 OFFCURVE",
"159 141 OFFCURVE",
"178 239 CURVE SMOOTH",
"196 332 OFFCURVE",
"273 396 OFFCURVE",
"368 396 CURVE SMOOTH",
"449 396 OFFCURVE",
"493 353 OFFCURVE",
"500 288 CURVE",
"479 191 LINE",
"442 126 OFFCURVE",
"373 84 OFFCURVE",
"301 84 CURVE SMOOTH"
);
},
{
closed = 1;
nodes = (
"485 535 LINE",
"608 709 LINE",
"475 709 LINE",
"369 535 LINE"
);
}
);
width = 660;
}
);
leftKerningGroup = a;
note = aacute;
rightKerningGroup = a;
unicode = 00E1;
},
{
glyphname = abreve;
lastChange = "2015-10-28 10:23:48 +0000";
layers = (
{
layerId = "A85C0A33-2487-4E47-AED8-78B93E482A34";
name = "Regular Italic";
paths = (
{
closed = 1;
nodes = (
"335 -15 OFFCURVE",
"401 6 OFFCURVE",
"454 56 CURVE",
"443 0 LINE",
"565 0 LINE",
"667 480 LINE",
"541 480 LINE",
"531 433 LINE",
"493 475 OFFCURVE",
"435 495 OFFCURVE",
"358 495 CURVE SMOOTH",
"205 495 OFFCURVE",
"82 391 OFFCURVE",
"50 239 CURVE SMOOTH",
"17 85 OFFCURVE",
"110 -15 OFFCURVE",
"249 -15 CURVE SMOOTH"
);
},
{
closed = 1;
nodes = (
"195 84 OFFCURVE",
"159 141 OFFCURVE",
"178 239 CURVE SMOOTH",
"196 332 OFFCURVE",
"273 396 OFFCURVE",
"368 396 CURVE SMOOTH",
"449 396 OFFCURVE",
"493 353 OFFCURVE",
"500 288 CURVE",
"479 191 LINE",
"442 126 OFFCURVE",
"373 84 OFFCURVE",
"301 84 CURVE SMOOTH"
);
},
{
closed = 1;
nodes = (
"539 535 OFFCURVE",
"612 596 OFFCURVE",
"631 686 CURVE",
"531 686 LINE",
"522 642 OFFCURVE",
"493 619 OFFCURVE",
"451 619 CURVE SMOOTH",
"409 619 OFFCURVE",
"390 642 OFFCURVE",
"399 686 CURVE",
"310 686 LINE",
"291 596 OFFCURVE",
"337 535 OFFCURVE",
"438 535 CURVE SMOOTH"
);
}
);
width = 660;
}
);
leftKerningGroup = a;
note = abreve;
rightKerningGroup = a;
unicode = 0103;
},
{
glyphname = abreveacute;
lastChange = "2015-10-28 10:23:48 +0000";
layers = (
{
layerId = "A85C0A33-2487-4E47-AED8-78B93E482A34";
name = "Regular Italic";
paths = (
{
closed = 1;
nodes = (
"335 -15 OFFCURVE",
"401 6 OFFCURVE",
"454 56 CURVE",
"443 0 LINE",
"565 0 LINE",
"667 480 LINE",
"541 480 LINE",
"531 433 LINE",
"493 475 OFFCURVE",
"435 495 OFFCURVE",
"358 495 CURVE SMOOTH",
"205 495 OFFCURVE",
"82 391 OFFCURVE",
"50 239 CURVE SMOOTH",
"17 85 OFFCURVE",
"110 -15 OFFCURVE",
"249 -15 CURVE SMOOTH"
);
},
{
closed = 1;
nodes = (
"195 84 OFFCURVE",
"159 141 OFFCURVE",
"178 239 CURVE SMOOTH",
"196 332 OFFCURVE",
"273 396 OFFCURVE",
"368 396 CURVE SMOOTH",
"449 396 OFFCURVE",
"493 353 OFFCURVE",
"500 288 CURVE",
"479 191 LINE",
"442 126 OFFCURVE",
"373 84 OFFCURVE",
"301 84 CURVE SMOOTH"
);
},
{
closed = 1;
nodes = (
"554 535 OFFCURVE",
"624 594 OFFCURVE",
"642 682 CURVE",
"551 682 LINE",
"542 639 OFFCURVE",
"515 617 OFFCURVE",
"474 617 CURVE SMOOTH",
"433 617 OFFCURVE",
"414 639 OFFCURVE",
"423 682 CURVE",
"331 682 LINE",
"313 594 OFFCURVE",
"358 535 OFFCURVE",
"456 535 CURVE SMOOTH"
);
},
{
closed = 1;
nodes = (
"530 686 LINE",
"623 812 LINE",
"523 812 LINE",
"444 686 LINE"
);
}
);
width = 660;
}
);
leftKerningGroup = a;
note = abreveacute;
rightKerningGroup = a;
unicode = 1EAF;
},
{
glyphname = abrevedotbelow;
lastChange = "2015-10-28 10:23:48 +0000";
layers = (
{
layerId = "A85C0A33-2487-4E47-AED8-78B93E482A34";
name = "Regular Italic";
paths = (
{
closed = 1;
nodes = (
"335 -15 OFFCURVE",
"401 6 OFFCURVE",
"454 56 CURVE",
"443 0 LINE",
"565 0 LINE",
"667 480 LINE",
"541 480 LINE",
"531 433 LINE",
"493 475 OFFCURVE",
"435 495 OFFCURVE",
"358 495 CURVE SMOOTH",
"205 495 OFFCURVE",
"82 391 OFFCURVE",
"50 239 CURVE SMOOTH",
"17 85 OFFCURVE",
"110 -15 OFFCURVE",
"249 -15 CURVE SMOOTH"
);
},
{
closed = 1;
nodes = (
"330 -179 OFFCURVE",
"366 -150 OFFCURVE",
"373 -113 CURVE SMOOTH",
"381 -76 OFFCURVE",
"358 -46 OFFCURVE",
"323 -46 CURVE SMOOTH",
"287 -46 OFFCURVE",
"249 -76 OFFCURVE",
"241 -113 CURVE SMOOTH",
"234 -150 OFFCURVE",
"258 -179 OFFCURVE",
"294 -179 CURVE SMOOTH"
);
},
{
closed = 1;
nodes = (
"195 84 OFFCURVE",
"159 141 OFFCURVE",
"178 239 CURVE SMOOTH",
"196 332 OFFCURVE",
"273 396 OFFCURVE",
"368 396 CURVE SMOOTH",
"449 396 OFFCURVE",
"493 353 OFFCURVE",
"500 288 CURVE",
"479 191 LINE",
"442 126 OFFCURVE",
"373 84 OFFCURVE",
"301 84 CURVE SMOOTH"
);
},
{
closed = 1;
nodes = (
"535 535 OFFCURVE",
"608 596 OFFCURVE",
"627 686 CURVE",
"527 686 LINE",
"518 642 OFFCURVE",
"489 619 OFFCURVE",
"447 619 CURVE SMOOTH",
"405 619 OFFCURVE",
"386 642 OFFCURVE",
"395 686 CURVE",
"306 686 LINE",
"287 596 OFFCURVE",
"333 535 OFFCURVE",
"434 535 CURVE SMOOTH"
);
}
);
width = 660;
}
);
leftKerningGroup = a;
note = abrevedotbelow;
rightKerningGroup = a;
unicode = 1EB7;
},
{
glyphname = abrevegrave;
lastChange = "2015-10-28 10:23:47 +0000";
layers = (
{
layerId = "A85C0A33-2487-4E47-AED8-78B93E482A34";
name = "Regular Italic";
paths = (
{
closed = 1;
nodes = (
"335 -15 OFFCURVE",
"401 6 OFFCURVE",
"454 56 CURVE",
"443 0 LINE",
"565 0 LINE",
"667 480 LINE",
"541 480 LINE",
"531 433 LINE",
"493 475 OFFCURVE",
"435 495 OFFCURVE",
"358 495 CURVE SMOOTH",
"205 495 OFFCURVE",
"82 391 OFFCURVE",
"50 239 CURVE SMOOTH",
"17 85 OFFCURVE",
"110 -15 OFFCURVE",
"249 -15 CURVE SMOOTH"
);
},
{
closed = 1;
nodes = (
"195 84 OFFCURVE",
"159 141 OFFCURVE",
"178 239 CURVE SMOOTH",
"196 332 OFFCURVE",
"273 396 OFFCURVE",
"368 396 CURVE SMOOTH",
"449 396 OFFCURVE",
"493 353 OFFCURVE",
"500 288 CURVE",
"479 191 LINE",
"442 126 OFFCURVE",
"373 84 OFFCURVE",
"301 84 CURVE SMOOTH"
);
},
{
closed = 1;
nodes = (
"549 535 OFFCURVE",
"619 594 OFFCURVE",
"637 682 CURVE",
"546 682 LINE",
"537 639 OFFCURVE",
"510 617 OFFCURVE",
"469 617 CURVE SMOOTH",
"428 617 OFFCURVE",
"409 639 OFFCURVE",
"418 682 CURVE",
"326 682 LINE",
"308 594 OFFCURVE",
"353 535 OFFCURVE",
"451 535 CURVE SMOOTH"
);
},
{
closed = 1;
nodes = (
"527 686 LINE",
"502 812 LINE",
"401 812 LINE",
"441 686 LINE"
);
}
);
width = 660;
}
);
leftKerningGroup = a;
note = abrevegrave;
rightKerningGroup = a;
unicode = 1EB1;
},
{
glyphname = abrevehookabove;
lastChange = "2015-10-28 10:23:47 +0000";
layers = (
{
layerId = "A85C0A33-2487-4E47-AED8-78B93E482A34";
name = "Regular Italic";
paths = (
{
closed = 1;
nodes = (
"335 -15 OFFCURVE",
"401 6 OFFCURVE",
"454 56 CURVE",
"443 0 LINE",
"565 0 LINE",
"667 480 LINE",
"541 480 LINE",
"531 433 LINE",
"493 475 OFFCURVE",
"435 495 OFFCURVE",
"358 495 CURVE SMOOTH",
"205 495 OFFCURVE",
"82 391 OFFCURVE",
"50 239 CURVE SMOOTH",
"17 85 OFFCURVE",
"110 -15 OFFCURVE",
"249 -15 CURVE SMOOTH"
);
},
{
closed = 1;
nodes = (
"195 84 OFFCURVE",
"159 141 OFFCURVE",
"178 239 CURVE SMOOTH",
"196 332 OFFCURVE",
"273 396 OFFCURVE",
"368 396 CURVE SMOOTH",
"449 396 OFFCURVE",
"493 353 OFFCURVE",
"500 288 CURVE",
"479 191 LINE",
"442 126 OFFCURVE",
"373 84 OFFCURVE",
"301 84 CURVE SMOOTH"
);
},
{
closed = 1;
nodes = (
"550 530 OFFCURVE",
"620 589 OFFCURVE",
"638 677 CURVE",
"549 677 LINE",
"540 634 OFFCURVE",
"510 610 OFFCURVE",
"469 610 CURVE SMOOTH",
"428 610 OFFCURVE",
"408 634 OFFCURVE",
"417 677 CURVE",
"327 677 LINE",
"309 589 OFFCURVE",
"354 530 OFFCURVE",
"452 530 CURVE SMOOTH"
);
},
{
closed = 1;
nodes = (
"523 670 LINE",
"528 694 LINE",
"569 701 OFFCURVE",
"599 725 OFFCURVE",
"606 759 CURVE SMOOTH",
"614 801 OFFCURVE",
"584 829 OFFCURVE",
"524 829 CURVE SMOOTH",
"500 829 OFFCURVE",
"469 824 OFFCURVE",
"449 818 CURVE",
"439 769 LINE",
"450 774 OFFCURVE",
"468 777 OFFCURVE",
"482 777 CURVE SMOOTH",
"510 777 OFFCURVE",
"523 772 OFFCURVE",
"518 751 CURVE SMOOTH",
"513 727 OFFCURVE",
"492 720 OFFCURVE",
"454 720 CURVE",
"444 670 LINE"
);
}
);
width = 660;
}
);
leftKerningGroup = a;
note = abrevehookabove;
rightKerningGroup = a;
unicode = 1EB3;
},
{
glyphname = abrevetilde;
lastChange = "2015-10-28 10:23:47 +0000";
layers = (
{
layerId = "A85C0A33-2487-4E47-AED8-78B93E482A34";
name = "Regular Italic";
paths = (
{
closed = 1;
nodes = (
"335 -15 OFFCURVE",
"401 6 OFFCURVE",
"454 56 CURVE",
"443 0 LINE",
"565 0 LINE",
"667 480 LINE",
"541 480 LINE",
"531 433 LINE",
"493 475 OFFCURVE",
"435 495 OFFCURVE",
"358 495 CURVE SMOOTH",
"205 495 OFFCURVE",
"82 391 OFFCURVE",
"50 239 CURVE SMOOTH",
"17 85 OFFCURVE",
"110 -15 OFFCURVE",
"249 -15 CURVE SMOOTH"
);
},
{
closed = 1;
nodes = (
"195 84 OFFCURVE",
"159 141 OFFCURVE",
"178 239 CURVE SMOOTH",
"196 332 OFFCURVE",
"273 396 OFFCURVE",
"368 396 CURVE SMOOTH",
"449 396 OFFCURVE",
"493 353 OFFCURVE",
"500 288 CURVE",
"479 191 LINE",
"442 126 OFFCURVE",
"373 84 OFFCURVE",
"301 84 CURVE SMOOTH"
);
},
{
closed = 1;
nodes = (
"569 535 OFFCURVE",
"639 594 OFFCURVE",
"657 682 CURVE",
"566 682 LINE",
"557 639 OFFCURVE",
"530 617 OFFCURVE",
"489 617 CURVE SMOOTH",
"448 617 OFFCURVE",
"429 639 OFFCURVE",
"438 682 CURVE",
"346 682 LINE",
"328 594 OFFCURVE",
"373 535 OFFCURVE",
"471 535 CURVE SMOOTH"
);
},
{
closed = 1;
nodes = (
"623 718 OFFCURVE",
"650 728 OFFCURVE",
"672 752 CURVE",
"691 842 LINE",
"663 811 OFFCURVE",
"635 800 OFFCURVE",
"605 800 CURVE SMOOTH",
"557 800 OFFCURVE",
"511 843 OFFCURVE",
"461 843 CURVE SMOOTH",
"426 843 OFFCURVE",
"397 833 OFFCURVE",
"375 808 CURVE",
"356 719 LINE",
"386 750 OFFCURVE",
"412 761 OFFCURVE",
"443 761 CURVE SMOOTH",
"490 761 OFFCURVE",
"534 718 OFFCURVE",
"588 718 CURVE SMOOTH"
);
}
);
width = 660;
}
);
leftKerningGroup = a;
note = abrevetilde;
rightKerningGroup = a;
unicode = 1EB5;
},
{
glyphname = acaron;
lastChange = "2015-10-28 10:23:48 +0000";
layers = (
{
layerId = "A85C0A33-2487-4E47-AED8-78B93E482A34";
name = "Regular Italic";
paths = (
{
closed = 1;
nodes = (
"335 -15 OFFCURVE",
"401 6 OFFCURVE",
"454 56 CURVE",
"443 0 LINE",
"565 0 LINE",
"667 480 LINE",
"541 480 LINE",
"531 433 LINE",
"493 475 OFFCURVE",
"435 495 OFFCURVE",
"358 495 CURVE SMOOTH",
"205 495 OFFCURVE",
"82 391 OFFCURVE",
"50 239 CURVE SMOOTH",
"17 85 OFFCURVE",
"110 -15 OFFCURVE",
"249 -15 CURVE SMOOTH"
);
},
{
closed = 1;
nodes = (
"195 84 OFFCURVE",
"159 141 OFFCURVE",
"178 239 CURVE SMOOTH",
"196 332 OFFCURVE",
"273 396 OFFCURVE",
"368 396 CURVE SMOOTH",
"449 396 OFFCURVE",
"493 353 OFFCURVE",
"500 288 CURVE",
"479 191 LINE",
"442 126 OFFCURVE",
"373 84 OFFCURVE",
"301 84 CURVE SMOOTH"
);
},
{
closed = 1;
nodes = (
"502 535 LINE",
"685 706 LINE",
"553 706 LINE",
"455 606 LINE",
"401 706 LINE",
"281 706 LINE",
"390 535 LINE"
);
}
);
width = 660;
}
);
leftKerningGroup = a;
note = acaron;
rightKerningGroup = a;
unicode = 01CE;
},
{
glyphname = acircumflex;
lastChange = "2015-10-28 10:23:48 +0000";
layers = (
{
layerId = "A85C0A33-2487-4E47-AED8-78B93E482A34";
name = "Regular Italic";
paths = (
{
closed = 1;
nodes = (
"335 -15 OFFCURVE",
"401 6 OFFCURVE",
"454 56 CURVE",
"443 0 LINE",
"565 0 LINE",
"667 480 LINE",
"541 480 LINE",
"531 433 LINE",
"493 475 OFFCURVE",
"435 495 OFFCURVE",
"358 495 CURVE SMOOTH",
"205 495 OFFCURVE",
"82 391 OFFCURVE",
"50 239 CURVE SMOOTH",
"17 85 OFFCURVE",
"110 -15 OFFCURVE",
"249 -15 CURVE SMOOTH"
);
},
{
closed = 1;
nodes = (
"195 84 OFFCURVE",
"159 141 OFFCURVE",
"178 239 CURVE SMOOTH",
"196 332 OFFCURVE",
"273 396 OFFCURVE",
"368 396 CURVE SMOOTH",
"449 396 OFFCURVE",
"493 353 OFFCURVE",
"500 288 CURVE",
"479 191 LINE",
"442 126 OFFCURVE",
"373 84 OFFCURVE",
"301 84 CURVE SMOOTH"
);
},
{
closed = 1;
nodes = (
"361 535 LINE",
"458 634 LINE",
"513 535 LINE",
"634 535 LINE",
"525 706 LINE",
"413 706 LINE",
"230 535 LINE"
);
}
);
width = 660;
}
);
leftKerningGroup = a;
note = acircumflex;
rightKerningGroup = a;
unicode = 00E2;
},
{
glyphname = acircumflexacute;
lastChange = "2015-10-28 10:23:47 +0000";
layers = (
{
layerId = "A85C0A33-2487-4E47-AED8-78B93E482A34";
name = "Regular Italic";
paths = (
{
closed = 1;
nodes = (
"335 -15 OFFCURVE",
"401 6 OFFCURVE",
"454 56 CURVE",
"443 0 LINE",
"565 0 LINE",
"667 480 LINE",
"541 480 LINE",
"531 433 LINE",
"493 475 OFFCURVE",
"435 495 OFFCURVE",
"358 495 CURVE SMOOTH",
"205 495 OFFCURVE",
"82 391 OFFCURVE",
"50 239 CURVE SMOOTH",
"17 85 OFFCURVE",
"110 -15 OFFCURVE",
"249 -15 CURVE SMOOTH"
);
},
{
closed = 1;
nodes = (
"195 84 OFFCURVE",
"159 141 OFFCURVE",
"178 239 CURVE SMOOTH",
"196 332 OFFCURVE",
"273 396 OFFCURVE",
"368 396 CURVE SMOOTH",
"449 396 OFFCURVE",
"493 353 OFFCURVE",
"500 288 CURVE",
"479 191 LINE",
"442 126 OFFCURVE",
"373 84 OFFCURVE",
"301 84 CURVE SMOOTH"
);
},
{
closed = 1;
nodes = (
"392 535 LINE",
"482 619 LINE",
"536 535 LINE",
"654 535 LINE",
"549 687 LINE",
"443 687 LINE",
"272 535 LINE"
);
},
{
closed = 1;
nodes = (
"721 634 LINE",
"825 762 LINE",
"708 762 LINE",
"621 634 LINE"
);
}
);
width = 660;
}
);
leftKerningGroup = a;
note = acircumflexacute;
rightKerningGroup = a;
unicode = 1EA5;
},
{
glyphname = acircumflexdotbelow;
lastChange = "2015-10-28 10:23:48 +0000";
layers = (
{
layerId = "A85C0A33-2487-4E47-AED8-78B93E482A34";
name = "Regular Italic";
paths = (
{
closed = 1;
nodes = (
"335 -15 OFFCURVE",
"401 6 OFFCURVE",
"454 56 CURVE",
"443 0 LINE",
"565 0 LINE",
"667 480 LINE",
"541 480 LINE",
"531 433 LINE",
"493 475 OFFCURVE",
"435 495 OFFCURVE",
"358 495 CURVE SMOOTH",
"205 495 OFFCURVE",
"82 391 OFFCURVE",
"50 239 CURVE SMOOTH",
"17 85 OFFCURVE",
"110 -15 OFFCURVE",
"249 -15 CURVE SMOOTH"
);
},
{
closed = 1;
nodes = (
"323 -179 OFFCURVE",
"359 -150 OFFCURVE",
"366 -113 CURVE SMOOTH",
"374 -76 OFFCURVE",
"351 -46 OFFCURVE",
"316 -46 CURVE SMOOTH",
"280 -46 OFFCURVE",
"242 -76 OFFCURVE",
"234 -113 CURVE SMOOTH",
"227 -150 OFFCURVE",
"251 -179 OFFCURVE",
"287 -179 CURVE SMOOTH"
);
},
{
closed = 1;
nodes = (
"195 84 OFFCURVE",
"159 141 OFFCURVE",
"178 239 CURVE SMOOTH",
"196 332 OFFCURVE",
"273 396 OFFCURVE",
"368 396 CURVE SMOOTH",
"449 396 OFFCURVE",
"493 353 OFFCURVE",
"500 288 CURVE",
"479 191 LINE",
"442 126 OFFCURVE",
"373 84 OFFCURVE",
"301 84 CURVE SMOOTH"
);
},
{
closed = 1;
nodes = (
"356 535 LINE",
"453 634 LINE",
"508 535 LINE",
"629 535 LINE",
"520 706 LINE",
"408 706 LINE",
"225 535 LINE"
);
}
);
width = 660;
}
);
leftKerningGroup = a;
note = acircumflexdotbelow;
rightKerningGroup = a;
unicode = 1EAD;
},
{
glyphname = acircumflexgrave;
lastChange = "2015-10-28 10:23:47 +0000";
layers = (
{
layerId = "A85C0A33-2487-4E47-AED8-78B93E482A34";
name = "Regular Italic";
paths = (
{
closed = 1;
nodes = (
"335 -15 OFFCURVE",
"401 6 OFFCURVE",
"454 56 CURVE",
"443 0 LINE",
"565 0 LINE",
"667 480 LINE",
"541 480 LINE",
"531 433 LINE",
"493 475 OFFCURVE",
"435 495 OFFCURVE",
"358 495 CURVE SMOOTH",
"205 495 OFFCURVE",
"82 391 OFFCURVE",
"50 239 CURVE SMOOTH",
"17 85 OFFCURVE",
"110 -15 OFFCURVE",
"249 -15 CURVE SMOOTH"
);
},
{
closed = 1;
nodes = (
"195 84 OFFCURVE",
"159 141 OFFCURVE",
"178 239 CURVE SMOOTH",
"196 332 OFFCURVE",
"273 396 OFFCURVE",
"368 396 CURVE SMOOTH",
"449 396 OFFCURVE",
"493 353 OFFCURVE",
"500 288 CURVE",
"479 191 LINE",
"442 126 OFFCURVE",
"373 84 OFFCURVE",
"301 84 CURVE SMOOTH"
);
},
{
closed = 1;
nodes = (
"341 634 LINE",
"307 762 LINE",
"190 762 LINE",
"240 634 LINE"
);
},
{
closed = 1;
nodes = (
"384 535 LINE",
"474 619 LINE",
"527 535 LINE",
"647 535 LINE",
"540 687 LINE",
"435 687 LINE",
"265 535 LINE"
);
}
);
width = 660;
}
);
leftKerningGroup = a;
note = acircumflexgrave;
rightKerningGroup = a;
unicode = 1EA7;
},
{
glyphname = acircumflexhookabove;
lastChange = "2015-10-28 10:23:48 +0000";
layers = (
{
layerId = "A85C0A33-2487-4E47-AED8-78B93E482A34";
name = "Regular Italic";
paths = (
{
closed = 1;
nodes = (
"335 -15 OFFCURVE",
"401 6 OFFCURVE",
"454 56 CURVE",
"443 0 LINE",
"565 0 LINE",
"667 480 LINE",
"541 480 LINE",
"531 433 LINE",
"493 475 OFFCURVE",
"435 495 OFFCURVE",
"358 495 CURVE SMOOTH",
"205 495 OFFCURVE",
"82 391 OFFCURVE",
"50 239 CURVE SMOOTH",
"17 85 OFFCURVE",
"110 -15 OFFCURVE",
"249 -15 CURVE SMOOTH"
);
},
{
closed = 1;
nodes = (
"195 84 OFFCURVE",
"159 141 OFFCURVE",
"178 239 CURVE SMOOTH",
"196 332 OFFCURVE",
"273 396 OFFCURVE",
"368 396 CURVE SMOOTH",
"449 396 OFFCURVE",
"493 353 OFFCURVE",
"500 288 CURVE",
"479 191 LINE",
"442 126 OFFCURVE",
"373 84 OFFCURVE",
"301 84 CURVE SMOOTH"
);
},
{
closed = 1;
nodes = (
"379 535 LINE",
"469 619 LINE",
"523 535 LINE",
"641 535 LINE",
"536 687 LINE",
"430 687 LINE",
"259 535 LINE"
);
},
{
closed = 1;
nodes = (
"684 623 LINE",
"689 647 LINE",
"730 654 OFFCURVE",
"760 678 OFFCURVE",
"767 712 CURVE SMOOTH",
"776 754 OFFCURVE",
"745 782 OFFCURVE",
"685 782 CURVE SMOOTH",
"661 782 OFFCURVE",
"630 777 OFFCURVE",
"611 771 CURVE",
"601 722 LINE",
"612 727 OFFCURVE",
"629 730 OFFCURVE",
"643 730 CURVE SMOOTH",
"671 730 OFFCURVE",
"684 725 OFFCURVE",
"679 704 CURVE SMOOTH",
"674 680 OFFCURVE",
"653 673 OFFCURVE",
"616 673 CURVE",
"606 623 LINE"
);
}
);
width = 660;
}
);
leftKerningGroup = a;
note = acircumflexhookabove;
rightKerningGroup = a;
unicode = 1EA9;
},
{
glyphname = acircumflextilde;
lastChange = "2015-10-28 10:23:47 +0000";
layers = (
{
layerId = "A85C0A33-2487-4E47-AED8-78B93E482A34";
name = "Regular Italic";
paths = (
{
closed = 1;
nodes = (
"335 -15 OFFCURVE",
"401 6 OFFCURVE",
"454 56 CURVE",
"443 0 LINE",
"565 0 LINE",
"667 480 LINE",
"541 480 LINE",
"531 433 LINE",
"493 475 OFFCURVE",
"435 495 OFFCURVE",
"358 495 CURVE SMOOTH",
"205 495 OFFCURVE",
"82 391 OFFCURVE",
"50 239 CURVE SMOOTH",
"17 85 OFFCURVE",
"110 -15 OFFCURVE",
"249 -15 CURVE SMOOTH"
);
},
{
closed = 1;
nodes = (
"195 84 OFFCURVE",
"159 141 OFFCURVE",
"178 239 CURVE SMOOTH",
"196 332 OFFCURVE",
"273 396 OFFCURVE",
"368 396 CURVE SMOOTH",
"449 396 OFFCURVE",
"493 353 OFFCURVE",
"500 288 CURVE",
"479 191 LINE",
"442 126 OFFCURVE",
"373 84 OFFCURVE",
"301 84 CURVE SMOOTH"
);
},
{
closed = 1;
nodes = (
"384 535 LINE",
"474 619 LINE",
"528 535 LINE",
"646 535 LINE",
"541 687 LINE",
"435 687 LINE",
"264 535 LINE"
);
},
{
closed = 1;
nodes = (
"606 699 OFFCURVE",
"633 709 OFFCURVE",
"655 733 CURVE",
"674 823 LINE",
"646 792 OFFCURVE",
"619 781 OFFCURVE",
"588 781 CURVE SMOOTH",
"540 781 OFFCURVE",
"494 824 OFFCURVE",
"444 824 CURVE SMOOTH",
"409 824 OFFCURVE",
"380 814 OFFCURVE",
"358 789 CURVE",
"339 700 LINE",
"369 731 OFFCURVE",
"395 742 OFFCURVE",
"426 742 CURVE SMOOTH",
"473 742 OFFCURVE",
"517 699 OFFCURVE",
"571 699 CURVE SMOOTH"
);
}
);
width = 660;
}
);
leftKerningGroup = a;
note = acircumflextilde;
rightKerningGroup = a;
unicode = 1EAB;
},
{
glyphname = adieresis;
lastChange = "2015-10-28 10:23:48 +0000";
layers = (
{
layerId = "A85C0A33-2487-4E47-AED8-78B93E482A34";
name = "Regular Italic";
paths = (
{
closed = 1;
nodes = (
"335 -15 OFFCURVE",
"401 6 OFFCURVE",
"454 56 CURVE",
"443 0 LINE",
"565 0 LINE",
"667 480 LINE",
"541 480 LINE",
"531 433 LINE",
"493 475 OFFCURVE",
"435 495 OFFCURVE",
"358 495 CURVE SMOOTH",
"205 495 OFFCURVE",
"82 391 OFFCURVE",
"50 239 CURVE SMOOTH",
"17 85 OFFCURVE",
"110 -15 OFFCURVE",
"249 -15 CURVE SMOOTH"
);
},
{
closed = 1;
nodes = (
"195 84 OFFCURVE",
"159 141 OFFCURVE",
"178 239 CURVE SMOOTH",
"196 332 OFFCURVE",
"273 396 OFFCURVE",
"368 396 CURVE SMOOTH",
"449 396 OFFCURVE",
"493 353 OFFCURVE",
"500 288 CURVE",
"479 191 LINE",
"442 126 OFFCURVE",
"373 84 OFFCURVE",
"301 84 CURVE SMOOTH"
);
},
{
closed = 1;
nodes = (
"346 545 OFFCURVE",
"383 574 OFFCURVE",
"390 611 CURVE SMOOTH",
"398 648 OFFCURVE",
"375 678 OFFCURVE",
"339 678 CURVE SMOOTH",
"304 678 OFFCURVE",
"266 648 OFFCURVE",
"258 611 CURVE SMOOTH",
"251 574 OFFCURVE",
"275 545 OFFCURVE",
"310 545 CURVE SMOOTH"
);
},
{
closed = 1;
nodes = (
"583 545 OFFCURVE",
"620 574 OFFCURVE",
"627 611 CURVE SMOOTH",
"635 648 OFFCURVE",
"612 678 OFFCURVE",
"576 678 CURVE SMOOTH",
"540 678 OFFCURVE",
"502 648 OFFCURVE",
"494 611 CURVE SMOOTH",
"487 574 OFFCURVE",
"511 545 OFFCURVE",
"547 545 CURVE SMOOTH"
);
}
);
width = 660;
}
);
leftKerningGroup = a;
note = adieresis;
rightKerningGroup = a;
unicode = 00E4;
},
{
glyphname = adotbelow;
lastChange = "2015-10-28 10:23:48 +0000";
layers = (
{
layerId = "A85C0A33-2487-4E47-AED8-78B93E482A34";
name = "Regular Italic";
paths = (
{
closed = 1;
nodes = (
"335 -15 OFFCURVE",
"401 6 OFFCURVE",
"454 56 CURVE",
"443 0 LINE",
"565 0 LINE",
"667 480 LINE",
"541 480 LINE",
"531 433 LINE",
"493 475 OFFCURVE",
"435 495 OFFCURVE",
"358 495 CURVE SMOOTH",
"205 495 OFFCURVE",
"82 391 OFFCURVE",
"50 239 CURVE SMOOTH",
"17 85 OFFCURVE",
"110 -15 OFFCURVE",
"249 -15 CURVE SMOOTH"
);
},
{
closed = 1;
nodes = (
"326 -179 OFFCURVE",
"362 -150 OFFCURVE",
"369 -113 CURVE SMOOTH",
"377 -76 OFFCURVE",
"354 -46 OFFCURVE",
"319 -46 CURVE SMOOTH",
"283 -46 OFFCURVE",
"245 -76 OFFCURVE",
"237 -113 CURVE SMOOTH",
"230 -150 OFFCURVE",
"254 -179 OFFCURVE",
"290 -179 CURVE SMOOTH"
);
},
{
closed = 1;
nodes = (
"195 84 OFFCURVE",
"159 141 OFFCURVE",
"178 239 CURVE SMOOTH",
"196 332 OFFCURVE",
"273 396 OFFCURVE",
"368 396 CURVE SMOOTH",
"449 396 OFFCURVE",
"493 353 OFFCURVE",
"500 288 CURVE",
"479 191 LINE",
"442 126 OFFCURVE",
"373 84 OFFCURVE",
"301 84 CURVE SMOOTH"
);
}
);
width = 660;
}
);
leftKerningGroup = a;
note = adotbelow;
rightKerningGroup = a;
unicode = 1EA1;
},
{
glyphname = agrave;
lastChange = "2015-10-28 10:23:47 +0000";
layers = (
{
layerId = "A85C0A33-2487-4E47-AED8-78B93E482A34";
name = "Regular Italic";
paths = (
{
closed = 1;
nodes = (
"335 -15 OFFCURVE",
"401 6 OFFCURVE",
"454 56 CURVE",
"443 0 LINE",
"565 0 LINE",
"667 480 LINE",
"541 480 LINE",
"531 433 LINE",
"493 475 OFFCURVE",
"435 495 OFFCURVE",
"358 495 CURVE SMOOTH",
"205 495 OFFCURVE",
"82 391 OFFCURVE",
"50 239 CURVE SMOOTH",
"17 85 OFFCURVE",
"110 -15 OFFCURVE",
"249 -15 CURVE SMOOTH"
);
},
{
closed = 1;
nodes = (
"195 84 OFFCURVE",
"159 141 OFFCURVE",
"178 239 CURVE SMOOTH",
"196 332 OFFCURVE",
"273 396 OFFCURVE",
"368 396 CURVE SMOOTH",
"449 396 OFFCURVE",
"493 353 OFFCURVE",
"500 288 CURVE",
"479 191 LINE",
"442 126 OFFCURVE",
"373 84 OFFCURVE",
"301 84 CURVE SMOOTH"
);
},
{
closed = 1;
nodes = (
"515 535 LINE",
"483 709 LINE",
"350 709 LINE",
"399 535 LINE"
);
}
);
width = 660;
}
);
leftKerningGroup = a;
note = agrave;
rightKerningGroup = a;
unicode = 00E0;
},
{
glyphname = ahookabove;
lastChange = "2015-10-28 10:23:47 +0000";
layers = (
{
layerId = "A85C0A33-2487-4E47-AED8-78B93E482A34";
name = "Regular Italic";
paths = (
{
closed = 1;
nodes = (
"335 -15 OFFCURVE",
"401 6 OFFCURVE",
"454 56 CURVE",
"443 0 LINE",
"565 0 LINE",
"667 480 LINE",
"541 480 LINE",
"531 433 LINE",
"493 475 OFFCURVE",
"435 495 OFFCURVE",
"358 495 CURVE SMOOTH",
"205 495 OFFCURVE",
"82 391 OFFCURVE",
"50 239 CURVE SMOOTH",
"17 85 OFFCURVE",
"110 -15 OFFCURVE",
"249 -15 CURVE SMOOTH"
);
},
{
closed = 1;
nodes = (
"195 84 OFFCURVE",
"159 141 OFFCURVE",
"178 239 CURVE SMOOTH",
"196 332 OFFCURVE",
"273 396 OFFCURVE",
"368 396 CURVE SMOOTH",
"449 396 OFFCURVE",
"493 353 OFFCURVE",
"500 288 CURVE",
"479 191 LINE",
"442 126 OFFCURVE",
"373 84 OFFCURVE",
"301 84 CURVE SMOOTH"
);
},
{
closed = 1;
nodes = (
"492 535 LINE",
"499 569 LINE",
"560 578 OFFCURVE",
"600 615 OFFCURVE",
"610 663 CURVE SMOOTH",
"623 722 OFFCURVE",
"585 763 OFFCURVE",
"491 763 CURVE SMOOTH",
"455 763 OFFCURVE",
"415 756 OFFCURVE",
"390 749 CURVE",
"376 683 LINE",
"391 689 OFFCURVE",
"429 695 OFFCURVE",
"445 695 CURVE SMOOTH",
"490 695 OFFCURVE",
"504 684 OFFCURVE",
"499 658 CURVE SMOOTH",
"491 620 OFFCURVE",
"454 609 OFFCURVE",
"398 609 CURVE",
"382 535 LINE"
);
}
);
width = 660;
}
);
leftKerningGroup = a;
note = ahookabove;
rightKerningGroup = a;
unicode = 1EA3;
},
{
glyphname = "alpha-latin";
lastChange = "2015-10-28 10:23:48 +0000";
layers = (
{
layerId = "A85C0A33-2487-4E47-AED8-78B93E482A34";
name = "Regular Italic";
paths = (
{
closed = 1;
nodes = (
"335 -15 OFFCURVE",
"401 6 OFFCURVE",
"454 56 CURVE",
"443 0 LINE",
"565 0 LINE",
"667 480 LINE",
"541 480 LINE",
"531 433 LINE",
"493 475 OFFCURVE",
"435 495 OFFCURVE",
"358 495 CURVE SMOOTH",
"205 495 OFFCURVE",
"83 391 OFFCURVE",
"50 239 CURVE SMOOTH",
"18 85 OFFCURVE",
"110 -15 OFFCURVE",
"249 -15 CURVE SMOOTH"
);
},
{
closed = 1;
nodes = (
"195 84 OFFCURVE",
"159 141 OFFCURVE",
"178 239 CURVE SMOOTH",
"196 332 OFFCURVE",
"273 396 OFFCURVE",
"368 396 CURVE SMOOTH",
"449 396 OFFCURVE",
"493 353 OFFCURVE",
"500 288 CURVE",
"479 191 LINE",
"442 126 OFFCURVE",
"373 84 OFFCURVE",
"301 84 CURVE SMOOTH"
);
}
);
width = 665;
}
);
leftKerningGroup = a;
note = ascript;
rightKerningGroup = a;
unicode = 0251;
},
{
glyphname = amacron;
lastChange = "2015-10-28 10:23:47 +0000";
layers = (
{
layerId = "A85C0A33-2487-4E47-AED8-78B93E482A34";
name = "Regular Italic";
paths = (
{
closed = 1;
nodes = (
"335 -15 OFFCURVE",
"401 6 OFFCURVE",
"454 56 CURVE",
"443 0 LINE",
"565 0 LINE",
"667 480 LINE",
"541 480 LINE",
"531 433 LINE",
"493 475 OFFCURVE",
"435 495 OFFCURVE",
"358 495 CURVE SMOOTH",
"205 495 OFFCURVE",
"82 391 OFFCURVE",
"50 239 CURVE SMOOTH",
"17 85 OFFCURVE",
"110 -15 OFFCURVE",
"249 -15 CURVE SMOOTH"
);
},
{
closed = 1;
nodes = (
"195 84 OFFCURVE",
"159 141 OFFCURVE",
"178 239 CURVE SMOOTH",
"196 332 OFFCURVE",
"273 396 OFFCURVE",
"368 396 CURVE SMOOTH",
"449 396 OFFCURVE",
"493 353 OFFCURVE",
"500 288 CURVE",
"479 191 LINE",
"442 126 OFFCURVE",
"373 84 OFFCURVE",
"301 84 CURVE SMOOTH"
);
},
{
closed = 1;
nodes = (
"605 545 LINE",
"623 629 LINE",
"301 629 LINE",
"283 545 LINE"
);
}
);
width = 660;
}
);
leftKerningGroup = a;
note = amacron;
rightKerningGroup = a;
unicode = 0101;
},
